<ttFont>
<head>
    <!-- Most of this table will be recalculated by the compiler -->
    <tableVersion value="1.0"/>
    <fontRevision value="1.0"/>
    <checkSumAdjustment value="0x909057c9"/>
    <magicNumber value="0x5f0f3cf5"/>
    <flags value="00000000 00011011"/>
    <unitsPerEm value="1000"/>
    <created value="Sat Dec  6 13:43:36 2025"/>
    <modified value="Sat Dec  6 13:50:57 2025"/>
    <xMin value="-58"/>
    <yMin value="-250"/>
    <xMax value="1195"/>
    <yMax value="750"/>
    <macStyle value="00000000 00000001"/>
    <lowestRecPPEM value="6"/>
    <fontDirectionHint value="2"/>
    <indexToLocFormat value="0"/>
    <glyphDataFormat value="0"/>
  </head>
    <TTGlyph name="A" xMin="43" yMin="0" xMax="849" yMax="700">
      <contour>
        <pt x="752" y="49" on="1"/>
        <pt x="849" y="49" on="1"/>
        <pt x="849" y="0" on="1"/>
        <pt x="835" y="1" on="0"/>
        <pt x="791" y="2" on="0"/>
        <pt x="745" y="3" on="0"/>
        <pt x="700" y="3" on="0"/>
        <pt x="684" y="3" on="1"/>
        <pt x="669" y="3" on="0"/>
        <pt x="619" y="3" on="0"/>
        <pt x="567" y="2" on="0"/>
        <pt x="520" y="1" on="0"/>
        <pt x="507" y="0" on="1"/>
        <pt x="507" y="49" on="1"/>
        <pt x="601" y="49" on="1"/>
        <pt x="541" y="192" on="1"/>
        <pt x="264" y="192" on="1"/>
        <pt x="209" y="60" on="1"/>
        <pt x="230" y="52" on="0"/>
        <pt x="278" y="49" on="0"/>
        <pt x="298" y="49" on="1"/>
        <pt x="298" y="0" on="1"/>
        <pt x="252" y="2" on="0"/>
        <pt x="194" y="3" on="0"/>
        <pt x="165" y="3" on="1"/>
        <pt x="145" y="3" on="0"/>
        <pt x="118" y="3" on="0"/>
        <pt x="92" y="2" on="0"/>
        <pt x="64" y="1" on="0"/>
        <pt x="43" y="0" on="1"/>
        <pt x="43" y="49" on="1"/>
        <pt x="64" y="49" on="1"/>
        <pt x="92" y="49" on="0"/>
        <pt x="117" y="52" on="1"/>
        <pt x="136" y="54" on="0"/>
        <pt x="144" y="60" on="0"/>
        <pt x="149" y="72" on="1"/>
        <pt x="402" y="673" on="1"/>
        <pt x="410" y="693" on="0"/>
        <pt x="432" y="700" on="0"/>
        <pt x="446" y="700" on="1"/>
        <pt x="460" y="700" on="0"/>
        <pt x="482" y="693" on="0"/>
        <pt x="490" y="673" on="1"/>
      </contour>
      <contour>
        <pt x="285" y="241" on="1"/>
        <pt x="520" y="241" on="1"/>
        <pt x="403" y="521" on="1"/>
      </contour>
    </TTGlyph>
    <TTGlyph name="AE" xMin="43" yMin="0" xMax="1037" yMax="686">
      <contour>
        <pt x="990" y="0" on="1"/>
        <pt x="414" y="0" on="1"/>
        <pt x="414" y="49" on="1"/>
        <pt x="495" y="49" on="1"/>
        <pt x="495" y="306" on="1"/>
        <pt x="316" y="306" on="1"/>
        <pt x="210" y="60" on="1"/>
        <pt x="231" y="52" on="0"/>
        <pt x="278" y="49" on="0"/>
        <pt x="299" y="49" on="1"/>
        <pt x="299" y="0" on="1"/>
        <pt x="232" y="3" on="0"/>
        <pt x="165" y="3" on="1"/>
        <pt x="145" y="3" on="0"/>
        <pt x="118" y="3" on="0"/>
        <pt x="92" y="2" on="0"/>
        <pt x="64" y="1" on="0"/>
        <pt x="43" y="0" on="1"/>
        <pt x="43" y="49" on="1"/>
        <pt x="64" y="49" on="1"/>
        <pt x="75" y="49" on="0"/>
        <pt x="87" y="49" on="0"/>
        <pt x="97" y="50" on="0"/>
        <pt x="108" y="51" on="0"/>
        <pt x="117" y="52" on="1"/>
        <pt x="127" y="53" on="0"/>
        <pt x="138" y="55" on="0"/>
        <pt x="144" y="59" on="0"/>
        <pt x="148" y="66" on="0"/>
        <pt x="150" y="71" on="1"/>
        <pt x="396" y="637" on="1"/>
        <pt x="321" y="637" on="1"/>
        <pt x="321" y="686" on="1"/>
        <pt x="973" y="686" on="1"/>
        <pt x="1004" y="443" on="1"/>
        <pt x="953" y="443" on="1"/>
        <pt x="947" y="485" on="0"/>
        <pt x="931" y="557" on="0"/>
        <pt x="892" y="608" on="0"/>
        <pt x="820" y="637" on="0"/>
        <pt x="759" y="637" on="1"/>
        <pt x="631" y="637" on="1"/>
        <pt x="631" y="355" on="1"/>
        <pt x="695" y="355" on="1"/>
        <pt x="732" y="355" on="0"/>
        <pt x="775" y="370" on="0"/>
        <pt x="798" y="399" on="0"/>
        <pt x="805" y="443" on="0"/>
        <pt x="805" y="472" on="1"/>
        <pt x="856" y="472" on="1"/>
        <pt x="856" y="189" on="1"/>
        <pt x="805" y="189" on="1"/>
        <pt x="805" y="218" on="0"/>
        <pt x="798" y="262" on="0"/>
        <pt x="775" y="291" on="0"/>
        <pt x="731" y="306" on="0"/>
        <pt x="695" y="306" on="1"/>
        <pt x="631" y="306" on="1"/>
        <pt x="631" y="49" on="1"/>
        <pt x="763" y="49" on="1"/>
        <pt x="832" y="49" on="0"/>
        <pt x="912" y="85" on="0"/>
        <pt x="957" y="146" on="0"/>
        <pt x="978" y="229" on="0"/>
        <pt x="986" y="276" on="1"/>
        <pt x="1037" y="276" on="1"/>
      </contour>
      <contour>
        <pt x="338" y="355" on="1"/>
        <pt x="495" y="355" on="1"/>
        <pt x="495" y="637" on="1"/>
        <pt x="460" y="637" on="1"/>
      </contour>
    </TTGlyph>
    <TTGlyph name="B" xMin="42" yMin="0" xMax="774" yMax="686">
      <contour>
        <pt x="42" y="637" on="1"/>
        <pt x="42" y="686" on="1"/>
        <pt x="486" y="686" on="1"/>
        <pt x="548" y="686" on="0"/>
        <pt x="643" y="658" on="0"/>
        <pt x="708" y="611" on="0"/>
        <pt x="741" y="549" on="0"/>
        <pt x="741" y="514" on="1"/>
        <pt x="741" y="458" on="0"/>
        <pt x="650" y="373" on="0"/>
        <pt x="567" y="359" on="1"/>
        <pt x="617" y="353" on="0"/>
        <pt x="694" y="322" on="0"/>
        <pt x="747" y="277" on="0"/>
        <pt x="774" y="219" on="0"/>
        <pt x="774" y="186" on="1"/>
        <pt x="774" y="150" on="0"/>
        <pt x="742" y="82" on="0"/>
        <pt x="677" y="31" on="0"/>
        <pt x="581" y="0" on="0"/>
        <pt x="517" y="0" on="1"/>
        <pt x="42" y="0" on="1"/>
        <pt x="42" y="49" on="1"/>
        <pt x="150" y="49" on="1"/>
        <pt x="150" y="637" on="1"/>
      </contour>
      <contour>
        <pt x="447" y="377" on="1"/>
        <pt x="485" y="377" on="0"/>
        <pt x="540" y="399" on="0"/>
        <pt x="578" y="437" on="0"/>
        <pt x="596" y="487" on="0"/>
        <pt x="596" y="514" on="1"/>
        <pt x="596" y="522" on="0"/>
        <pt x="591" y="562" on="0"/>
        <pt x="567" y="604" on="0"/>
        <pt x="518" y="637" on="0"/>
        <pt x="473" y="637" on="1"/>
        <pt x="283" y="637" on="1"/>
        <pt x="283" y="377" on="1"/>
      </contour>
      <contour>
        <pt x="475" y="49" on="1"/>
        <pt x="516" y="49" on="0"/>
        <pt x="572" y="73" on="0"/>
        <pt x="607" y="112" on="0"/>
        <pt x="623" y="162" on="0"/>
        <pt x="623" y="188" on="1"/>
        <pt x="623" y="255" on="0"/>
        <pt x="555" y="337" on="0"/>
        <pt x="485" y="337" on="1"/>
        <pt x="283" y="337" on="1"/>
        <pt x="283" y="49" on="1"/>
      </contour>
    </TTGlyph>
    <TTGlyph name="C" xMin="66" yMin="-12" xMax="788" yMax="698">
      <contour>
        <pt x="788" y="453" on="1"/>
        <pt x="788" y="433" on="0"/>
        <pt x="778" y="424" on="0"/>
        <pt x="758" y="424" on="1"/>
        <pt x="747" y="424" on="0"/>
        <pt x="731" y="427" on="0"/>
        <pt x="729" y="437" on="1"/>
        <pt x="719" y="497" on="0"/>
        <pt x="670" y="578" on="0"/>
        <pt x="605" y="627" on="0"/>
        <pt x="532" y="649" on="0"/>
        <pt x="499" y="649" on="1"/>
        <pt x="436" y="649" on="0"/>
        <pt x="323" y="609" on="0"/>
        <pt x="288" y="569" on="1"/>
        <pt x="273" y="552" on="0"/>
        <pt x="248" y="511" on="0"/>
        <pt x="232" y="457" on="0"/>
        <pt x="223" y="388" on="0"/>
        <pt x="223" y="343" on="1"/>
        <pt x="223" y="318" on="0"/>
        <pt x="227" y="259" on="0"/>
        <pt x="239" y="200" on="0"/>
        <pt x="263" y="145" on="0"/>
        <pt x="283" y="122" on="1"/>
        <pt x="308" y="94" on="0"/>
        <pt x="367" y="61" on="0"/>
        <pt x="426" y="43" on="0"/>
        <pt x="481" y="37" on="0"/>
        <pt x="501" y="37" on="1"/>
        <pt x="537" y="37" on="0"/>
        <pt x="617" y="58" on="0"/>
        <pt x="686" y="104" on="0"/>
        <pt x="734" y="180" on="0"/>
        <pt x="737" y="234" on="1"/>
        <pt x="738" y="246" on="0"/>
        <pt x="754" y="250" on="0"/>
        <pt x="762" y="250" on="1"/>
        <pt x="774" y="250" on="0"/>
        <pt x="788" y="245" on="0"/>
        <pt x="788" y="228" on="1"/>
        <pt x="788" y="183" on="0"/>
        <pt x="744" y="97" on="0"/>
        <pt x="664" y="29" on="0"/>
        <pt x="550" y="-12" on="0"/>
        <pt x="479" y="-12" on="1"/>
        <pt x="380" y="-12" on="0"/>
        <pt x="226" y="43" on="0"/>
        <pt x="121" y="139" on="0"/>
        <pt x="66" y="269" on="0"/>
        <pt x="66" y="343" on="1"/>
        <pt x="66" y="419" on="0"/>
        <pt x="122" y="549" on="0"/>
        <pt x="228" y="644" on="0"/>
        <pt x="381" y="698" on="0"/>
        <pt x="478" y="698" on="1"/>
        <pt x="533" y="698" on="0"/>
        <pt x="638" y="665" on="0"/>
        <pt x="681" y="630" on="1"/>
        <pt x="747" y="688" on="1"/>
        <pt x="754" y="694" on="0"/>
        <pt x="760" y="698" on="0"/>
        <pt x="768" y="698" on="1"/>
        <pt x="783" y="698" on="0"/>
        <pt x="788" y="683" on="0"/>
        <pt x="788" y="669" on="1"/>
      </contour>
    </TTGlyph>
    <TTGlyph name="D" xMin="42" yMin="0" xMax="840" yMax="686">
      <contour>
        <pt x="42" y="637" on="1"/>
        <pt x="42" y="686" on="1"/>
        <pt x="483" y="686" on="1"/>
        <pt x="562" y="686" on="0"/>
        <pt x="693" y="637" on="0"/>
        <pt x="788" y="546" on="0"/>
        <pt x="840" y="418" on="0"/>
        <pt x="840" y="338" on="1"/>
        <pt x="840" y="257" on="0"/>
        <pt x="785" y="131" on="0"/>
        <pt x="689" y="45" on="0"/>
        <pt x="559" y="0" on="0"/>
        <pt x="484" y="0" on="1"/>
        <pt x="42" y="0" on="1"/>
        <pt x="42" y="49" on="1"/>
        <pt x="150" y="49" on="1"/>
        <pt x="150" y="637" on="1"/>
      </contour>
      <contour>
        <pt x="442" y="49" on="1"/>
        <pt x="504" y="49" on="0"/>
        <pt x="588" y="78" on="0"/>
        <pt x="643" y="126" on="0"/>
        <pt x="673" y="188" on="0"/>
        <pt x="687" y="252" on="0"/>
        <pt x="689" y="314" on="0"/>
        <pt x="689" y="338" on="1"/>
        <pt x="689" y="407" on="0"/>
        <pt x="671" y="515" on="0"/>
        <pt x="638" y="557" on="1"/>
        <pt x="605" y="599" on="0"/>
        <pt x="501" y="637" on="0"/>
        <pt x="441" y="637" on="1"/>
        <pt x="289" y="637" on="1"/>
        <pt x="289" y="49" on="1"/>
      </contour>
    </TTGlyph>
    <TTGlyph name="E" xMin="42" yMin="0" xMax="743" yMax="680">
      <contour>
        <pt x="696" y="0" on="1"/>
        <pt x="42" y="0" on="1"/>
        <pt x="42" y="49" on="1"/>
        <pt x="150" y="49" on="1"/>
        <pt x="150" y="631" on="1"/>
        <pt x="42" y="631" on="1"/>
        <pt x="42" y="680" on="1"/>
        <pt x="679" y="680" on="1"/>
        <pt x="710" y="437" on="1"/>
        <pt x="659" y="437" on="1"/>
        <pt x="653" y="484" on="0"/>
        <pt x="632" y="556" on="0"/>
        <pt x="587" y="606" on="0"/>
        <pt x="513" y="631" on="0"/>
        <pt x="453" y="631" on="1"/>
        <pt x="295" y="631" on="1"/>
        <pt x="295" y="377" on="1"/>
        <pt x="353" y="377" on="1"/>
        <pt x="390" y="377" on="0"/>
        <pt x="433" y="393" on="0"/>
        <pt x="455" y="423" on="0"/>
        <pt x="461" y="467" on="0"/>
        <pt x="461" y="494" on="1"/>
        <pt x="512" y="494" on="1"/>
        <pt x="512" y="211" on="1"/>
        <pt x="461" y="211" on="1"/>
        <pt x="461" y="238" on="0"/>
        <pt x="455" y="282" on="0"/>
        <pt x="433" y="312" on="0"/>
        <pt x="390" y="328" on="0"/>
        <pt x="353" y="328" on="1"/>
        <pt x="295" y="328" on="1"/>
        <pt x="295" y="49" on="1"/>
        <pt x="454" y="49" on="1"/>
        <pt x="527" y="49" on="0"/>
        <pt x="613" y="84" on="0"/>
        <pt x="662" y="145" on="0"/>
        <pt x="684" y="228" on="0"/>
        <pt x="692" y="276" on="1"/>
        <pt x="743" y="276" on="1"/>
      </contour>
    </TTGlyph>
    <TTGlyph name="F" xMin="42" yMin="0" xMax="694" yMax="680">
      <contour>
        <pt x="694" y="437" on="1"/>
        <pt x="643" y="437" on="1"/>
        <pt x="637" y="482" on="0"/>
        <pt x="618" y="553" on="0"/>
        <pt x="576" y="604" on="0"/>
        <pt x="502" y="631" on="0"/>
        <pt x="442" y="631" on="1"/>
        <pt x="295" y="631" on="1"/>
        <pt x="295" y="365" on="1"/>
        <pt x="349" y="365" on="1"/>
        <pt x="385" y="365" on="0"/>
        <pt x="428" y="381" on="0"/>
        <pt x="449" y="411" on="0"/>
        <pt x="455" y="454" on="0"/>
        <pt x="455" y="482" on="1"/>
        <pt x="506" y="482" on="1"/>
        <pt x="506" y="199" on="1"/>
        <pt x="455" y="199" on="1"/>
        <pt x="455" y="227" on="0"/>
        <pt x="449" y="270" on="0"/>
        <pt x="428" y="300" on="0"/>
        <pt x="385" y="316" on="0"/>
        <pt x="349" y="316" on="1"/>
        <pt x="295" y="316" on="1"/>
        <pt x="295" y="49" on="1"/>
        <pt x="430" y="49" on="1"/>
        <pt x="430" y="0" on="1"/>
        <pt x="415" y="1" on="0"/>
        <pt x="361" y="2" on="0"/>
        <pt x="302" y="3" on="0"/>
        <pt x="246" y="3" on="0"/>
        <pt x="228" y="3" on="1"/>
        <pt x="212" y="3" on="0"/>
        <pt x="160" y="3" on="0"/>
        <pt x="105" y="2" on="0"/>
        <pt x="55" y="1" on="0"/>
        <pt x="42" y="0" on="1"/>
        <pt x="42" y="49" on="1"/>
        <pt x="150" y="49" on="1"/>
        <pt x="150" y="631" on="1"/>
        <pt x="42" y="631" on="1"/>
        <pt x="42" y="680" on="1"/>
        <pt x="663" y="680" on="1"/>
      </contour>
    </TTGlyph>
    <TTGlyph name="G" xMin="66" yMin="-12" xMax="870" yMax="698">
      <contour>
        <pt x="788" y="29" on="1"/>
        <pt x="788" y="18" on="0"/>
        <pt x="784" y="0" on="0"/>
        <pt x="773" y="0" on="1"/>
        <pt x="770" y="0" on="0"/>
        <pt x="747" y="9" on="0"/>
        <pt x="717" y="24" on="0"/>
        <pt x="687" y="41" on="0"/>
        <pt x="676" y="49" on="1"/>
        <pt x="657" y="27" on="0"/>
        <pt x="603" y="3" on="0"/>
        <pt x="548" y="-9" on="0"/>
        <pt x="497" y="-12" on="0"/>
        <pt x="480" y="-12" on="1"/>
        <pt x="379" y="-12" on="0"/>
        <pt x="224" y="44" on="0"/>
        <pt x="119" y="141" on="0"/>
        <pt x="66" y="270" on="0"/>
        <pt x="66" y="343" on="1"/>
        <pt x="66" y="419" on="0"/>
        <pt x="122" y="549" on="0"/>
        <pt x="228" y="644" on="0"/>
        <pt x="381" y="698" on="0"/>
        <pt x="478" y="698" on="1"/>
        <pt x="533" y="698" on="0"/>
        <pt x="638" y="665" on="0"/>
        <pt x="681" y="630" on="1"/>
        <pt x="747" y="688" on="1"/>
        <pt x="754" y="694" on="0"/>
        <pt x="760" y="698" on="0"/>
        <pt x="768" y="698" on="1"/>
        <pt x="783" y="698" on="0"/>
        <pt x="788" y="683" on="0"/>
        <pt x="788" y="669" on="1"/>
        <pt x="788" y="453" on="1"/>
        <pt x="788" y="433" on="0"/>
        <pt x="778" y="424" on="0"/>
        <pt x="758" y="424" on="1"/>
        <pt x="747" y="424" on="0"/>
        <pt x="731" y="427" on="0"/>
        <pt x="729" y="437" on="1"/>
        <pt x="719" y="497" on="0"/>
        <pt x="670" y="578" on="0"/>
        <pt x="605" y="627" on="0"/>
        <pt x="532" y="649" on="0"/>
        <pt x="499" y="649" on="1"/>
        <pt x="483" y="649" on="0"/>
        <pt x="433" y="645" on="0"/>
        <pt x="376" y="629" on="0"/>
        <pt x="318" y="600" on="0"/>
        <pt x="292" y="574" on="1"/>
        <pt x="270" y="551" on="0"/>
        <pt x="242" y="495" on="0"/>
        <pt x="228" y="434" on="0"/>
        <pt x="223" y="372" on="0"/>
        <pt x="223" y="344" on="1"/>
        <pt x="223" y="328" on="0"/>
        <pt x="225" y="274" on="0"/>
        <pt x="237" y="212" on="0"/>
        <pt x="261" y="149" on="0"/>
        <pt x="283" y="124" on="1"/>
        <pt x="309" y="95" on="0"/>
        <pt x="371" y="61" on="0"/>
        <pt x="431" y="43" on="0"/>
        <pt x="487" y="37" on="0"/>
        <pt x="507" y="37" on="1"/>
        <pt x="532" y="37" on="0"/>
        <pt x="580" y="46" on="0"/>
        <pt x="600" y="56" on="1"/>
        <pt x="616" y="64" on="0"/>
        <pt x="634" y="83" on="0"/>
        <pt x="642" y="102" on="0"/>
        <pt x="643" y="120" on="0"/>
        <pt x="643" y="128" on="1"/>
        <pt x="643" y="228" on="1"/>
        <pt x="495" y="228" on="1"/>
        <pt x="495" y="277" on="1"/>
        <pt x="512" y="276" on="0"/>
        <pt x="566" y="275" on="0"/>
        <pt x="626" y="274" on="0"/>
        <pt x="682" y="274" on="0"/>
        <pt x="701" y="274" on="1"/>
        <pt x="717" y="274" on="0"/>
        <pt x="763" y="274" on="0"/>
        <pt x="811" y="275" on="0"/>
        <pt x="855" y="276" on="0"/>
        <pt x="870" y="277" on="1"/>
        <pt x="870" y="228" on="1"/>
        <pt x="788" y="228" on="1"/>
      </contour>
    </TTGlyph>
    <TTGlyph name="Gamma" xMin="42" yMin="0" xMax="661" yMax="680">
      <contour>
        <pt x="661" y="437" on="1"/>
        <pt x="610" y="437" on="1"/>
        <pt x="604" y="480" on="0"/>
        <pt x="588" y="551" on="0"/>
        <pt x="549" y="602" on="0"/>
        <pt x="477" y="631" on="0"/>
        <pt x="416" y="631" on="1"/>
        <pt x="295" y="631" on="1"/>
        <pt x="295" y="49" on="1"/>
        <pt x="430" y="49" on="1"/>
        <pt x="430" y="0" on="1"/>
        <pt x="415" y="1" on="0"/>
        <pt x="361" y="2" on="0"/>
        <pt x="302" y="3" on="0"/>
        <pt x="246" y="3" on="0"/>
        <pt x="228" y="3" on="1"/>
        <pt x="212" y="3" on="0"/>
        <pt x="160" y="3" on="0"/>
        <pt x="105" y="2" on="0"/>
        <pt x="55" y="1" on="0"/>
        <pt x="42" y="0" on="1"/>
        <pt x="42" y="49" on="1"/>
        <pt x="150" y="49" on="1"/>
        <pt x="150" y="631" on="1"/>
        <pt x="42" y="631" on="1"/>
        <pt x="42" y="680" on="1"/>
        <pt x="630" y="680" on="1"/>
      </contour>
    </TTGlyph>
    <TTGlyph name="H" xMin="42" yMin="0" xMax="881" yMax="686">
      <contour>
        <pt x="773" y="49" on="1"/>
        <pt x="881" y="49" on="1"/>
        <pt x="881" y="0" on="1"/>
        <pt x="868" y="1" on="0"/>
        <pt x="820" y="2" on="0"/>
        <pt x="766" y="3" on="0"/>
        <pt x="715" y="3" on="0"/>
        <pt x="700" y="3" on="1"/>
        <pt x="685" y="3" on="0"/>
        <pt x="634" y="3" on="0"/>
        <pt x="581" y="2" on="0"/>
        <pt x="533" y="1" on="0"/>
        <pt x="520" y="0" on="1"/>
        <pt x="520" y="49" on="1"/>
        <pt x="628" y="49" on="1"/>
        <pt x="628" y="332" on="1"/>
        <pt x="295" y="332" on="1"/>
        <pt x="295" y="49" on="1"/>
        <pt x="403" y="49" on="1"/>
        <pt x="403" y="0" on="1"/>
        <pt x="390" y="1" on="0"/>
        <pt x="342" y="2" on="0"/>
        <pt x="288" y="3" on="0"/>
        <pt x="237" y="3" on="0"/>
        <pt x="222" y="3" on="1"/>
        <pt x="207" y="3" on="0"/>
        <pt x="156" y="3" on="0"/>
        <pt x="103" y="2" on="0"/>
        <pt x="55" y="1" on="0"/>
        <pt x="42" y="0" on="1"/>
        <pt x="42" y="49" on="1"/>
        <pt x="150" y="49" on="1"/>
        <pt x="150" y="637" on="1"/>
        <pt x="42" y="637" on="1"/>
        <pt x="42" y="686" on="1"/>
        <pt x="55" y="685" on="0"/>
        <pt x="103" y="684" on="0"/>
        <pt x="157" y="683" on="0"/>
        <pt x="208" y="683" on="0"/>
        <pt x="223" y="683" on="1"/>
        <pt x="238" y="683" on="0"/>
        <pt x="289" y="683" on="0"/>
        <pt x="342" y="684" on="0"/>
        <pt x="390" y="685" on="0"/>
        <pt x="403" y="686" on="1"/>
        <pt x="403" y="637" on="1"/>
        <pt x="295" y="637" on="1"/>
        <pt x="295" y="381" on="1"/>
        <pt x="628" y="381" on="1"/>
        <pt x="628" y="637" on="1"/>
        <pt x="520" y="637" on="1"/>
        <pt x="520" y="686" on="1"/>
        <pt x="533" y="685" on="0"/>
        <pt x="581" y="684" on="0"/>
        <pt x="635" y="683" on="0"/>
        <pt x="686" y="683" on="0"/>
        <pt x="701" y="683" on="1"/>
        <pt x="716" y="683" on="0"/>
        <pt x="767" y="683" on="0"/>
        <pt x="820" y="684" on="0"/>
        <pt x="868" y="685" on="0"/>
        <pt x="881" y="686" on="1"/>
        <pt x="881" y="637" on="1"/>
        <pt x="773" y="637" on="1"/>
      </contour>
    </TTGlyph>
    <TTGlyph name="I" xMin="37" yMin="0" xMax="408" yMax="686">
      <contour>
        <pt x="295" y="49" on="1"/>
        <pt x="408" y="49" on="1"/>
        <pt x="408" y="0" on="1"/>
        <pt x="395" y="1" on="0"/>
        <pt x="345" y="2" on="0"/>
        <pt x="290" y="3" on="0"/>
        <pt x="238" y="3" on="0"/>
        <pt x="222" y="3" on="1"/>
        <pt x="206" y="3" on="0"/>
        <pt x="154" y="3" on="0"/>
        <pt x="99" y="2" on="0"/>
        <pt x="50" y="1" on="0"/>
        <pt x="37" y="0" on="1"/>
        <pt x="37" y="49" on="1"/>
        <pt x="150" y="49" on="1"/>
        <pt x="150" y="637" on="1"/>
        <pt x="37" y="637" on="1"/>
        <pt x="37" y="686" on="1"/>
        <pt x="50" y="685" on="0"/>
        <pt x="100" y="684" on="0"/>
        <pt x="155" y="683" on="0"/>
        <pt x="207" y="683" on="0"/>
        <pt x="223" y="683" on="1"/>
        <pt x="239" y="683" on="0"/>
        <pt x="291" y="683" on="0"/>
        <pt x="346" y="684" on="0"/>
        <pt x="395" y="685" on="0"/>
        <pt x="408" y="686" on="1"/>
        <pt x="408" y="637" on="1"/>
        <pt x="295" y="637" on="1"/>
      </contour>
    </TTGlyph>
    <TTGlyph name="J" xMin="23" yMin="-12" xMax="541" yMax="686">
      <contour>
        <pt x="460" y="150" on="1"/>
        <pt x="460" y="112" on="0"/>
        <pt x="426" y="52" on="0"/>
        <pt x="364" y="10" on="0"/>
        <pt x="277" y="-12" on="0"/>
        <pt x="223" y="-12" on="1"/>
        <pt x="129" y="-12" on="0"/>
        <pt x="23" y="57" on="0"/>
        <pt x="23" y="113" on="1"/>
        <pt x="23" y="152" on="0"/>
        <pt x="71" y="193" on="0"/>
        <pt x="102" y="193" on="1"/>
        <pt x="134" y="193" on="0"/>
        <pt x="181" y="151" on="0"/>
        <pt x="181" y="114" on="1"/>
        <pt x="181" y="97" on="0"/>
        <pt x="163" y="56" on="0"/>
        <pt x="138" y="43" on="1"/>
        <pt x="159" y="35" on="0"/>
        <pt x="204" y="28" on="0"/>
        <pt x="219" y="28" on="1"/>
        <pt x="266" y="28" on="0"/>
        <pt x="321" y="86" on="0"/>
        <pt x="321" y="149" on="1"/>
        <pt x="321" y="637" on="1"/>
        <pt x="181" y="637" on="1"/>
        <pt x="181" y="686" on="1"/>
        <pt x="195" y="685" on="0"/>
        <pt x="248" y="684" on="0"/>
        <pt x="306" y="683" on="0"/>
        <pt x="361" y="683" on="0"/>
        <pt x="378" y="683" on="1"/>
        <pt x="395" y="683" on="0"/>
        <pt x="438" y="683" on="0"/>
        <pt x="483" y="684" on="0"/>
        <pt x="526" y="685" on="0"/>
        <pt x="541" y="686" on="1"/>
        <pt x="541" y="637" on="1"/>
        <pt x="460" y="637" on="1"/>
      </contour>
    </TTGlyph>
    <TTGlyph name="K" xMin="42" yMin="0" xMax="876" yMax="686">
      <contour>
        <pt x="779" y="68" on="1"/>
        <pt x="783" y="63" on="0"/>
        <pt x="791" y="56" on="0"/>
        <pt x="804" y="51" on="0"/>
        <pt x="827" y="49" on="0"/>
        <pt x="847" y="49" on="1"/>
        <pt x="876" y="49" on="1"/>
        <pt x="876" y="0" on="1"/>
        <pt x="852" y="1" on="0"/>
        <pt x="804" y="2" on="0"/>
        <pt x="762" y="3" on="0"/>
        <pt x="731" y="3" on="0"/>
        <pt x="725" y="3" on="1"/>
        <pt x="709" y="3" on="0"/>
        <pt x="661" y="3" on="0"/>
        <pt x="611" y="2" on="0"/>
        <pt x="565" y="1" on="0"/>
        <pt x="551" y="0" on="1"/>
        <pt x="551" y="49" on="1"/>
        <pt x="560" y="49" on="0"/>
        <pt x="585" y="49" on="0"/>
        <pt x="606" y="51" on="0"/>
        <pt x="621" y="56" on="0"/>
        <pt x="621" y="60" on="1"/>
        <pt x="621" y="61" on="0"/>
        <pt x="615" y="68" on="0"/>
        <pt x="614" y="69" on="1"/>
        <pt x="400" y="339" on="1"/>
        <pt x="295" y="254" on="1"/>
        <pt x="295" y="49" on="1"/>
        <pt x="403" y="49" on="1"/>
        <pt x="403" y="0" on="1"/>
        <pt x="390" y="1" on="0"/>
        <pt x="342" y="2" on="0"/>
        <pt x="288" y="3" on="0"/>
        <pt x="237" y="3" on="0"/>
        <pt x="222" y="3" on="1"/>
        <pt x="207" y="3" on="0"/>
        <pt x="156" y="3" on="0"/>
        <pt x="103" y="2" on="0"/>
        <pt x="55" y="1" on="0"/>
        <pt x="42" y="0" on="1"/>
        <pt x="42" y="49" on="1"/>
        <pt x="150" y="49" on="1"/>
        <pt x="150" y="637" on="1"/>
        <pt x="42" y="637" on="1"/>
        <pt x="42" y="686" on="1"/>
        <pt x="55" y="685" on="0"/>
        <pt x="103" y="684" on="0"/>
        <pt x="157" y="683" on="0"/>
        <pt x="208" y="683" on="0"/>
        <pt x="223" y="683" on="1"/>
        <pt x="238" y="683" on="0"/>
        <pt x="289" y="683" on="0"/>
        <pt x="342" y="684" on="0"/>
        <pt x="390" y="685" on="0"/>
        <pt x="403" y="686" on="1"/>
        <pt x="403" y="637" on="1"/>
        <pt x="295" y="637" on="1"/>
        <pt x="295" y="320" on="1"/>
        <pt x="674" y="626" on="1"/>
        <pt x="672" y="627" on="0"/>
        <pt x="673" y="628" on="0"/>
        <pt x="666" y="630" on="1"/>
        <pt x="659" y="632" on="0"/>
        <pt x="627" y="637" on="0"/>
        <pt x="607" y="637" on="1"/>
        <pt x="607" y="686" on="1"/>
        <pt x="621" y="685" on="0"/>
        <pt x="658" y="684" on="0"/>
        <pt x="698" y="683" on="0"/>
        <pt x="736" y="683" on="0"/>
        <pt x="751" y="683" on="1"/>
        <pt x="756" y="683" on="0"/>
        <pt x="780" y="683" on="0"/>
        <pt x="811" y="684" on="0"/>
        <pt x="844" y="685" on="0"/>
        <pt x="859" y="686" on="1"/>
        <pt x="859" y="637" on="1"/>
        <pt x="842" y="637" on="1"/>
        <pt x="817" y="637" on="0"/>
        <pt x="765" y="633" on="0"/>
        <pt x="748" y="619" on="1"/>
        <pt x="500" y="419" on="1"/>
      </contour>
    </TTGlyph>
    <TTGlyph name="L" xMin="42" yMin="0" xMax="661" yMax="686">
      <contour>
        <pt x="630" y="0" on="1"/>
        <pt x="42" y="0" on="1"/>
        <pt x="42" y="49" on="1"/>
        <pt x="150" y="49" on="1"/>
        <pt x="150" y="637" on="1"/>
        <pt x="42" y="637" on="1"/>
        <pt x="42" y="686" on="1"/>
        <pt x="55" y="685" on="0"/>
        <pt x="105" y="684" on="0"/>
        <pt x="161" y="683" on="0"/>
        <pt x="213" y="683" on="0"/>
        <pt x="229" y="683" on="1"/>
        <pt x="247" y="683" on="0"/>
        <pt x="302" y="683" on="0"/>
        <pt x="361" y="684" on="0"/>
        <pt x="415" y="685" on="0"/>
        <pt x="430" y="686" on="1"/>
        <pt x="430" y="637" on="1"/>
        <pt x="295" y="637" on="1"/>
        <pt x="295" y="49" on="1"/>
        <pt x="402" y="49" on="1"/>
        <pt x="471" y="49" on="0"/>
        <pt x="551" y="101" on="0"/>
        <pt x="593" y="173" on="0"/>
        <pt x="607" y="250" on="0"/>
        <pt x="610" y="276" on="1"/>
        <pt x="661" y="276" on="1"/>
      </contour>
    </TTGlyph>
    <TTGlyph name="Lambda" xMin="42" yMin="0" xMax="784" yMax="700">
      <contour>
        <pt x="698" y="49" on="1"/>
        <pt x="784" y="49" on="1"/>
        <pt x="784" y="0" on="1"/>
        <pt x="769" y="1" on="0"/>
        <pt x="727" y="2" on="0"/>
        <pt x="684" y="3" on="0"/>
        <pt x="642" y="3" on="0"/>
        <pt x="625" y="3" on="1"/>
        <pt x="610" y="3" on="0"/>
        <pt x="560" y="3" on="0"/>
        <pt x="508" y="2" on="0"/>
        <pt x="461" y="1" on="0"/>
        <pt x="448" y="0" on="1"/>
        <pt x="448" y="49" on="1"/>
        <pt x="543" y="49" on="1"/>
        <pt x="367" y="500" on="1"/>
        <pt x="201" y="74" on="1"/>
        <pt x="198" y="68" on="0"/>
        <pt x="197" y="63" on="0"/>
        <pt x="196" y="59" on="1"/>
        <pt x="218" y="51" on="0"/>
        <pt x="269" y="49" on="0"/>
        <pt x="286" y="49" on="1"/>
        <pt x="286" y="0" on="1"/>
        <pt x="255" y="2" on="0"/>
        <pt x="197" y="3" on="0"/>
        <pt x="155" y="3" on="1"/>
        <pt x="138" y="3" on="0"/>
        <pt x="80" y="2" on="0"/>
        <pt x="42" y="0" on="1"/>
        <pt x="42" y="49" on="1"/>
        <pt x="54" y="49" on="0"/>
        <pt x="83" y="49" on="0"/>
        <pt x="97" y="51" on="1"/>
        <pt x="120" y="54" on="0"/>
        <pt x="131" y="60" on="0"/>
        <pt x="136" y="72" on="1"/>
        <pt x="371" y="673" on="1"/>
        <pt x="378" y="690" on="0"/>
        <pt x="394" y="700" on="0"/>
        <pt x="413" y="700" on="1"/>
        <pt x="436" y="700" on="0"/>
        <pt x="449" y="687" on="0"/>
        <pt x="455" y="672" on="1"/>
      </contour>
    </TTGlyph>
    <TTGlyph name="M" xMin="45" yMin="0" xMax="1076" yMax="686">
      <contour>
        <pt x="807" y="661" on="1"/>
        <pt x="816" y="680" on="0"/>
        <pt x="837" y="686" on="0"/>
        <pt x="853" y="686" on="1"/>
        <pt x="1076" y="686" on="1"/>
        <pt x="1076" y="637" on="1"/>
        <pt x="968" y="637" on="1"/>
        <pt x="968" y="49" on="1"/>
        <pt x="1076" y="49" on="1"/>
        <pt x="1076" y="0" on="1"/>
        <pt x="1063" y="1" on="0"/>
        <pt x="1017" y="2" on="0"/>
        <pt x="967" y="3" on="0"/>
        <pt x="919" y="3" on="0"/>
        <pt x="904" y="3" on="1"/>
        <pt x="889" y="3" on="0"/>
        <pt x="842" y="3" on="0"/>
        <pt x="792" y="2" on="0"/>
        <pt x="746" y="1" on="0"/>
        <pt x="733" y="0" on="1"/>
        <pt x="733" y="49" on="1"/>
        <pt x="841" y="49" on="1"/>
        <pt x="841" y="636" on="1"/>
        <pt x="840" y="636" on="1"/>
        <pt x="557" y="26" on="1"/>
        <pt x="553" y="18" on="0"/>
        <pt x="539" y="0" on="0"/>
        <pt x="522" y="0" on="1"/>
        <pt x="505" y="0" on="0"/>
        <pt x="491" y="19" on="0"/>
        <pt x="488" y="26" on="1"/>
        <pt x="211" y="623" on="1"/>
        <pt x="210" y="623" on="1"/>
        <pt x="210" y="78" on="1"/>
        <pt x="210" y="61" on="0"/>
        <pt x="218" y="54" on="0"/>
        <pt x="239" y="52" on="1"/>
        <pt x="248" y="51" on="0"/>
        <pt x="259" y="50" on="0"/>
        <pt x="270" y="49" on="0"/>
        <pt x="282" y="49" on="0"/>
        <pt x="292" y="49" on="1"/>
        <pt x="318" y="49" on="1"/>
        <pt x="318" y="0" on="1"/>
        <pt x="293" y="1" on="0"/>
        <pt x="257" y="2" on="0"/>
        <pt x="226" y="3" on="0"/>
        <pt x="198" y="3" on="0"/>
        <pt x="181" y="3" on="1"/>
        <pt x="165" y="3" on="0"/>
        <pt x="137" y="3" on="0"/>
        <pt x="106" y="2" on="0"/>
        <pt x="69" y="1" on="0"/>
        <pt x="45" y="0" on="1"/>
        <pt x="45" y="49" on="1"/>
        <pt x="71" y="49" on="1"/>
        <pt x="81" y="49" on="0"/>
        <pt x="93" y="49" on="0"/>
        <pt x="104" y="50" on="0"/>
        <pt x="115" y="51" on="0"/>
        <pt x="124" y="52" on="1"/>
        <pt x="145" y="54" on="0"/>
        <pt x="153" y="61" on="0"/>
        <pt x="153" y="78" on="1"/>
        <pt x="153" y="637" on="1"/>
        <pt x="45" y="637" on="1"/>
        <pt x="45" y="686" on="1"/>
        <pt x="269" y="686" on="1"/>
        <pt x="285" y="686" on="0"/>
        <pt x="307" y="680" on="0"/>
        <pt x="316" y="660" on="1"/>
        <pt x="561" y="131" on="1"/>
      </contour>
    </TTGlyph>
    <TTGlyph name="N" xMin="42" yMin="0" xMax="881" yMax="686">
      <contour>
        <pt x="716" y="206" on="1"/>
        <pt x="716" y="608" on="1"/>
        <pt x="716" y="625" on="0"/>
        <pt x="708" y="632" on="0"/>
        <pt x="687" y="634" on="1"/>
        <pt x="678" y="635" on="0"/>
        <pt x="667" y="636" on="0"/>
        <pt x="656" y="637" on="0"/>
        <pt x="644" y="637" on="0"/>
        <pt x="634" y="637" on="1"/>
        <pt x="608" y="637" on="1"/>
        <pt x="608" y="686" on="1"/>
        <pt x="633" y="685" on="0"/>
        <pt x="669" y="684" on="0"/>
        <pt x="700" y="683" on="0"/>
        <pt x="729" y="683" on="0"/>
        <pt x="745" y="683" on="1"/>
        <pt x="761" y="683" on="0"/>
        <pt x="789" y="683" on="0"/>
        <pt x="820" y="684" on="0"/>
        <pt x="857" y="685" on="0"/>
        <pt x="881" y="686" on="1"/>
        <pt x="881" y="637" on="1"/>
        <pt x="855" y="637" on="1"/>
        <pt x="845" y="637" on="0"/>
        <pt x="833" y="637" on="0"/>
        <pt x="822" y="636" on="0"/>
        <pt x="811" y="635" on="0"/>
        <pt x="802" y="634" on="1"/>
        <pt x="781" y="632" on="0"/>
        <pt x="773" y="625" on="0"/>
        <pt x="773" y="608" on="1"/>
        <pt x="773" y="33" on="1"/>
        <pt x="773" y="16" on="0"/>
        <pt x="766" y="0" on="0"/>
        <pt x="744" y="0" on="1"/>
        <pt x="733" y="0" on="0"/>
        <pt x="723" y="3" on="0"/>
        <pt x="715" y="13" on="1"/>
        <pt x="207" y="593" on="1"/>
        <pt x="207" y="78" on="1"/>
        <pt x="207" y="61" on="0"/>
        <pt x="215" y="54" on="0"/>
        <pt x="236" y="52" on="1"/>
        <pt x="245" y="51" on="0"/>
        <pt x="256" y="50" on="0"/>
        <pt x="267" y="49" on="0"/>
        <pt x="279" y="49" on="0"/>
        <pt x="289" y="49" on="1"/>
        <pt x="315" y="49" on="1"/>
        <pt x="315" y="0" on="1"/>
        <pt x="290" y="1" on="0"/>
        <pt x="254" y="2" on="0"/>
        <pt x="223" y="3" on="0"/>
        <pt x="195" y="3" on="0"/>
        <pt x="178" y="3" on="1"/>
        <pt x="162" y="3" on="0"/>
        <pt x="134" y="3" on="0"/>
        <pt x="103" y="2" on="0"/>
        <pt x="66" y="1" on="0"/>
        <pt x="42" y="0" on="1"/>
        <pt x="42" y="49" on="1"/>
        <pt x="68" y="49" on="1"/>
        <pt x="78" y="49" on="0"/>
        <pt x="90" y="49" on="0"/>
        <pt x="101" y="50" on="0"/>
        <pt x="112" y="51" on="0"/>
        <pt x="121" y="52" on="1"/>
        <pt x="142" y="54" on="0"/>
        <pt x="150" y="61" on="0"/>
        <pt x="150" y="78" on="1"/>
        <pt x="150" y="637" on="1"/>
        <pt x="42" y="637" on="1"/>
        <pt x="42" y="686" on="1"/>
        <pt x="273" y="686" on="1"/>
        <pt x="289" y="686" on="0"/>
        <pt x="299" y="683" on="0"/>
        <pt x="307" y="673" on="1"/>
      </contour>
    </TTGlyph>
    <TTGlyph name="O" xMin="66" yMin="-12" xMax="822" yMax="698">
      <contour>
        <pt x="822" y="339" on="1"/>
        <pt x="822" y="263" on="0"/>
        <pt x="771" y="134" on="0"/>
        <pt x="674" y="41" on="0"/>
        <pt x="534" y="-12" on="0"/>
        <pt x="444" y="-12" on="1"/>
        <pt x="354" y="-12" on="0"/>
        <pt x="214" y="41" on="0"/>
        <pt x="117" y="135" on="0"/>
        <pt x="66" y="263" on="0"/>
        <pt x="66" y="339" on="1"/>
        <pt x="66" y="417" on="0"/>
        <pt x="117" y="549" on="0"/>
        <pt x="214" y="644" on="0"/>
        <pt x="355" y="698" on="0"/>
        <pt x="444" y="698" on="1"/>
        <pt x="533" y="698" on="0"/>
        <pt x="673" y="645" on="0"/>
        <pt x="771" y="549" on="0"/>
        <pt x="822" y="417" on="0"/>
      </contour>
      <contour>
        <pt x="444" y="34" on="1"/>
        <pt x="499" y="34" on="0"/>
        <pt x="597" y="88" on="0"/>
        <pt x="625" y="140" on="1"/>
        <pt x="648" y="186" on="0"/>
        <pt x="665" y="287" on="0"/>
        <pt x="665" y="354" on="1"/>
        <pt x="665" y="380" on="0"/>
        <pt x="662" y="438" on="0"/>
        <pt x="652" y="495" on="0"/>
        <pt x="630" y="551" on="0"/>
        <pt x="612" y="575" on="1"/>
        <pt x="583" y="615" on="0"/>
        <pt x="494" y="655" on="0"/>
        <pt x="444" y="655" on="1"/>
        <pt x="414" y="655" on="0"/>
        <pt x="363" y="641" on="0"/>
        <pt x="322" y="620" on="0"/>
        <pt x="291" y="594" on="0"/>
        <pt x="281" y="582" on="1"/>
        <pt x="244" y="534" on="0"/>
        <pt x="223" y="421" on="0"/>
        <pt x="223" y="354" on="1"/>
        <pt x="223" y="329" on="0"/>
        <pt x="226" y="273" on="0"/>
        <pt x="235" y="215" on="0"/>
        <pt x="253" y="158" on="0"/>
        <pt x="268" y="132" on="1"/>
        <pt x="284" y="105" on="0"/>
        <pt x="326" y="68" on="0"/>
        <pt x="372" y="45" on="0"/>
        <pt x="421" y="34" on="0"/>
      </contour>
    </TTGlyph>
    <TTGlyph name="OE" xMin="85" yMin="-12" xMax="1168" yMax="698">
      <contour>
        <pt x="1121" y="0" on="1"/>
        <pt x="667" y="0" on="1"/>
        <pt x="647" y="0" on="0"/>
        <pt x="591" y="-4" on="0"/>
        <pt x="575" y="-6" on="1"/>
        <pt x="541" y="-9" on="0"/>
        <pt x="501" y="-12" on="0"/>
        <pt x="478" y="-12" on="1"/>
        <pt x="383" y="-12" on="0"/>
        <pt x="237" y="42" on="0"/>
        <pt x="137" y="137" on="0"/>
        <pt x="85" y="265" on="0"/>
        <pt x="85" y="339" on="1"/>
        <pt x="85" y="414" on="0"/>
        <pt x="136" y="545" on="0"/>
        <pt x="236" y="642" on="0"/>
        <pt x="382" y="698" on="0"/>
        <pt x="478" y="698" on="1"/>
        <pt x="502" y="698" on="0"/>
        <pt x="547" y="694" on="0"/>
        <pt x="576" y="692" on="1"/>
        <pt x="601" y="690" on="0"/>
        <pt x="632" y="687" on="0"/>
        <pt x="652" y="686" on="0"/>
        <pt x="663" y="686" on="0"/>
        <pt x="667" y="686" on="1"/>
        <pt x="1104" y="686" on="1"/>
        <pt x="1135" y="443" on="1"/>
        <pt x="1084" y="443" on="1"/>
        <pt x="1078" y="487" on="0"/>
        <pt x="1060" y="558" on="0"/>
        <pt x="1019" y="609" on="0"/>
        <pt x="946" y="637" on="0"/>
        <pt x="885" y="637" on="1"/>
        <pt x="736" y="637" on="1"/>
        <pt x="736" y="380" on="1"/>
        <pt x="829" y="380" on="1"/>
        <pt x="863" y="380" on="0"/>
        <pt x="910" y="391" on="0"/>
        <pt x="939" y="417" on="0"/>
        <pt x="952" y="463" on="0"/>
        <pt x="952" y="497" on="1"/>
        <pt x="1003" y="497" on="1"/>
        <pt x="1003" y="214" on="1"/>
        <pt x="952" y="214" on="1"/>
        <pt x="952" y="249" on="0"/>
        <pt x="939" y="294" on="0"/>
        <pt x="910" y="320" on="0"/>
        <pt x="863" y="331" on="0"/>
        <pt x="829" y="331" on="1"/>
        <pt x="736" y="331" on="1"/>
        <pt x="736" y="49" on="1"/>
        <pt x="886" y="49" on="1"/>
        <pt x="957" y="49" on="0"/>
        <pt x="1040" y="83" on="0"/>
        <pt x="1087" y="144" on="0"/>
        <pt x="1108" y="227" on="0"/>
        <pt x="1117" y="276" on="1"/>
        <pt x="1168" y="276" on="1"/>
      </contour>
      <contour>
        <pt x="610" y="489" on="1"/>
        <pt x="610" y="545" on="0"/>
        <pt x="596" y="612" on="0"/>
        <pt x="565" y="647" on="0"/>
        <pt x="517" y="658" on="0"/>
        <pt x="483" y="658" on="1"/>
        <pt x="430" y="658" on="0"/>
        <pt x="339" y="619" on="0"/>
        <pt x="273" y="543" on="0"/>
        <pt x="236" y="429" on="0"/>
        <pt x="236" y="355" on="1"/>
        <pt x="236" y="280" on="0"/>
        <pt x="271" y="159" on="0"/>
        <pt x="336" y="74" on="0"/>
        <pt x="427" y="28" on="0"/>
        <pt x="484" y="28" on="1"/>
        <pt x="518" y="28" on="0"/>
        <pt x="566" y="39" on="0"/>
        <pt x="596" y="75" on="0"/>
        <pt x="610" y="142" on="0"/>
        <pt x="610" y="197" on="1"/>
      </contour>
    </TTGlyph>
    <TTGlyph name="Oslash" xMin="66" yMin="-61" xMax="853" yMax="747">
      <contour>
        <pt x="697" y="637" on="1"/>
        <pt x="748" y="604" on="0"/>
        <pt x="810" y="524" on="0"/>
        <pt x="843" y="442" on="0"/>
        <pt x="853" y="367" on="0"/>
        <pt x="853" y="339" on="1"/>
        <pt x="853" y="266" on="0"/>
        <pt x="802" y="138" on="0"/>
        <pt x="703" y="43" on="0"/>
        <pt x="556" y="-12" on="0"/>
        <pt x="459" y="-12" on="1"/>
        <pt x="431" y="-12" on="0"/>
        <pt x="325" y="-1" on="0"/>
        <pt x="259" y="27" on="1"/>
        <pt x="196" y="-61" on="1"/>
        <pt x="161" y="-36" on="1"/>
        <pt x="221" y="48" on="1"/>
        <pt x="179" y="74" on="0"/>
        <pt x="120" y="142" on="0"/>
        <pt x="83" y="219" on="0"/>
        <pt x="66" y="300" on="0"/>
        <pt x="66" y="339" on="1"/>
        <pt x="66" y="413" on="0"/>
        <pt x="116" y="544" on="0"/>
        <pt x="215" y="641" on="0"/>
        <pt x="363" y="698" on="0"/>
        <pt x="460" y="698" on="1"/>
        <pt x="495" y="698" on="0"/>
        <pt x="599" y="684" on="0"/>
        <pt x="659" y="658" on="1"/>
        <pt x="723" y="747" on="1"/>
        <pt x="758" y="722" on="1"/>
      </contour>
      <contour>
        <pt x="622" y="607" on="1"/>
        <pt x="600" y="624" on="0"/>
        <pt x="519" y="658" on="0"/>
        <pt x="459" y="658" on="1"/>
        <pt x="434" y="658" on="0"/>
        <pt x="379" y="649" on="0"/>
        <pt x="327" y="628" on="0"/>
        <pt x="279" y="594" on="0"/>
        <pt x="261" y="569" on="1"/>
        <pt x="243" y="544" on="0"/>
        <pt x="223" y="488" on="0"/>
        <pt x="213" y="428" on="0"/>
        <pt x="211" y="368" on="0"/>
        <pt x="211" y="340" on="1"/>
        <pt x="211" y="272" on="0"/>
        <pt x="228" y="157" on="0"/>
        <pt x="265" y="109" on="1"/>
      </contour>
      <contour>
        <pt x="296" y="78" on="1"/>
        <pt x="305" y="71" on="0"/>
        <pt x="334" y="54" on="0"/>
        <pt x="375" y="39" on="0"/>
        <pt x="427" y="28" on="0"/>
        <pt x="460" y="28" on="1"/>
        <pt x="490" y="28" on="0"/>
        <pt x="551" y="40" on="0"/>
        <pt x="606" y="65" on="0"/>
        <pt x="653" y="104" on="0"/>
        <pt x="669" y="131" on="1"/>
        <pt x="697" y="179" on="0"/>
        <pt x="708" y="286" on="0"/>
        <pt x="708" y="340" on="1"/>
        <pt x="708" y="371" on="0"/>
        <pt x="705" y="436" on="0"/>
        <pt x="699" y="466" on="1"/>
        <pt x="694" y="495" on="0"/>
        <pt x="678" y="535" on="0"/>
        <pt x="664" y="561" on="0"/>
        <pt x="653" y="573" on="0"/>
        <pt x="653" y="573" on="1"/>
        <pt x="650" y="573" on="0"/>
        <pt x="645" y="565" on="1"/>
      </contour>
    </TTGlyph>
    <TTGlyph name="P" xMin="42" yMin="0" xMax="741" yMax="686">
      <contour>
        <pt x="295" y="49" on="1"/>
        <pt x="403" y="49" on="1"/>
        <pt x="403" y="0" on="1"/>
        <pt x="390" y="1" on="0"/>
        <pt x="342" y="2" on="0"/>
        <pt x="288" y="3" on="0"/>
        <pt x="237" y="3" on="0"/>
        <pt x="222" y="3" on="1"/>
        <pt x="207" y="3" on="0"/>
        <pt x="156" y="3" on="0"/>
        <pt x="103" y="2" on="0"/>
        <pt x="55" y="1" on="0"/>
        <pt x="42" y="0" on="1"/>
        <pt x="42" y="49" on="1"/>
        <pt x="150" y="49" on="1"/>
        <pt x="150" y="637" on="1"/>
        <pt x="42" y="637" on="1"/>
        <pt x="42" y="686" on="1"/>
        <pt x="469" y="686" on="1"/>
        <pt x="533" y="686" on="0"/>
        <pt x="634" y="656" on="0"/>
        <pt x="704" y="603" on="0"/>
        <pt x="741" y="531" on="0"/>
        <pt x="741" y="490" on="1"/>
        <pt x="741" y="446" on="0"/>
        <pt x="699" y="375" on="0"/>
        <pt x="628" y="326" on="0"/>
        <pt x="533" y="299" on="0"/>
        <pt x="479" y="299" on="1"/>
        <pt x="295" y="299" on="1"/>
      </contour>
      <contour>
        <pt x="289" y="637" on="1"/>
        <pt x="289" y="343" on="1"/>
        <pt x="430" y="343" on="1"/>
        <pt x="488" y="343" on="0"/>
        <pt x="550" y="369" on="0"/>
        <pt x="579" y="411" on="0"/>
        <pt x="584" y="464" on="0"/>
        <pt x="584" y="490" on="1"/>
        <pt x="584" y="517" on="0"/>
        <pt x="579" y="569" on="0"/>
        <pt x="551" y="611" on="0"/>
        <pt x="488" y="637" on="0"/>
        <pt x="431" y="637" on="1"/>
      </contour>
    </TTGlyph>
    <TTGlyph name="Phi" xMin="66" yMin="0" xMax="788" yMax="686">
      <contour>
        <pt x="488" y="637" on="1"/>
        <pt x="488" y="532" on="1"/>
        <pt x="567" y="527" on="0"/>
        <pt x="680" y="491" on="0"/>
        <pt x="753" y="439" on="0"/>
        <pt x="788" y="375" on="0"/>
        <pt x="788" y="343" on="1"/>
        <pt x="788" y="311" on="0"/>
        <pt x="753" y="247" on="0"/>
        <pt x="680" y="195" on="0"/>
        <pt x="567" y="159" on="0"/>
        <pt x="488" y="154" on="1"/>
        <pt x="488" y="49" on="1"/>
        <pt x="623" y="49" on="1"/>
        <pt x="623" y="0" on="1"/>
        <pt x="609" y="1" on="0"/>
        <pt x="555" y="2" on="0"/>
        <pt x="495" y="3" on="0"/>
        <pt x="438" y="3" on="0"/>
        <pt x="421" y="3" on="1"/>
        <pt x="404" y="3" on="0"/>
        <pt x="348" y="3" on="0"/>
        <pt x="288" y="2" on="0"/>
        <pt x="234" y="1" on="0"/>
        <pt x="220" y="0" on="1"/>
        <pt x="220" y="49" on="1"/>
        <pt x="355" y="49" on="1"/>
        <pt x="355" y="155" on="1"/>
        <pt x="295" y="158" on="0"/>
        <pt x="189" y="188" on="0"/>
        <pt x="111" y="237" on="0"/>
        <pt x="66" y="303" on="0"/>
        <pt x="66" y="343" on="1"/>
        <pt x="66" y="382" on="0"/>
        <pt x="111" y="448" on="0"/>
        <pt x="189" y="498" on="0"/>
        <pt x="294" y="528" on="0"/>
        <pt x="355" y="531" on="1"/>
        <pt x="355" y="637" on="1"/>
        <pt x="220" y="637" on="1"/>
        <pt x="220" y="686" on="1"/>
        <pt x="234" y="685" on="0"/>
        <pt x="288" y="684" on="0"/>
        <pt x="348" y="683" on="0"/>
        <pt x="405" y="683" on="0"/>
        <pt x="422" y="683" on="1"/>
        <pt x="439" y="683" on="0"/>
        <pt x="495" y="683" on="0"/>
        <pt x="555" y="684" on="0"/>
        <pt x="609" y="685" on="0"/>
        <pt x="623" y="686" on="1"/>
        <pt x="623" y="637" on="1"/>
      </contour>
      <contour>
        <pt x="355" y="490" on="1"/>
        <pt x="309" y="484" on="0"/>
        <pt x="254" y="455" on="0"/>
        <pt x="226" y="414" on="0"/>
        <pt x="217" y="367" on="0"/>
        <pt x="217" y="343" on="1"/>
        <pt x="217" y="319" on="0"/>
        <pt x="226" y="272" on="0"/>
        <pt x="254" y="231" on="0"/>
        <pt x="309" y="202" on="0"/>
        <pt x="355" y="196" on="1"/>
      </contour>
      <contour>
        <pt x="488" y="194" on="1"/>
        <pt x="540" y="199" on="0"/>
        <pt x="599" y="231" on="0"/>
        <pt x="629" y="273" on="0"/>
        <pt x="637" y="321" on="0"/>
        <pt x="637" y="343" on="1"/>
        <pt x="637" y="365" on="0"/>
        <pt x="630" y="413" on="0"/>
        <pt x="600" y="455" on="0"/>
        <pt x="540" y="487" on="0"/>
        <pt x="488" y="492" on="1"/>
      </contour>
    </TTGlyph>
    <TTGlyph name="Pi" xMin="42" yMin="0" xMax="881" yMax="680">
      <contour>
        <pt x="773" y="49" on="1"/>
        <pt x="881" y="49" on="1"/>
        <pt x="881" y="0" on="1"/>
        <pt x="868" y="1" on="0"/>
        <pt x="820" y="2" on="0"/>
        <pt x="766" y="3" on="0"/>
        <pt x="715" y="3" on="0"/>
        <pt x="700" y="3" on="1"/>
        <pt x="685" y="3" on="0"/>
        <pt x="634" y="3" on="0"/>
        <pt x="581" y="2" on="0"/>
        <pt x="533" y="1" on="0"/>
        <pt x="520" y="0" on="1"/>
        <pt x="520" y="49" on="1"/>
        <pt x="628" y="49" on="1"/>
        <pt x="628" y="631" on="1"/>
        <pt x="295" y="631" on="1"/>
        <pt x="295" y="49" on="1"/>
        <pt x="403" y="49" on="1"/>
        <pt x="403" y="0" on="1"/>
        <pt x="390" y="1" on="0"/>
        <pt x="342" y="2" on="0"/>
        <pt x="288" y="3" on="0"/>
        <pt x="237" y="3" on="0"/>
        <pt x="222" y="3" on="1"/>
        <pt x="207" y="3" on="0"/>
        <pt x="156" y="3" on="0"/>
        <pt x="103" y="2" on="0"/>
        <pt x="55" y="1" on="0"/>
        <pt x="42" y="0" on="1"/>
        <pt x="42" y="49" on="1"/>
        <pt x="150" y="49" on="1"/>
        <pt x="150" y="631" on="1"/>
        <pt x="42" y="631" on="1"/>
        <pt x="42" y="680" on="1"/>
        <pt x="881" y="680" on="1"/>
        <pt x="881" y="631" on="1"/>
        <pt x="773" y="631" on="1"/>
      </contour>
    </TTGlyph>
    <TTGlyph name="Psi" xMin="66" yMin="0" xMax="853" yMax="686">
      <contour>
        <pt x="520" y="199" on="1"/>
        <pt x="590" y="216" on="0"/>
        <pt x="654" y="321" on="0"/>
        <pt x="655" y="402" on="1"/>
        <pt x="656" y="477" on="0"/>
        <pt x="699" y="547" on="0"/>
        <pt x="749" y="547" on="1"/>
        <pt x="820" y="547" on="1"/>
        <pt x="831" y="547" on="0"/>
        <pt x="853" y="542" on="0"/>
        <pt x="853" y="527" on="1"/>
        <pt x="853" y="517" on="0"/>
        <pt x="841" y="508" on="0"/>
        <pt x="837" y="507" on="1"/>
        <pt x="824" y="505" on="0"/>
        <pt x="807" y="498" on="0"/>
        <pt x="798" y="478" on="1"/>
        <pt x="791" y="461" on="0"/>
        <pt x="788" y="418" on="0"/>
        <pt x="788" y="398" on="1"/>
        <pt x="788" y="389" on="0"/>
        <pt x="783" y="350" on="0"/>
        <pt x="767" y="301" on="0"/>
        <pt x="739" y="249" on="0"/>
        <pt x="715" y="228" on="1"/>
        <pt x="674" y="192" on="0"/>
        <pt x="574" y="159" on="0"/>
        <pt x="520" y="155" on="1"/>
        <pt x="520" y="49" on="1"/>
        <pt x="655" y="49" on="1"/>
        <pt x="655" y="0" on="1"/>
        <pt x="641" y="1" on="0"/>
        <pt x="587" y="2" on="0"/>
        <pt x="527" y="3" on="0"/>
        <pt x="470" y="3" on="0"/>
        <pt x="453" y="3" on="1"/>
        <pt x="436" y="3" on="0"/>
        <pt x="380" y="3" on="0"/>
        <pt x="320" y="2" on="0"/>
        <pt x="266" y="1" on="0"/>
        <pt x="252" y="0" on="1"/>
        <pt x="252" y="49" on="1"/>
        <pt x="387" y="49" on="1"/>
        <pt x="387" y="155" on="1"/>
        <pt x="308" y="163" on="0"/>
        <pt x="209" y="214" on="0"/>
        <pt x="153" y="288" on="0"/>
        <pt x="132" y="377" on="0"/>
        <pt x="131" y="422" on="1"/>
        <pt x="131" y="424" on="0"/>
        <pt x="129" y="450" on="0"/>
        <pt x="121" y="480" on="0"/>
        <pt x="103" y="505" on="0"/>
        <pt x="87" y="507" on="1"/>
        <pt x="84" y="507" on="0"/>
        <pt x="66" y="513" on="0"/>
        <pt x="66" y="527" on="1"/>
        <pt x="66" y="542" on="0"/>
        <pt x="89" y="547" on="0"/>
        <pt x="100" y="547" on="1"/>
        <pt x="170" y="547" on="1"/>
        <pt x="197" y="547" on="0"/>
        <pt x="233" y="525" on="0"/>
        <pt x="255" y="488" on="0"/>
        <pt x="264" y="441" on="0"/>
        <pt x="264" y="416" on="1"/>
        <pt x="264" y="393" on="0"/>
        <pt x="269" y="329" on="0"/>
        <pt x="293" y="266" on="0"/>
        <pt x="342" y="213" on="0"/>
        <pt x="387" y="201" on="1"/>
        <pt x="387" y="637" on="1"/>
        <pt x="252" y="637" on="1"/>
        <pt x="252" y="686" on="1"/>
        <pt x="266" y="685" on="0"/>
        <pt x="320" y="684" on="0"/>
        <pt x="380" y="683" on="0"/>
        <pt x="437" y="683" on="0"/>
        <pt x="454" y="683" on="1"/>
        <pt x="471" y="683" on="0"/>
        <pt x="527" y="683" on="0"/>
        <pt x="587" y="684" on="0"/>
        <pt x="641" y="685" on="0"/>
        <pt x="655" y="686" on="1"/>
        <pt x="655" y="637" on="1"/>
        <pt x="520" y="637" on="1"/>
      </contour>
    </TTGlyph>
    <TTGlyph name="Q" xMin="66" yMin="-194" xMax="829" yMax="698">
      <contour>
        <pt x="612" y="17" on="1"/>
        <pt x="627" y="-2" on="0"/>
        <pt x="651" y="-24" on="0"/>
        <pt x="672" y="-34" on="0"/>
        <pt x="692" y="-37" on="0"/>
        <pt x="704" y="-37" on="1"/>
        <pt x="714" y="-37" on="0"/>
        <pt x="742" y="-35" on="0"/>
        <pt x="768" y="-28" on="0"/>
        <pt x="788" y="-13" on="0"/>
        <pt x="789" y="-1" on="1"/>
        <pt x="790" y="3" on="0"/>
        <pt x="796" y="20" on="0"/>
        <pt x="809" y="20" on="1"/>
        <pt x="824" y="20" on="0"/>
        <pt x="829" y="-2" on="0"/>
        <pt x="829" y="-7" on="1"/>
        <pt x="829" y="-34" on="0"/>
        <pt x="813" y="-100" on="0"/>
        <pt x="779" y="-156" on="0"/>
        <pt x="725" y="-194" on="0"/>
        <pt x="687" y="-194" on="1"/>
        <pt x="651" y="-194" on="0"/>
        <pt x="605" y="-166" on="0"/>
        <pt x="574" y="-115" on="0"/>
        <pt x="552" y="-45" on="0"/>
        <pt x="541" y="-3" on="1"/>
        <pt x="506" y="-10" on="0"/>
        <pt x="453" y="-12" on="0"/>
        <pt x="444" y="-12" on="1"/>
        <pt x="354" y="-12" on="0"/>
        <pt x="214" y="41" on="0"/>
        <pt x="117" y="135" on="0"/>
        <pt x="66" y="263" on="0"/>
        <pt x="66" y="339" on="1"/>
        <pt x="66" y="417" on="0"/>
        <pt x="117" y="549" on="0"/>
        <pt x="214" y="644" on="0"/>
        <pt x="355" y="698" on="0"/>
        <pt x="444" y="698" on="1"/>
        <pt x="533" y="698" on="0"/>
        <pt x="673" y="645" on="0"/>
        <pt x="771" y="549" on="0"/>
        <pt x="822" y="417" on="0"/>
        <pt x="822" y="339" on="1"/>
        <pt x="822" y="288" on="0"/>
        <pt x="797" y="191" on="0"/>
        <pt x="746" y="106" on="0"/>
        <pt x="666" y="38" on="0"/>
      </contour>
      <contour>
        <pt x="344" y="54" on="1"/>
        <pt x="343" y="58" on="0"/>
        <pt x="342" y="65" on="0"/>
        <pt x="342" y="73" on="1"/>
        <pt x="342" y="93" on="0"/>
        <pt x="360" y="124" on="0"/>
        <pt x="388" y="146" on="0"/>
        <pt x="425" y="157" on="0"/>
        <pt x="444" y="157" on="1"/>
        <pt x="470" y="157" on="0"/>
        <pt x="510" y="139" on="0"/>
        <pt x="542" y="112" on="0"/>
        <pt x="565" y="82" on="0"/>
        <pt x="573" y="71" on="1"/>
        <pt x="610" y="96" on="0"/>
        <pt x="650" y="171" on="0"/>
        <pt x="668" y="250" on="0"/>
        <pt x="671" y="320" on="0"/>
        <pt x="671" y="340" on="1"/>
        <pt x="671" y="406" on="0"/>
        <pt x="651" y="517" on="0"/>
        <pt x="621" y="563" on="1"/>
        <pt x="592" y="609" on="0"/>
        <pt x="496" y="655" on="0"/>
        <pt x="444" y="655" on="1"/>
        <pt x="390" y="655" on="0"/>
        <pt x="304" y="611" on="0"/>
        <pt x="278" y="578" on="1"/>
        <pt x="242" y="530" on="0"/>
        <pt x="217" y="415" on="0"/>
        <pt x="217" y="340" on="1"/>
        <pt x="217" y="307" on="0"/>
        <pt x="223" y="225" on="0"/>
        <pt x="249" y="146" on="0"/>
        <pt x="299" y="76" on="0"/>
      </contour>
      <contour>
        <pt x="526" y="46" on="1"/>
        <pt x="518" y="69" on="0"/>
        <pt x="497" y="97" on="0"/>
        <pt x="476" y="112" on="0"/>
        <pt x="454" y="117" on="0"/>
        <pt x="444" y="117" on="1"/>
        <pt x="421" y="117" on="0"/>
        <pt x="382" y="94" on="0"/>
        <pt x="382" y="73" on="1"/>
        <pt x="382" y="69" on="0"/>
        <pt x="387" y="54" on="0"/>
        <pt x="400" y="41" on="0"/>
        <pt x="425" y="31" on="0"/>
        <pt x="444" y="31" on="1"/>
        <pt x="453" y="31" on="0"/>
        <pt x="496" y="35" on="0"/>
      </contour>
    </TTGlyph>
    <TTGlyph name="R" xMin="42" yMin="-12" xMax="883" yMax="686">
      <contour>
        <pt x="571" y="339" on="1"/>
        <pt x="608" y="325" on="0"/>
        <pt x="651" y="291" on="0"/>
        <pt x="674" y="250" on="0"/>
        <pt x="684" y="202" on="0"/>
        <pt x="688" y="174" on="1"/>
        <pt x="693" y="142" on="0"/>
        <pt x="702" y="88" on="0"/>
        <pt x="718" y="49" on="0"/>
        <pt x="746" y="28" on="0"/>
        <pt x="768" y="28" on="1"/>
        <pt x="789" y="28" on="0"/>
        <pt x="828" y="60" on="0"/>
        <pt x="832" y="97" on="1"/>
        <pt x="833" y="105" on="0"/>
        <pt x="840" y="121" on="0"/>
        <pt x="857" y="121" on="1"/>
        <pt x="865" y="121" on="0"/>
        <pt x="883" y="114" on="0"/>
        <pt x="883" y="97" on="1"/>
        <pt x="883" y="89" on="0"/>
        <pt x="874" y="53" on="0"/>
        <pt x="848" y="16" on="0"/>
        <pt x="799" y="-12" on="0"/>
        <pt x="759" y="-12" on="1"/>
        <pt x="717" y="-12" on="0"/>
        <pt x="630" y="1" on="0"/>
        <pt x="597" y="20" on="1"/>
        <pt x="575" y="33" on="0"/>
        <pt x="550" y="64" on="0"/>
        <pt x="539" y="100" on="0"/>
        <pt x="537" y="141" on="0"/>
        <pt x="537" y="165" on="1"/>
        <pt x="537" y="190" on="0"/>
        <pt x="536" y="226" on="0"/>
        <pt x="531" y="253" on="0"/>
        <pt x="520" y="274" on="0"/>
        <pt x="509" y="284" on="1"/>
        <pt x="487" y="307" on="0"/>
        <pt x="443" y="323" on="0"/>
        <pt x="412" y="323" on="1"/>
        <pt x="289" y="323" on="1"/>
        <pt x="289" y="49" on="1"/>
        <pt x="397" y="49" on="1"/>
        <pt x="397" y="0" on="1"/>
        <pt x="384" y="1" on="0"/>
        <pt x="336" y="2" on="0"/>
        <pt x="284" y="3" on="0"/>
        <pt x="234" y="3" on="0"/>
        <pt x="219" y="3" on="1"/>
        <pt x="204" y="3" on="0"/>
        <pt x="155" y="3" on="0"/>
        <pt x="103" y="2" on="0"/>
        <pt x="56" y="1" on="0"/>
        <pt x="42" y="0" on="1"/>
        <pt x="42" y="49" on="1"/>
        <pt x="150" y="49" on="1"/>
        <pt x="150" y="637" on="1"/>
        <pt x="42" y="637" on="1"/>
        <pt x="42" y="686" on="1"/>
        <pt x="431" y="686" on="1"/>
        <pt x="502" y="686" on="0"/>
        <pt x="616" y="657" on="0"/>
        <pt x="695" y="607" on="0"/>
        <pt x="738" y="539" on="0"/>
        <pt x="738" y="500" on="1"/>
        <pt x="738" y="469" on="0"/>
        <pt x="710" y="417" on="0"/>
        <pt x="663" y="377" on="0"/>
        <pt x="603" y="348" on="0"/>
      </contour>
      <contour>
        <pt x="413" y="363" on="1"/>
        <pt x="475" y="363" on="0"/>
        <pt x="543" y="390" on="0"/>
        <pt x="575" y="430" on="0"/>
        <pt x="581" y="479" on="0"/>
        <pt x="581" y="500" on="1"/>
        <pt x="581" y="523" on="0"/>
        <pt x="575" y="571" on="0"/>
        <pt x="543" y="611" on="0"/>
        <pt x="476" y="637" on="0"/>
        <pt x="415" y="637" on="1"/>
        <pt x="289" y="637" on="1"/>
        <pt x="289" y="363" on="1"/>
      </contour>
    </TTGlyph>
    <TTGlyph name="S" xMin="66" yMin="-12" xMax="590" yMax="698">
      <contour>
        <pt x="414" y="414" on="1"/>
        <pt x="450" y="407" on="0"/>
        <pt x="514" y="369" on="0"/>
        <pt x="562" y="314" on="0"/>
        <pt x="590" y="244" on="0"/>
        <pt x="590" y="203" on="1"/>
        <pt x="590" y="164" on="0"/>
        <pt x="565" y="88" on="0"/>
        <pt x="509" y="26" on="0"/>
        <pt x="420" y="-12" on="0"/>
        <pt x="357" y="-12" on="1"/>
        <pt x="336" y="-12" on="0"/>
        <pt x="284" y="-8" on="0"/>
        <pt x="229" y="5" on="0"/>
        <pt x="175" y="26" on="0"/>
        <pt x="152" y="42" on="1"/>
        <pt x="138" y="30" on="0"/>
        <pt x="110" y="0" on="0"/>
        <pt x="105" y="-3" on="1"/>
        <pt x="98" y="-10" on="0"/>
        <pt x="92" y="-12" on="0"/>
        <pt x="86" y="-12" on="1"/>
        <pt x="71" y="-12" on="0"/>
        <pt x="66" y="3" on="0"/>
        <pt x="66" y="17" on="1"/>
        <pt x="66" y="198" on="1"/>
        <pt x="66" y="216" on="0"/>
        <pt x="72" y="228" on="0"/>
        <pt x="92" y="228" on="1"/>
        <pt x="110" y="228" on="0"/>
        <pt x="116" y="218" on="0"/>
        <pt x="117" y="204" on="1"/>
        <pt x="119" y="165" on="0"/>
        <pt x="148" y="110" on="0"/>
        <pt x="191" y="73" on="0"/>
        <pt x="243" y="51" on="0"/>
        <pt x="295" y="40" on="0"/>
        <pt x="341" y="37" on="0"/>
        <pt x="356" y="37" on="1"/>
        <pt x="404" y="37" on="0"/>
        <pt x="459" y="68" on="0"/>
        <pt x="485" y="107" on="0"/>
        <pt x="491" y="146" on="0"/>
        <pt x="491" y="153" on="1"/>
        <pt x="491" y="170" on="0"/>
        <pt x="483" y="196" on="0"/>
        <pt x="473" y="215" on="0"/>
        <pt x="464" y="225" on="0"/>
        <pt x="464" y="226" on="1"/>
        <pt x="452" y="239" on="0"/>
        <pt x="431" y="254" on="0"/>
        <pt x="407" y="264" on="0"/>
        <pt x="377" y="271" on="0"/>
        <pt x="355" y="275" on="1"/>
        <pt x="344" y="278" on="0"/>
        <pt x="320" y="283" on="0"/>
        <pt x="308" y="285" on="1"/>
        <pt x="269" y="293" on="0"/>
        <pt x="215" y="306" on="0"/>
        <pt x="173" y="323" on="0"/>
        <pt x="137" y="348" on="0"/>
        <pt x="116" y="369" on="1"/>
        <pt x="113" y="373" on="0"/>
        <pt x="96" y="393" on="0"/>
        <pt x="79" y="426" on="0"/>
        <pt x="66" y="470" on="0"/>
        <pt x="66" y="497" on="1"/>
        <pt x="66" y="535" on="0"/>
        <pt x="93" y="607" on="0"/>
        <pt x="149" y="663" on="0"/>
        <pt x="236" y="698" on="0"/>
        <pt x="296" y="698" on="1"/>
        <pt x="337" y="698" on="0"/>
        <pt x="429" y="676" on="0"/>
        <pt x="471" y="643" on="1"/>
        <pt x="515" y="686" on="1"/>
        <pt x="524" y="694" on="0"/>
        <pt x="530" y="698" on="0"/>
        <pt x="537" y="698" on="1"/>
        <pt x="552" y="698" on="0"/>
        <pt x="557" y="683" on="0"/>
        <pt x="557" y="669" on="1"/>
        <pt x="557" y="487" on="1"/>
        <pt x="557" y="469" on="0"/>
        <pt x="550" y="458" on="0"/>
        <pt x="531" y="458" on="1"/>
        <pt x="514" y="458" on="0"/>
        <pt x="507" y="467" on="0"/>
        <pt x="505" y="479" on="1"/>
        <pt x="501" y="504" on="0"/>
        <pt x="479" y="564" on="0"/>
        <pt x="433" y="617" on="0"/>
        <pt x="356" y="653" on="0"/>
        <pt x="297" y="653" on="1"/>
        <pt x="259" y="653" on="0"/>
        <pt x="208" y="633" on="0"/>
        <pt x="178" y="603" on="0"/>
        <pt x="165" y="566" on="0"/>
        <pt x="165" y="548" on="1"/>
        <pt x="165" y="543" on="0"/>
        <pt x="169" y="515" on="0"/>
        <pt x="189" y="484" on="0"/>
        <pt x="231" y="453" on="0"/>
        <pt x="269" y="445" on="1"/>
      </contour>
    </TTGlyph>
    <TTGlyph name="Sigma" xMin="66" yMin="0" xMax="788" yMax="686">
      <contour>
        <pt x="201" y="68" on="1"/>
        <pt x="472" y="68" on="1"/>
        <pt x="524" y="68" on="0"/>
        <pt x="614" y="79" on="0"/>
        <pt x="683" y="119" on="0"/>
        <pt x="729" y="196" on="0"/>
        <pt x="737" y="262" on="1"/>
        <pt x="788" y="262" on="1"/>
        <pt x="757" y="0" on="1"/>
        <pt x="100" y="0" on="1"/>
        <pt x="89" y="0" on="0"/>
        <pt x="66" y="5" on="0"/>
        <pt x="66" y="20" on="1"/>
        <pt x="66" y="27" on="0"/>
        <pt x="73" y="35" on="0"/>
        <pt x="80" y="41" on="1"/>
        <pt x="366" y="291" on="1"/>
        <pt x="76" y="638" on="1"/>
        <pt x="69" y="646" on="0"/>
        <pt x="66" y="653" on="0"/>
        <pt x="66" y="661" on="1"/>
        <pt x="66" y="680" on="0"/>
        <pt x="86" y="686" on="0"/>
        <pt x="100" y="686" on="1"/>
        <pt x="757" y="686" on="1"/>
        <pt x="788" y="443" on="1"/>
        <pt x="737" y="443" on="1"/>
        <pt x="728" y="505" on="0"/>
        <pt x="687" y="581" on="0"/>
        <pt x="622" y="623" on="0"/>
        <pt x="532" y="637" on="0"/>
        <pt x="473" y="637" on="1"/>
        <pt x="266" y="637" on="1"/>
        <pt x="495" y="363" on="1"/>
        <pt x="500" y="357" on="0"/>
        <pt x="505" y="349" on="0"/>
        <pt x="505" y="343" on="1"/>
        <pt x="505" y="341" on="0"/>
        <pt x="502" y="330" on="0"/>
        <pt x="493" y="322" on="1"/>
      </contour>
    </TTGlyph>
    <TTGlyph name="T" xMin="43" yMin="0" xMax="779" yMax="674">
      <contour>
        <pt x="779" y="431" on="1"/>
        <pt x="728" y="431" on="1"/>
        <pt x="724" y="472" on="0"/>
        <pt x="713" y="543" on="0"/>
        <pt x="681" y="595" on="0"/>
        <pt x="618" y="625" on="0"/>
        <pt x="563" y="625" on="1"/>
        <pt x="484" y="625" on="1"/>
        <pt x="484" y="49" on="1"/>
        <pt x="637" y="49" on="1"/>
        <pt x="637" y="0" on="1"/>
        <pt x="621" y="1" on="0"/>
        <pt x="561" y="2" on="0"/>
        <pt x="494" y="3" on="0"/>
        <pt x="432" y="3" on="0"/>
        <pt x="412" y="3" on="1"/>
        <pt x="393" y="3" on="0"/>
        <pt x="329" y="3" on="0"/>
        <pt x="263" y="2" on="0"/>
        <pt x="203" y="1" on="0"/>
        <pt x="186" y="0" on="1"/>
        <pt x="186" y="49" on="1"/>
        <pt x="339" y="49" on="1"/>
        <pt x="339" y="625" on="1"/>
        <pt x="260" y="625" on="1"/>
        <pt x="205" y="625" on="0"/>
        <pt x="142" y="596" on="0"/>
        <pt x="109" y="544" on="0"/>
        <pt x="98" y="473" on="0"/>
        <pt x="94" y="431" on="1"/>
        <pt x="43" y="431" on="1"/>
        <pt x="65" y="674" on="1"/>
        <pt x="757" y="674" on="1"/>
      </contour>
    </TTGlyph>
    <TTGlyph name="Theta" xMin="66" yMin="-12" xMax="853" yMax="698">
      <contour>
        <pt x="853" y="339" on="1"/>
        <pt x="853" y="266" on="0"/>
        <pt x="802" y="138" on="0"/>
        <pt x="703" y="43" on="0"/>
        <pt x="556" y="-12" on="0"/>
        <pt x="459" y="-12" on="1"/>
        <pt x="364" y="-12" on="0"/>
        <pt x="218" y="42" on="0"/>
        <pt x="118" y="137" on="0"/>
        <pt x="66" y="265" on="0"/>
        <pt x="66" y="339" on="1"/>
        <pt x="66" y="413" on="0"/>
        <pt x="116" y="544" on="0"/>
        <pt x="215" y="641" on="0"/>
        <pt x="363" y="698" on="0"/>
        <pt x="460" y="698" on="1"/>
        <pt x="555" y="698" on="0"/>
        <pt x="701" y="643" on="0"/>
        <pt x="801" y="546" on="0"/>
        <pt x="853" y="415" on="0"/>
      </contour>
      <contour>
        <pt x="460" y="30" on="1"/>
        <pt x="477" y="30" on="0"/>
        <pt x="521" y="35" on="0"/>
        <pt x="570" y="52" on="0"/>
        <pt x="621" y="82" on="0"/>
        <pt x="643" y="107" on="1"/>
        <pt x="667" y="135" on="0"/>
        <pt x="694" y="203" on="0"/>
        <pt x="706" y="269" on="0"/>
        <pt x="708" y="325" on="0"/>
        <pt x="708" y="340" on="1"/>
        <pt x="708" y="358" on="0"/>
        <pt x="706" y="409" on="0"/>
        <pt x="697" y="466" on="0"/>
        <pt x="678" y="525" on="0"/>
        <pt x="662" y="551" on="1"/>
        <pt x="641" y="584" on="0"/>
        <pt x="590" y="625" on="0"/>
        <pt x="536" y="649" on="0"/>
        <pt x="482" y="658" on="0"/>
        <pt x="459" y="658" on="1"/>
        <pt x="436" y="658" on="0"/>
        <pt x="383" y="649" on="0"/>
        <pt x="330" y="626" on="0"/>
        <pt x="280" y="586" on="0"/>
        <pt x="260" y="556" on="1"/>
        <pt x="244" y="531" on="0"/>
        <pt x="224" y="474" on="0"/>
        <pt x="214" y="417" on="0"/>
        <pt x="211" y="363" on="0"/>
        <pt x="211" y="340" on="1"/>
        <pt x="211" y="260" on="0"/>
        <pt x="240" y="152" on="0"/>
        <pt x="274" y="109" on="1"/>
        <pt x="286" y="94" on="0"/>
        <pt x="322" y="66" on="0"/>
        <pt x="368" y="44" on="0"/>
        <pt x="426" y="30" on="0"/>
      </contour>
      <contour>
        <pt x="641" y="248" on="1"/>
        <pt x="590" y="248" on="1"/>
        <pt x="590" y="282" on="1"/>
        <pt x="329" y="282" on="1"/>
        <pt x="329" y="248" on="1"/>
        <pt x="278" y="248" on="1"/>
        <pt x="278" y="440" on="1"/>
        <pt x="329" y="440" on="1"/>
        <pt x="329" y="406" on="1"/>
        <pt x="590" y="406" on="1"/>
        <pt x="590" y="440" on="1"/>
        <pt x="641" y="440" on="1"/>
      </contour>
    </TTGlyph>
    <TTGlyph name="U" xMin="42" yMin="-12" xMax="866" yMax="686">
      <contour>
        <pt x="758" y="230" on="1"/>
        <pt x="758" y="183" on="0"/>
        <pt x="724" y="95" on="0"/>
        <pt x="654" y="28" on="0"/>
        <pt x="547" y="-12" on="0"/>
        <pt x="473" y="-12" on="1"/>
        <pt x="393" y="-12" on="0"/>
        <pt x="272" y="27" on="0"/>
        <pt x="191" y="93" on="0"/>
        <pt x="150" y="182" on="0"/>
        <pt x="150" y="231" on="1"/>
        <pt x="150" y="637" on="1"/>
        <pt x="42" y="637" on="1"/>
        <pt x="42" y="686" on="1"/>
        <pt x="55" y="685" on="0"/>
        <pt x="103" y="684" on="0"/>
        <pt x="157" y="683" on="0"/>
        <pt x="208" y="683" on="0"/>
        <pt x="223" y="683" on="1"/>
        <pt x="238" y="683" on="0"/>
        <pt x="289" y="683" on="0"/>
        <pt x="342" y="684" on="0"/>
        <pt x="390" y="685" on="0"/>
        <pt x="403" y="686" on="1"/>
        <pt x="403" y="637" on="1"/>
        <pt x="295" y="637" on="1"/>
        <pt x="295" y="224" on="1"/>
        <pt x="295" y="204" on="0"/>
        <pt x="301" y="140" on="0"/>
        <pt x="336" y="80" on="0"/>
        <pt x="410" y="37" on="0"/>
        <pt x="477" y="37" on="1"/>
        <pt x="523" y="37" on="0"/>
        <pt x="604" y="59" on="0"/>
        <pt x="664" y="107" on="0"/>
        <pt x="699" y="181" on="0"/>
        <pt x="699" y="232" on="1"/>
        <pt x="699" y="608" on="1"/>
        <pt x="699" y="625" on="0"/>
        <pt x="691" y="632" on="0"/>
        <pt x="670" y="634" on="1"/>
        <pt x="661" y="635" on="0"/>
        <pt x="650" y="636" on="0"/>
        <pt x="639" y="637" on="0"/>
        <pt x="627" y="637" on="0"/>
        <pt x="617" y="637" on="1"/>
        <pt x="591" y="637" on="1"/>
        <pt x="591" y="686" on="1"/>
        <pt x="616" y="685" on="0"/>
        <pt x="654" y="684" on="0"/>
        <pt x="686" y="683" on="0"/>
        <pt x="714" y="683" on="0"/>
        <pt x="729" y="683" on="1"/>
        <pt x="746" y="683" on="0"/>
        <pt x="776" y="683" on="0"/>
        <pt x="807" y="684" on="0"/>
        <pt x="843" y="685" on="0"/>
        <pt x="866" y="686" on="1"/>
        <pt x="866" y="637" on="1"/>
        <pt x="840" y="637" on="1"/>
        <pt x="830" y="637" on="0"/>
        <pt x="818" y="637" on="0"/>
        <pt x="807" y="636" on="0"/>
        <pt x="796" y="635" on="0"/>
        <pt x="787" y="634" on="1"/>
        <pt x="766" y="632" on="0"/>
        <pt x="758" y="625" on="0"/>
        <pt x="758" y="608" on="1"/>
      </contour>
    </TTGlyph>
    <TTGlyph name="Upsilon" xMin="66" yMin="0" xMax="853" yMax="698">
      <contour>
        <pt x="532" y="49" on="1"/>
        <pt x="667" y="49" on="1"/>
        <pt x="667" y="0" on="1"/>
        <pt x="652" y="1" on="0"/>
        <pt x="596" y="2" on="0"/>
        <pt x="535" y="3" on="0"/>
        <pt x="477" y="3" on="0"/>
        <pt x="459" y="3" on="1"/>
        <pt x="441" y="3" on="0"/>
        <pt x="383" y="3" on="0"/>
        <pt x="322" y="2" on="0"/>
        <pt x="267" y="1" on="0"/>
        <pt x="252" y="0" on="1"/>
        <pt x="252" y="49" on="1"/>
        <pt x="387" y="49" on="1"/>
        <pt x="387" y="345" on="1"/>
        <pt x="387" y="381" on="0"/>
        <pt x="370" y="462" on="0"/>
        <pt x="352" y="496" on="1"/>
        <pt x="335" y="528" on="0"/>
        <pt x="296" y="562" on="0"/>
        <pt x="258" y="577" on="0"/>
        <pt x="224" y="580" on="0"/>
        <pt x="212" y="580" on="1"/>
        <pt x="176" y="580" on="0"/>
        <pt x="129" y="570" on="0"/>
        <pt x="125" y="552" on="1"/>
        <pt x="123" y="540" on="0"/>
        <pt x="115" y="529" on="0"/>
        <pt x="96" y="529" on="1"/>
        <pt x="85" y="529" on="0"/>
        <pt x="66" y="535" on="0"/>
        <pt x="66" y="553" on="1"/>
        <pt x="66" y="579" on="0"/>
        <pt x="88" y="630" on="0"/>
        <pt x="130" y="672" on="0"/>
        <pt x="189" y="698" on="0"/>
        <pt x="226" y="698" on="1"/>
        <pt x="278" y="698" on="0"/>
        <pt x="357" y="654" on="0"/>
        <pt x="414" y="587" on="0"/>
        <pt x="450" y="506" on="0"/>
        <pt x="459" y="469" on="1"/>
        <pt x="460" y="469" on="1"/>
        <pt x="467" y="503" on="0"/>
        <pt x="502" y="583" on="0"/>
        <pt x="559" y="652" on="0"/>
        <pt x="640" y="698" on="0"/>
        <pt x="693" y="698" on="1"/>
        <pt x="730" y="698" on="0"/>
        <pt x="789" y="672" on="0"/>
        <pt x="831" y="630" on="0"/>
        <pt x="853" y="579" on="0"/>
        <pt x="853" y="553" on="1"/>
        <pt x="853" y="535" on="0"/>
        <pt x="834" y="529" on="0"/>
        <pt x="823" y="529" on="1"/>
        <pt x="814" y="529" on="0"/>
        <pt x="796" y="533" on="0"/>
        <pt x="794" y="547" on="1"/>
        <pt x="793" y="553" on="0"/>
        <pt x="789" y="565" on="0"/>
        <pt x="772" y="574" on="0"/>
        <pt x="738" y="580" on="0"/>
        <pt x="707" y="580" on="1"/>
        <pt x="695" y="580" on="0"/>
        <pt x="663" y="578" on="0"/>
        <pt x="628" y="564" on="0"/>
        <pt x="592" y="536" on="0"/>
        <pt x="575" y="509" on="1"/>
        <pt x="562" y="488" on="0"/>
        <pt x="545" y="442" on="0"/>
        <pt x="535" y="398" on="0"/>
        <pt x="532" y="359" on="0"/>
        <pt x="532" y="345" on="1"/>
      </contour>
    </TTGlyph>
    <TTGlyph name="V" xMin="28" yMin="-9" xMax="864" yMax="686">
      <contour>
        <pt x="491" y="18" on="1"/>
        <pt x="482" y="-2" on="0"/>
        <pt x="460" y="-9" on="0"/>
        <pt x="446" y="-9" on="1"/>
        <pt x="432" y="-9" on="0"/>
        <pt x="410" y="-2" on="0"/>
        <pt x="401" y="18" on="1"/>
        <pt x="120" y="637" on="1"/>
        <pt x="28" y="637" on="1"/>
        <pt x="28" y="686" on="1"/>
        <pt x="43" y="685" on="0"/>
        <pt x="85" y="684" on="0"/>
        <pt x="130" y="683" on="0"/>
        <pt x="173" y="683" on="0"/>
        <pt x="189" y="683" on="1"/>
        <pt x="204" y="683" on="0"/>
        <pt x="253" y="683" on="0"/>
        <pt x="305" y="684" on="0"/>
        <pt x="352" y="685" on="0"/>
        <pt x="365" y="686" on="1"/>
        <pt x="365" y="637" on="1"/>
        <pt x="273" y="637" on="1"/>
        <pt x="490" y="159" on="1"/>
        <pt x="702" y="626" on="1"/>
        <pt x="682" y="634" on="0"/>
        <pt x="635" y="637" on="0"/>
        <pt x="615" y="637" on="1"/>
        <pt x="615" y="686" on="1"/>
        <pt x="635" y="685" on="0"/>
        <pt x="665" y="684" on="0"/>
        <pt x="694" y="683" on="0"/>
        <pt x="726" y="683" on="0"/>
        <pt x="747" y="683" on="1"/>
        <pt x="762" y="683" on="0"/>
        <pt x="787" y="683" on="0"/>
        <pt x="813" y="684" on="0"/>
        <pt x="844" y="685" on="0"/>
        <pt x="864" y="686" on="1"/>
        <pt x="864" y="637" on="1"/>
        <pt x="846" y="637" on="1"/>
        <pt x="818" y="637" on="0"/>
        <pt x="787" y="634" on="0"/>
        <pt x="770" y="628" on="0"/>
        <pt x="764" y="620" on="0"/>
        <pt x="762" y="615" on="1"/>
      </contour>
    </TTGlyph>
    <TTGlyph name="W" xMin="26" yMin="-9" xMax="1195" yMax="686">
      <contour>
        <pt x="860" y="5" on="1"/>
        <pt x="855" y="-3" on="0"/>
        <pt x="837" y="-9" on="0"/>
        <pt x="827" y="-9" on="1"/>
        <pt x="807" y="-9" on="0"/>
        <pt x="794" y="7" on="0"/>
        <pt x="789" y="19" on="1"/>
        <pt x="610" y="470" on="1"/>
        <pt x="432" y="19" on="1"/>
        <pt x="427" y="7" on="0"/>
        <pt x="414" y="-9" on="0"/>
        <pt x="394" y="-9" on="1"/>
        <pt x="374" y="-9" on="0"/>
        <pt x="361" y="6" on="0"/>
        <pt x="356" y="19" on="1"/>
        <pt x="111" y="637" on="1"/>
        <pt x="26" y="637" on="1"/>
        <pt x="26" y="686" on="1"/>
        <pt x="60" y="684" on="0"/>
        <pt x="147" y="683" on="0"/>
        <pt x="182" y="683" on="1"/>
        <pt x="197" y="683" on="0"/>
        <pt x="246" y="683" on="0"/>
        <pt x="297" y="684" on="0"/>
        <pt x="343" y="685" on="0"/>
        <pt x="356" y="686" on="1"/>
        <pt x="356" y="637" on="1"/>
        <pt x="261" y="637" on="1"/>
        <pt x="441" y="180" on="1"/>
        <pt x="583" y="539" on="1"/>
        <pt x="544" y="637" on="1"/>
        <pt x="459" y="637" on="1"/>
        <pt x="459" y="686" on="1"/>
        <pt x="493" y="684" on="0"/>
        <pt x="580" y="683" on="0"/>
        <pt x="615" y="683" on="1"/>
        <pt x="630" y="683" on="0"/>
        <pt x="679" y="683" on="0"/>
        <pt x="730" y="684" on="0"/>
        <pt x="776" y="685" on="0"/>
        <pt x="789" y="686" on="1"/>
        <pt x="789" y="637" on="1"/>
        <pt x="694" y="637" on="1"/>
        <pt x="874" y="180" on="1"/>
        <pt x="1050" y="626" on="1"/>
        <pt x="1028" y="634" on="0"/>
        <pt x="969" y="637" on="0"/>
        <pt x="949" y="637" on="1"/>
        <pt x="949" y="686" on="1"/>
        <pt x="982" y="684" on="0"/>
        <pt x="1051" y="683" on="0"/>
        <pt x="1084" y="683" on="1"/>
        <pt x="1104" y="683" on="0"/>
        <pt x="1158" y="684" on="0"/>
        <pt x="1195" y="686" on="1"/>
        <pt x="1195" y="637" on="1"/>
        <pt x="1180" y="637" on="0"/>
        <pt x="1154" y="637" on="0"/>
        <pt x="1140" y="635" on="1"/>
        <pt x="1117" y="633" on="0"/>
        <pt x="1106" y="627" on="0"/>
        <pt x="1101" y="614" on="1"/>
      </contour>
    </TTGlyph>
    <TTGlyph name="X" xMin="37" yMin="0" xMax="856" yMax="686">
      <contour>
        <pt x="758" y="49" on="1"/>
        <pt x="856" y="49" on="1"/>
        <pt x="856" y="0" on="1"/>
        <pt x="842" y="1" on="0"/>
        <pt x="798" y="2" on="0"/>
        <pt x="751" y="3" on="0"/>
        <pt x="705" y="3" on="0"/>
        <pt x="690" y="3" on="1"/>
        <pt x="674" y="3" on="0"/>
        <pt x="624" y="3" on="0"/>
        <pt x="571" y="2" on="0"/>
        <pt x="524" y="1" on="0"/>
        <pt x="510" y="0" on="1"/>
        <pt x="510" y="49" on="1"/>
        <pt x="591" y="49" on="1"/>
        <pt x="414" y="286" on="1"/>
        <pt x="247" y="71" on="1"/>
        <pt x="245" y="69" on="0"/>
        <pt x="240" y="62" on="0"/>
        <pt x="239" y="60" on="1"/>
        <pt x="263" y="52" on="0"/>
        <pt x="316" y="49" on="0"/>
        <pt x="328" y="49" on="1"/>
        <pt x="328" y="0" on="1"/>
        <pt x="314" y="1" on="0"/>
        <pt x="274" y="2" on="0"/>
        <pt x="231" y="3" on="0"/>
        <pt x="190" y="3" on="0"/>
        <pt x="175" y="3" on="1"/>
        <pt x="154" y="3" on="0"/>
        <pt x="126" y="3" on="0"/>
        <pt x="98" y="2" on="0"/>
        <pt x="64" y="1" on="0"/>
        <pt x="37" y="0" on="1"/>
        <pt x="37" y="49" on="1"/>
        <pt x="66" y="49" on="1"/>
        <pt x="74" y="49" on="0"/>
        <pt x="94" y="50" on="0"/>
        <pt x="112" y="51" on="0"/>
        <pt x="125" y="52" on="0"/>
        <pt x="126" y="52" on="1"/>
        <pt x="145" y="54" on="0"/>
        <pt x="162" y="58" on="0"/>
        <pt x="170" y="68" on="1"/>
        <pt x="377" y="335" on="1"/>
        <pt x="151" y="637" on="1"/>
        <pt x="53" y="637" on="1"/>
        <pt x="53" y="686" on="1"/>
        <pt x="67" y="685" on="0"/>
        <pt x="110" y="684" on="0"/>
        <pt x="157" y="683" on="0"/>
        <pt x="202" y="683" on="0"/>
        <pt x="218" y="683" on="1"/>
        <pt x="233" y="683" on="0"/>
        <pt x="284" y="683" on="0"/>
        <pt x="337" y="684" on="0"/>
        <pt x="385" y="685" on="0"/>
        <pt x="398" y="686" on="1"/>
        <pt x="398" y="637" on="1"/>
        <pt x="317" y="637" on="1"/>
        <pt x="462" y="443" on="1"/>
        <pt x="596" y="615" on="1"/>
        <pt x="601" y="620" on="0"/>
        <pt x="602" y="624" on="0"/>
        <pt x="604" y="626" on="1"/>
        <pt x="579" y="634" on="0"/>
        <pt x="527" y="637" on="0"/>
        <pt x="515" y="637" on="1"/>
        <pt x="515" y="686" on="1"/>
        <pt x="529" y="685" on="0"/>
        <pt x="569" y="684" on="0"/>
        <pt x="611" y="683" on="0"/>
        <pt x="652" y="683" on="0"/>
        <pt x="667" y="683" on="1"/>
        <pt x="686" y="683" on="0"/>
        <pt x="712" y="683" on="0"/>
        <pt x="739" y="684" on="0"/>
        <pt x="775" y="685" on="0"/>
        <pt x="805" y="686" on="1"/>
        <pt x="805" y="637" on="1"/>
        <pt x="777" y="637" on="1"/>
        <pt x="756" y="637" on="0"/>
        <pt x="737" y="636" on="0"/>
        <pt x="719" y="634" on="1"/>
        <pt x="706" y="633" on="0"/>
        <pt x="690" y="631" on="0"/>
        <pt x="681" y="627" on="0"/>
        <pt x="676" y="621" on="0"/>
        <pt x="672" y="616" on="1"/>
        <pt x="499" y="394" on="1"/>
      </contour>
    </TTGlyph>
    <TTGlyph name="Xi" xMin="49" yMin="0" xMax="739" yMax="674">
      <contour>
        <pt x="732" y="473" on="1"/>
        <pt x="681" y="473" on="1"/>
        <pt x="681" y="481" on="0"/>
        <pt x="680" y="504" on="0"/>
        <pt x="677" y="527" on="0"/>
        <pt x="671" y="547" on="0"/>
        <pt x="666" y="552" on="1"/>
        <pt x="663" y="555" on="0"/>
        <pt x="641" y="557" on="0"/>
        <pt x="614" y="559" on="0"/>
        <pt x="590" y="559" on="0"/>
        <pt x="585" y="559" on="1"/>
        <pt x="203" y="559" on="1"/>
        <pt x="197" y="559" on="0"/>
        <pt x="171" y="559" on="0"/>
        <pt x="144" y="557" on="0"/>
        <pt x="122" y="553" on="0"/>
        <pt x="120" y="549" on="1"/>
        <pt x="114" y="540" on="0"/>
        <pt x="109" y="506" on="0"/>
        <pt x="107" y="473" on="1"/>
        <pt x="56" y="473" on="1"/>
        <pt x="65" y="674" on="1"/>
        <pt x="723" y="674" on="1"/>
      </contour>
      <contour>
        <pt x="49" y="212" on="1"/>
        <pt x="100" y="212" on="1"/>
        <pt x="102" y="183" on="0"/>
        <pt x="106" y="137" on="0"/>
        <pt x="114" y="126" on="1"/>
        <pt x="117" y="122" on="0"/>
        <pt x="140" y="117" on="0"/>
        <pt x="168" y="115" on="0"/>
        <pt x="195" y="115" on="0"/>
        <pt x="201" y="115" on="1"/>
        <pt x="587" y="115" on="1"/>
        <pt x="589" y="115" on="0"/>
        <pt x="613" y="115" on="0"/>
        <pt x="643" y="117" on="0"/>
        <pt x="670" y="121" on="0"/>
        <pt x="673" y="124" on="1"/>
        <pt x="681" y="133" on="0"/>
        <pt x="686" y="185" on="0"/>
        <pt x="688" y="212" on="1"/>
        <pt x="739" y="212" on="1"/>
        <pt x="730" y="0" on="1"/>
        <pt x="58" y="0" on="1"/>
      </contour>
      <contour>
        <pt x="624" y="250" on="1"/>
        <pt x="573" y="250" on="1"/>
        <pt x="573" y="293" on="1"/>
        <pt x="215" y="293" on="1"/>
        <pt x="215" y="250" on="1"/>
        <pt x="164" y="250" on="1"/>
        <pt x="164" y="451" on="1"/>
        <pt x="215" y="451" on="1"/>
        <pt x="215" y="408" on="1"/>
        <pt x="573" y="408" on="1"/>
        <pt x="573" y="451" on="1"/>
        <pt x="624" y="451" on="1"/>
      </contour>
    </TTGlyph>
    <TTGlyph name="Y" xMin="22" yMin="0" xMax="870" yMax="686">
      <contour>
        <pt x="515" y="274" on="1"/>
        <pt x="515" y="49" on="1"/>
        <pt x="623" y="49" on="1"/>
        <pt x="623" y="0" on="1"/>
        <pt x="610" y="1" on="0"/>
        <pt x="562" y="2" on="0"/>
        <pt x="510" y="3" on="0"/>
        <pt x="460" y="3" on="0"/>
        <pt x="445" y="3" on="1"/>
        <pt x="430" y="3" on="0"/>
        <pt x="381" y="3" on="0"/>
        <pt x="329" y="2" on="0"/>
        <pt x="282" y="1" on="0"/>
        <pt x="268" y="0" on="1"/>
        <pt x="268" y="49" on="1"/>
        <pt x="376" y="49" on="1"/>
        <pt x="376" y="274" on="1"/>
        <pt x="119" y="637" on="1"/>
        <pt x="22" y="637" on="1"/>
        <pt x="22" y="686" on="1"/>
        <pt x="36" y="685" on="0"/>
        <pt x="80" y="684" on="0"/>
        <pt x="129" y="683" on="0"/>
        <pt x="175" y="683" on="0"/>
        <pt x="190" y="683" on="1"/>
        <pt x="206" y="683" on="0"/>
        <pt x="257" y="683" on="0"/>
        <pt x="311" y="684" on="0"/>
        <pt x="360" y="685" on="0"/>
        <pt x="373" y="686" on="1"/>
        <pt x="373" y="637" on="1"/>
        <pt x="290" y="637" on="1"/>
        <pt x="495" y="347" on="1"/>
        <pt x="685" y="614" on="1"/>
        <pt x="692" y="627" on="1"/>
        <pt x="672" y="635" on="0"/>
        <pt x="636" y="637" on="0"/>
        <pt x="618" y="637" on="1"/>
        <pt x="618" y="686" on="1"/>
        <pt x="640" y="685" on="0"/>
        <pt x="673" y="684" on="0"/>
        <pt x="703" y="683" on="0"/>
        <pt x="733" y="683" on="0"/>
        <pt x="751" y="683" on="1"/>
        <pt x="770" y="683" on="0"/>
        <pt x="798" y="683" on="0"/>
        <pt x="824" y="684" on="0"/>
        <pt x="852" y="685" on="0"/>
        <pt x="870" y="686" on="1"/>
        <pt x="870" y="637" on="1"/>
        <pt x="849" y="637" on="1"/>
        <pt x="823" y="637" on="0"/>
        <pt x="797" y="634" on="1"/>
        <pt x="780" y="632" on="0"/>
        <pt x="766" y="628" on="0"/>
        <pt x="758" y="617" on="1"/>
      </contour>
    </TTGlyph>
    <TTGlyph name="Z" xMin="66" yMin="0" xMax="663" yMax="686">
      <contour>
        <pt x="238" y="53" on="1"/>
        <pt x="380" y="53" on="1"/>
        <pt x="454" y="53" on="0"/>
        <pt x="542" y="90" on="0"/>
        <pt x="591" y="154" on="0"/>
        <pt x="609" y="239" on="0"/>
        <pt x="612" y="286" on="1"/>
        <pt x="663" y="286" on="1"/>
        <pt x="644" y="0" on="1"/>
        <pt x="100" y="0" on="1"/>
        <pt x="83" y="0" on="0"/>
        <pt x="66" y="7" on="0"/>
        <pt x="66" y="28" on="1"/>
        <pt x="66" y="35" on="0"/>
        <pt x="68" y="46" on="0"/>
        <pt x="74" y="54" on="1"/>
        <pt x="485" y="637" on="1"/>
        <pt x="353" y="637" on="1"/>
        <pt x="312" y="637" on="0"/>
        <pt x="235" y="621" on="0"/>
        <pt x="175" y="579" on="0"/>
        <pt x="136" y="503" on="0"/>
        <pt x="133" y="443" on="1"/>
        <pt x="82" y="443" on="1"/>
        <pt x="95" y="686" on="1"/>
        <pt x="622" y="686" on="1"/>
        <pt x="638" y="686" on="0"/>
        <pt x="656" y="680" on="0"/>
        <pt x="656" y="660" on="1"/>
        <pt x="656" y="654" on="0"/>
        <pt x="654" y="643" on="0"/>
        <pt x="647" y="633" on="1"/>
      </contour>
    </TTGlyph>
    <TTGlyph name="a" xMin="33" yMin="-6" xMax="574" yMax="453">
      <contour>
        <pt x="484" y="84" on="1"/>
        <pt x="484" y="75" on="0"/>
        <pt x="486" y="62" on="0"/>
        <pt x="498" y="54" on="0"/>
        <pt x="524" y="49" on="0"/>
        <pt x="548" y="49" on="1"/>
        <pt x="556" y="49" on="0"/>
        <pt x="574" y="43" on="0"/>
        <pt x="574" y="25" on="1"/>
        <pt x="574" y="6" on="0"/>
        <pt x="555" y="0" on="0"/>
        <pt x="541" y="0" on="1"/>
        <pt x="492" y="0" on="1"/>
        <pt x="452" y="0" on="0"/>
        <pt x="408" y="16" on="0"/>
        <pt x="388" y="39" on="0"/>
        <pt x="385" y="64" on="0"/>
        <pt x="385" y="74" on="1"/>
        <pt x="365" y="39" on="0"/>
        <pt x="287" y="-6" on="0"/>
        <pt x="230" y="-6" on="1"/>
        <pt x="203" y="-6" on="0"/>
        <pt x="135" y="3" on="0"/>
        <pt x="74" y="29" on="0"/>
        <pt x="33" y="75" on="0"/>
        <pt x="33" y="112" on="1"/>
        <pt x="33" y="154" on="0"/>
        <pt x="91" y="212" on="0"/>
        <pt x="185" y="249" on="0"/>
        <pt x="305" y="266" on="0"/>
        <pt x="367" y="266" on="1"/>
        <pt x="367" y="298" on="1"/>
        <pt x="367" y="358" on="0"/>
        <pt x="308" y="413" on="0"/>
        <pt x="254" y="413" on="1"/>
        <pt x="226" y="413" on="0"/>
        <pt x="191" y="409" on="0"/>
        <pt x="183" y="407" on="1"/>
        <pt x="185" y="405" on="0"/>
        <pt x="203" y="380" on="0"/>
        <pt x="203" y="358" on="1"/>
        <pt x="203" y="327" on="0"/>
        <pt x="164" y="293" on="0"/>
        <pt x="138" y="293" on="1"/>
        <pt x="115" y="293" on="0"/>
        <pt x="73" y="325" on="0"/>
        <pt x="73" y="359" on="1"/>
        <pt x="73" y="394" on="0"/>
        <pt x="115" y="432" on="0"/>
        <pt x="173" y="450" on="0"/>
        <pt x="237" y="453" on="0"/>
        <pt x="258" y="453" on="1"/>
        <pt x="316" y="453" on="0"/>
        <pt x="401" y="429" on="0"/>
        <pt x="457" y="388" on="0"/>
        <pt x="484" y="331" on="0"/>
        <pt x="484" y="298" on="1"/>
      </contour>
      <contour>
        <pt x="367" y="232" on="1"/>
        <pt x="294" y="229" on="0"/>
        <pt x="209" y="200" on="0"/>
        <pt x="166" y="162" on="0"/>
        <pt x="154" y="124" on="0"/>
        <pt x="154" y="112" on="1"/>
        <pt x="154" y="95" on="0"/>
        <pt x="169" y="67" on="0"/>
        <pt x="194" y="46" on="0"/>
        <pt x="228" y="34" on="0"/>
        <pt x="247" y="34" on="1"/>
        <pt x="249" y="34" on="0"/>
        <pt x="286" y="37" on="0"/>
        <pt x="331" y="57" on="0"/>
        <pt x="367" y="100" on="0"/>
        <pt x="367" y="139" on="1"/>
      </contour>
    </TTGlyph>
    <TTGlyph name="acute" xMin="245" yMin="507" xMax="471" yMax="704">
      <contour>
        <pt x="276" y="507" on="1"/>
        <pt x="245" y="548" on="1"/>
        <pt x="254" y="557" on="0"/>
        <pt x="282" y="588" on="0"/>
        <pt x="312" y="622" on="0"/>
        <pt x="339" y="653" on="0"/>
        <pt x="348" y="662" on="1"/>
        <pt x="369" y="685" on="0"/>
        <pt x="392" y="704" on="0"/>
        <pt x="410" y="704" on="1"/>
        <pt x="433" y="704" on="0"/>
        <pt x="471" y="666" on="0"/>
        <pt x="471" y="640" on="1"/>
        <pt x="471" y="615" on="0"/>
        <pt x="444" y="592" on="0"/>
        <pt x="433" y="587" on="1"/>
      </contour>
    </TTGlyph>
    <TTGlyph name="ae" xMin="38" yMin="-6" xMax="821" yMax="453">
      <contour>
        <pt x="486" y="215" on="1"/>
        <pt x="486" y="200" on="0"/>
        <pt x="493" y="140" on="0"/>
        <pt x="522" y="81" on="0"/>
        <pt x="583" y="37" on="0"/>
        <pt x="637" y="37" on="1"/>
        <pt x="688" y="37" on="0"/>
        <pt x="756" y="83" on="0"/>
        <pt x="769" y="116" on="1"/>
        <pt x="773" y="127" on="0"/>
        <pt x="781" y="136" on="0"/>
        <pt x="795" y="136" on="1"/>
        <pt x="800" y="136" on="0"/>
        <pt x="821" y="131" on="0"/>
        <pt x="821" y="116" on="1"/>
        <pt x="821" y="109" on="0"/>
        <pt x="802" y="69" on="0"/>
        <pt x="758" y="27" on="0"/>
        <pt x="685" y="-6" on="0"/>
        <pt x="631" y="-6" on="1"/>
        <pt x="576" y="-6" on="0"/>
        <pt x="476" y="26" on="0"/>
        <pt x="440" y="58" on="1"/>
        <pt x="419" y="35" on="0"/>
        <pt x="361" y="9" on="0"/>
        <pt x="302" y="-3" on="0"/>
        <pt x="249" y="-6" on="0"/>
        <pt x="234" y="-6" on="1"/>
        <pt x="137" y="-6" on="0"/>
        <pt x="38" y="53" on="0"/>
        <pt x="38" y="105" on="1"/>
        <pt x="38" y="137" on="0"/>
        <pt x="74" y="182" on="0"/>
        <pt x="132" y="214" on="0"/>
        <pt x="205" y="234" on="0"/>
        <pt x="278" y="244" on="0"/>
        <pt x="346" y="248" on="0"/>
        <pt x="369" y="248" on="1"/>
        <pt x="369" y="298" on="1"/>
        <pt x="369" y="360" on="0"/>
        <pt x="308" y="413" on="0"/>
        <pt x="255" y="413" on="1"/>
        <pt x="226" y="413" on="0"/>
        <pt x="190" y="409" on="0"/>
        <pt x="183" y="407" on="1"/>
        <pt x="185" y="405" on="0"/>
        <pt x="203" y="380" on="0"/>
        <pt x="203" y="358" on="1"/>
        <pt x="203" y="327" on="0"/>
        <pt x="164" y="293" on="0"/>
        <pt x="138" y="293" on="1"/>
        <pt x="115" y="293" on="0"/>
        <pt x="73" y="325" on="0"/>
        <pt x="73" y="359" on="1"/>
        <pt x="73" y="394" on="0"/>
        <pt x="117" y="432" on="0"/>
        <pt x="177" y="450" on="0"/>
        <pt x="240" y="453" on="0"/>
        <pt x="258" y="453" on="1"/>
        <pt x="271" y="453" on="0"/>
        <pt x="315" y="451" on="0"/>
        <pt x="367" y="441" on="0"/>
        <pt x="421" y="418" on="0"/>
        <pt x="445" y="397" on="1"/>
        <pt x="471" y="419" on="0"/>
        <pt x="556" y="453" on="0"/>
        <pt x="616" y="453" on="1"/>
        <pt x="716" y="453" on="0"/>
        <pt x="821" y="344" on="0"/>
        <pt x="821" y="244" on="1"/>
        <pt x="821" y="222" on="0"/>
        <pt x="805" y="215" on="0"/>
        <pt x="788" y="215" on="1"/>
      </contour>
      <contour>
        <pt x="723" y="251" on="1"/>
        <pt x="722" y="267" on="0"/>
        <pt x="717" y="321" on="0"/>
        <pt x="696" y="374" on="0"/>
        <pt x="654" y="413" on="0"/>
        <pt x="616" y="413" on="1"/>
        <pt x="585" y="413" on="0"/>
        <pt x="541" y="392" on="0"/>
        <pt x="512" y="361" on="0"/>
        <pt x="496" y="322" on="0"/>
        <pt x="488" y="286" on="0"/>
        <pt x="486" y="257" on="0"/>
        <pt x="486" y="251" on="1"/>
      </contour>
      <contour>
        <pt x="369" y="211" on="1"/>
        <pt x="306" y="209" on="0"/>
        <pt x="224" y="187" on="0"/>
        <pt x="177" y="157" on="0"/>
        <pt x="159" y="122" on="0"/>
        <pt x="159" y="106" on="1"/>
        <pt x="159" y="75" on="0"/>
        <pt x="210" y="34" on="0"/>
        <pt x="249" y="34" on="1"/>
        <pt x="276" y="34" on="0"/>
        <pt x="326" y="48" on="0"/>
        <pt x="365" y="72" on="0"/>
        <pt x="388" y="105" on="0"/>
        <pt x="388" y="125" on="1"/>
        <pt x="388" y="129" on="0"/>
        <pt x="387" y="134" on="0"/>
        <pt x="385" y="139" on="1"/>
        <pt x="378" y="156" on="0"/>
        <pt x="371" y="192" on="0"/>
      </contour>
    </TTGlyph>
    <TTGlyph name="ampersand" xMin="49" yMin="-12" xMax="860" yMax="706">
      <contour>
        <pt x="734" y="336" on="1"/>
        <pt x="697" y="283" on="0"/>
        <pt x="649" y="218" on="0"/>
        <pt x="610" y="172" on="0"/>
        <pt x="572" y="134" on="0"/>
        <pt x="545" y="108" on="1"/>
        <pt x="594" y="65" on="0"/>
        <pt x="664" y="37" on="0"/>
        <pt x="691" y="37" on="1"/>
        <pt x="697" y="37" on="0"/>
        <pt x="732" y="41" on="0"/>
        <pt x="770" y="57" on="0"/>
        <pt x="800" y="89" on="0"/>
        <pt x="802" y="117" on="1"/>
        <pt x="853" y="117" on="1"/>
        <pt x="852" y="85" on="0"/>
        <pt x="823" y="37" on="0"/>
        <pt x="776" y="4" on="0"/>
        <pt x="717" y="-12" on="0"/>
        <pt x="686" y="-12" on="1"/>
        <pt x="651" y="-12" on="0"/>
        <pt x="586" y="0" on="0"/>
        <pt x="529" y="19" on="0"/>
        <pt x="483" y="41" on="0"/>
        <pt x="467" y="50" on="1"/>
        <pt x="412" y="16" on="0"/>
        <pt x="312" y="-12" on="0"/>
        <pt x="264" y="-12" on="1"/>
        <pt x="220" y="-12" on="0"/>
        <pt x="142" y="9" on="0"/>
        <pt x="83" y="48" on="0"/>
        <pt x="49" y="104" on="0"/>
        <pt x="49" y="139" on="1"/>
        <pt x="49" y="161" on="0"/>
        <pt x="62" y="195" on="0"/>
        <pt x="81" y="222" on="0"/>
        <pt x="104" y="242" on="0"/>
        <pt x="114" y="251" on="1"/>
        <pt x="219" y="336" on="1"/>
        <pt x="196" y="395" on="0"/>
        <pt x="177" y="485" on="0"/>
        <pt x="177" y="526" on="1"/>
        <pt x="177" y="571" on="0"/>
        <pt x="212" y="639" on="0"/>
        <pt x="267" y="684" on="0"/>
        <pt x="332" y="706" on="0"/>
        <pt x="362" y="706" on="1"/>
        <pt x="392" y="706" on="0"/>
        <pt x="436" y="680" on="0"/>
        <pt x="465" y="640" on="0"/>
        <pt x="478" y="593" on="0"/>
        <pt x="478" y="572" on="1"/>
        <pt x="478" y="533" on="0"/>
        <pt x="407" y="441" on="0"/>
        <pt x="330" y="376" on="1"/>
        <pt x="342" y="352" on="0"/>
        <pt x="369" y="307" on="0"/>
        <pt x="403" y="261" on="0"/>
        <pt x="445" y="212" on="0"/>
        <pt x="470" y="184" on="1"/>
        <pt x="476" y="176" on="0"/>
        <pt x="503" y="149" on="0"/>
        <pt x="510" y="141" on="1"/>
        <pt x="526" y="156" on="0"/>
        <pt x="563" y="193" on="0"/>
        <pt x="610" y="249" on="0"/>
        <pt x="670" y="328" on="0"/>
        <pt x="707" y="385" on="1"/>
        <pt x="689" y="393" on="0"/>
        <pt x="659" y="395" on="0"/>
        <pt x="639" y="395" on="1"/>
        <pt x="639" y="444" on="1"/>
        <pt x="662" y="443" on="0"/>
        <pt x="696" y="442" on="0"/>
        <pt x="723" y="441" on="0"/>
        <pt x="746" y="441" on="0"/>
        <pt x="759" y="441" on="1"/>
        <pt x="785" y="441" on="0"/>
        <pt x="834" y="442" on="0"/>
        <pt x="860" y="444" on="1"/>
        <pt x="860" y="395" on="1"/>
        <pt x="827" y="395" on="0"/>
        <pt x="773" y="391" on="0"/>
        <pt x="764" y="378" on="1"/>
      </contour>
      <contour>
        <pt x="313" y="415" on="1"/>
        <pt x="316" y="418" on="0"/>
        <pt x="352" y="449" on="0"/>
        <pt x="394" y="494" on="0"/>
        <pt x="427" y="548" on="0"/>
        <pt x="427" y="572" on="1"/>
        <pt x="427" y="583" on="0"/>
        <pt x="421" y="615" on="0"/>
        <pt x="407" y="645" on="0"/>
        <pt x="382" y="666" on="0"/>
        <pt x="363" y="666" on="1"/>
        <pt x="353" y="666" on="0"/>
        <pt x="325" y="656" on="0"/>
        <pt x="301" y="632" on="0"/>
        <pt x="284" y="593" on="0"/>
        <pt x="284" y="564" on="1"/>
        <pt x="284" y="536" on="0"/>
        <pt x="292" y="485" on="0"/>
        <pt x="303" y="445" on="0"/>
        <pt x="312" y="418" on="0"/>
      </contour>
      <contour>
        <pt x="238" y="300" on="1"/>
        <pt x="206" y="277" on="0"/>
        <pt x="182" y="208" on="0"/>
        <pt x="182" y="173" on="1"/>
        <pt x="182" y="158" on="0"/>
        <pt x="189" y="111" on="0"/>
        <pt x="209" y="68" on="0"/>
        <pt x="245" y="37" on="0"/>
        <pt x="274" y="37" on="1"/>
        <pt x="301" y="37" on="0"/>
        <pt x="347" y="46" on="0"/>
        <pt x="386" y="60" on="0"/>
        <pt x="415" y="74" on="0"/>
        <pt x="424" y="79" on="1"/>
        <pt x="388" y="105" on="0"/>
        <pt x="327" y="167" on="0"/>
        <pt x="280" y="228" on="0"/>
        <pt x="247" y="282" on="0"/>
      </contour>
    </TTGlyph>
    <TTGlyph name="asterisk" xMin="76" yMin="306" xMax="515" yMax="750">
      <contour>
        <pt x="339" y="360" on="1"/>
        <pt x="339" y="358" on="0"/>
        <pt x="341" y="347" on="0"/>
        <pt x="341" y="346" on="1"/>
        <pt x="341" y="326" on="0"/>
        <pt x="312" y="306" on="0"/>
        <pt x="296" y="306" on="1"/>
        <pt x="278" y="306" on="0"/>
        <pt x="250" y="328" on="0"/>
        <pt x="250" y="346" on="1"/>
        <pt x="250" y="348" on="0"/>
        <pt x="250" y="354" on="0"/>
        <pt x="252" y="361" on="1"/>
        <pt x="274" y="493" on="1"/>
        <pt x="150" y="402" on="1"/>
        <pt x="139" y="394" on="0"/>
        <pt x="127" y="391" on="0"/>
        <pt x="122" y="391" on="1"/>
        <pt x="101" y="391" on="0"/>
        <pt x="76" y="423" on="0"/>
        <pt x="76" y="440" on="1"/>
        <pt x="76" y="463" on="0"/>
        <pt x="101" y="478" on="0"/>
        <pt x="109" y="481" on="1"/>
        <pt x="248" y="528" on="1"/>
        <pt x="108" y="575" on="1"/>
        <pt x="100" y="578" on="0"/>
        <pt x="76" y="594" on="0"/>
        <pt x="76" y="616" on="1"/>
        <pt x="76" y="633" on="0"/>
        <pt x="102" y="665" on="0"/>
        <pt x="122" y="665" on="1"/>
        <pt x="131" y="665" on="0"/>
        <pt x="139" y="661" on="0"/>
        <pt x="150" y="653" on="1"/>
        <pt x="274" y="563" on="1"/>
        <pt x="252" y="696" on="1"/>
        <pt x="252" y="698" on="0"/>
        <pt x="250" y="709" on="0"/>
        <pt x="250" y="710" on="1"/>
        <pt x="250" y="730" on="0"/>
        <pt x="279" y="750" on="0"/>
        <pt x="295" y="750" on="1"/>
        <pt x="313" y="750" on="0"/>
        <pt x="341" y="728" on="0"/>
        <pt x="341" y="710" on="1"/>
        <pt x="341" y="708" on="0"/>
        <pt x="341" y="702" on="0"/>
        <pt x="339" y="695" on="1"/>
        <pt x="317" y="563" on="1"/>
        <pt x="441" y="654" on="1"/>
        <pt x="452" y="662" on="0"/>
        <pt x="464" y="665" on="0"/>
        <pt x="469" y="665" on="1"/>
        <pt x="490" y="665" on="0"/>
        <pt x="515" y="633" on="0"/>
        <pt x="515" y="616" on="1"/>
        <pt x="515" y="593" on="0"/>
        <pt x="490" y="578" on="0"/>
        <pt x="482" y="575" on="1"/>
        <pt x="343" y="528" on="1"/>
        <pt x="483" y="481" on="1"/>
        <pt x="491" y="478" on="0"/>
        <pt x="515" y="462" on="0"/>
        <pt x="515" y="440" on="1"/>
        <pt x="515" y="423" on="0"/>
        <pt x="489" y="391" on="0"/>
        <pt x="469" y="391" on="1"/>
        <pt x="460" y="391" on="0"/>
        <pt x="452" y="395" on="0"/>
        <pt x="441" y="403" on="1"/>
        <pt x="317" y="493" on="1"/>
      </contour>
    </TTGlyph>
    <TTGlyph name="at" xMin="66" yMin="-6" xMax="853" yMax="700">
      <contour>
        <pt x="695" y="224" on="1"/>
        <pt x="695" y="220" on="0"/>
        <pt x="696" y="201" on="0"/>
        <pt x="702" y="181" on="0"/>
        <pt x="715" y="167" on="0"/>
        <pt x="727" y="167" on="1"/>
        <pt x="749" y="167" on="0"/>
        <pt x="778" y="195" on="0"/>
        <pt x="795" y="242" on="0"/>
        <pt x="802" y="305" on="0"/>
        <pt x="802" y="341" on="1"/>
        <pt x="802" y="419" on="0"/>
        <pt x="750" y="539" on="0"/>
        <pt x="659" y="619" on="0"/>
        <pt x="533" y="660" on="0"/>
        <pt x="459" y="660" on="1"/>
        <pt x="377" y="660" on="0"/>
        <pt x="250" y="613" on="0"/>
        <pt x="163" y="529" on="0"/>
        <pt x="117" y="415" on="0"/>
        <pt x="117" y="347" on="1"/>
        <pt x="117" y="286" on="0"/>
        <pt x="157" y="173" on="0"/>
        <pt x="242" y="86" on="0"/>
        <pt x="373" y="34" on="0"/>
        <pt x="463" y="34" on="1"/>
        <pt x="517" y="34" on="0"/>
        <pt x="670" y="55" on="0"/>
        <pt x="758" y="87" on="1"/>
        <pt x="766" y="90" on="0"/>
        <pt x="776" y="94" on="0"/>
        <pt x="784" y="96" on="0"/>
        <pt x="791" y="96" on="0"/>
        <pt x="797" y="96" on="1"/>
        <pt x="824" y="96" on="1"/>
        <pt x="835" y="96" on="0"/>
        <pt x="853" y="92" on="0"/>
        <pt x="853" y="80" on="1"/>
        <pt x="853" y="75" on="0"/>
        <pt x="849" y="70" on="0"/>
        <pt x="847" y="68" on="1"/>
        <pt x="843" y="66" on="0"/>
        <pt x="818" y="57" on="0"/>
        <pt x="807" y="53" on="1"/>
        <pt x="732" y="27" on="0"/>
        <pt x="556" y="-6" on="0"/>
        <pt x="464" y="-6" on="1"/>
        <pt x="359" y="-6" on="0"/>
        <pt x="208" y="54" on="0"/>
        <pt x="112" y="153" on="0"/>
        <pt x="66" y="280" on="0"/>
        <pt x="66" y="347" on="1"/>
        <pt x="66" y="420" on="0"/>
        <pt x="117" y="548" on="0"/>
        <pt x="216" y="644" on="0"/>
        <pt x="363" y="700" on="0"/>
        <pt x="460" y="700" on="1"/>
        <pt x="552" y="700" on="0"/>
        <pt x="698" y="647" on="0"/>
        <pt x="799" y="553" on="0"/>
        <pt x="853" y="423" on="0"/>
        <pt x="853" y="345" on="1"/>
        <pt x="853" y="336" on="0"/>
        <pt x="851" y="296" on="0"/>
        <pt x="843" y="247" on="0"/>
        <pt x="826" y="196" on="0"/>
        <pt x="796" y="154" on="0"/>
        <pt x="750" y="127" on="0"/>
        <pt x="717" y="127" on="1"/>
        <pt x="710" y="127" on="0"/>
        <pt x="679" y="128" on="0"/>
        <pt x="642" y="137" on="0"/>
        <pt x="605" y="155" on="0"/>
        <pt x="592" y="172" on="1"/>
        <pt x="576" y="159" on="0"/>
        <pt x="509" y="127" on="0"/>
        <pt x="458" y="127" on="1"/>
        <pt x="405" y="127" on="0"/>
        <pt x="319" y="159" on="0"/>
        <pt x="257" y="217" on="0"/>
        <pt x="224" y="298" on="0"/>
        <pt x="224" y="347" on="1"/>
        <pt x="224" y="396" on="0"/>
        <pt x="257" y="477" on="0"/>
        <pt x="319" y="535" on="0"/>
        <pt x="405" y="567" on="0"/>
        <pt x="458" y="567" on="1"/>
        <pt x="478" y="567" on="0"/>
        <pt x="521" y="560" on="0"/>
        <pt x="565" y="542" on="0"/>
        <pt x="607" y="509" on="0"/>
        <pt x="625" y="483" on="1"/>
        <pt x="663" y="483" on="1"/>
        <pt x="686" y="483" on="0"/>
        <pt x="695" y="473" on="0"/>
        <pt x="695" y="453" on="1"/>
      </contour>
      <contour>
        <pt x="578" y="468" on="1"/>
        <pt x="563" y="488" on="0"/>
        <pt x="529" y="511" on="0"/>
        <pt x="497" y="523" on="0"/>
        <pt x="469" y="527" on="0"/>
        <pt x="461" y="527" on="1"/>
        <pt x="438" y="527" on="0"/>
        <pt x="394" y="506" on="0"/>
        <pt x="361" y="463" on="0"/>
        <pt x="341" y="395" on="0"/>
        <pt x="341" y="347" on="1"/>
        <pt x="341" y="300" on="0"/>
        <pt x="361" y="232" on="0"/>
        <pt x="394" y="188" on="0"/>
        <pt x="438" y="167" on="0"/>
        <pt x="461" y="167" on="1"/>
        <pt x="470" y="167" on="0"/>
        <pt x="498" y="171" on="0"/>
        <pt x="530" y="183" on="0"/>
        <pt x="564" y="206" on="0"/>
        <pt x="578" y="226" on="1"/>
      </contour>
    </TTGlyph>
    <TTGlyph name="b" xMin="41" yMin="-6" xMax="617" yMax="694">
      <contour>
        <pt x="220" y="402" on="1"/>
        <pt x="227" y="407" on="0"/>
        <pt x="254" y="424" on="0"/>
        <pt x="292" y="439" on="0"/>
        <pt x="342" y="450" on="0"/>
        <pt x="372" y="450" on="1"/>
        <pt x="428" y="450" on="0"/>
        <pt x="518" y="417" on="0"/>
        <pt x="582" y="357" on="0"/>
        <pt x="617" y="273" on="0"/>
        <pt x="617" y="222" on="1"/>
        <pt x="617" y="172" on="0"/>
        <pt x="580" y="88" on="0"/>
        <pt x="513" y="28" on="0"/>
        <pt x="418" y="-6" on="0"/>
        <pt x="359" y="-6" on="1"/>
        <pt x="305" y="-6" on="0"/>
        <pt x="231" y="33" on="0"/>
        <pt x="207" y="57" on="1"/>
        <pt x="160" y="0" on="1"/>
        <pt x="109" y="0" on="1"/>
        <pt x="109" y="598" on="1"/>
        <pt x="109" y="613" on="0"/>
        <pt x="105" y="628" on="0"/>
        <pt x="90" y="636" on="0"/>
        <pt x="64" y="637" on="0"/>
        <pt x="41" y="637" on="1"/>
        <pt x="41" y="686" on="1"/>
        <pt x="220" y="694" on="1"/>
      </contour>
      <contour>
        <pt x="226" y="104" on="1"/>
        <pt x="234" y="92" on="0"/>
        <pt x="257" y="67" on="0"/>
        <pt x="287" y="47" on="0"/>
        <pt x="326" y="34" on="0"/>
        <pt x="349" y="34" on="1"/>
        <pt x="357" y="34" on="0"/>
        <pt x="385" y="37" on="0"/>
        <pt x="418" y="49" on="0"/>
        <pt x="451" y="73" on="0"/>
        <pt x="463" y="94" on="1"/>
        <pt x="479" y="121" on="0"/>
        <pt x="484" y="192" on="0"/>
        <pt x="484" y="224" on="1"/>
        <pt x="484" y="249" on="0"/>
        <pt x="480" y="313" on="0"/>
        <pt x="457" y="370" on="0"/>
        <pt x="407" y="410" on="0"/>
        <pt x="360" y="410" on="1"/>
        <pt x="314" y="410" on="0"/>
        <pt x="245" y="370" on="0"/>
        <pt x="226" y="346" on="1"/>
      </contour>
    </TTGlyph>
    <TTGlyph name="bracketleft" xMin="131" yMin="-250" xMax="302" yMax="750">
      <contour>
        <pt x="131" y="-250" on="1"/>
        <pt x="131" y="750" on="1"/>
        <pt x="302" y="750" on="1"/>
        <pt x="302" y="686" on="1"/>
        <pt x="195" y="686" on="1"/>
        <pt x="195" y="-186" on="1"/>
        <pt x="302" y="-186" on="1"/>
        <pt x="302" y="-250" on="1"/>
      </contour>
    </TTGlyph>
    <TTGlyph name="bracketright" xMin="26" yMin="-250" xMax="197" yMax="750">
      <contour>
        <pt x="197" y="-250" on="1"/>
        <pt x="26" y="-250" on="1"/>
        <pt x="26" y="-186" on="1"/>
        <pt x="133" y="-186" on="1"/>
        <pt x="133" y="686" on="1"/>
        <pt x="26" y="686" on="1"/>
        <pt x="26" y="750" on="1"/>
        <pt x="197" y="750" on="1"/>
      </contour>
    </TTGlyph>
    <TTGlyph name="breve" xMin="111" yMin="506" xMax="480" yMax="694">
      <contour>
        <pt x="480" y="694" on="1"/>
        <pt x="479" y="651" on="0"/>
        <pt x="448" y="582" on="0"/>
        <pt x="397" y="533" on="0"/>
        <pt x="331" y="506" on="0"/>
        <pt x="295" y="506" on="1"/>
        <pt x="261" y="506" on="0"/>
        <pt x="195" y="532" on="0"/>
        <pt x="144" y="580" on="0"/>
        <pt x="112" y="650" on="0"/>
        <pt x="111" y="694" on="1"/>
        <pt x="151" y="694" on="1"/>
        <pt x="153" y="661" on="0"/>
        <pt x="181" y="615" on="0"/>
        <pt x="223" y="586" on="0"/>
        <pt x="273" y="572" on="0"/>
        <pt x="296" y="572" on="1"/>
        <pt x="317" y="572" on="0"/>
        <pt x="367" y="585" on="0"/>
        <pt x="409" y="614" on="0"/>
        <pt x="439" y="661" on="0"/>
        <pt x="440" y="694" on="1"/>
      </contour>
    </TTGlyph>
    <TTGlyph name="c" xMin="39" yMin="-6" xMax="492" yMax="453">
      <contour>
        <pt x="492" y="116" on="1"/>
        <pt x="492" y="115" on="0"/>
        <pt x="486" y="96" on="0"/>
        <pt x="471" y="70" on="0"/>
        <pt x="444" y="39" on="0"/>
        <pt x="423" y="26" on="1"/>
        <pt x="391" y="6" on="0"/>
        <pt x="323" y="-6" on="0"/>
        <pt x="295" y="-6" on="1"/>
        <pt x="233" y="-6" on="0"/>
        <pt x="137" y="30" on="0"/>
        <pt x="72" y="92" on="0"/>
        <pt x="39" y="175" on="0"/>
        <pt x="39" y="222" on="1"/>
        <pt x="39" y="263" on="0"/>
        <pt x="67" y="345" on="0"/>
        <pt x="128" y="411" on="0"/>
        <pt x="228" y="453" on="0"/>
        <pt x="300" y="453" on="1"/>
        <pt x="315" y="453" on="0"/>
        <pt x="374" y="450" on="0"/>
        <pt x="434" y="432" on="0"/>
        <pt x="479" y="394" on="0"/>
        <pt x="479" y="359" on="1"/>
        <pt x="479" y="325" on="0"/>
        <pt x="437" y="293" on="0"/>
        <pt x="414" y="293" on="1"/>
        <pt x="388" y="293" on="0"/>
        <pt x="349" y="327" on="0"/>
        <pt x="349" y="358" on="1"/>
        <pt x="349" y="369" on="0"/>
        <pt x="355" y="391" on="0"/>
        <pt x="362" y="399" on="1"/>
        <pt x="365" y="402" on="0"/>
        <pt x="365" y="404" on="1"/>
        <pt x="365" y="406" on="0"/>
        <pt x="348" y="408" on="0"/>
        <pt x="326" y="410" on="0"/>
        <pt x="307" y="410" on="0"/>
        <pt x="304" y="410" on="1"/>
        <pt x="255" y="410" on="0"/>
        <pt x="201" y="369" on="0"/>
        <pt x="176" y="312" on="0"/>
        <pt x="172" y="249" on="0"/>
        <pt x="172" y="226" on="1"/>
        <pt x="172" y="209" on="0"/>
        <pt x="176" y="146" on="0"/>
        <pt x="203" y="83" on="0"/>
        <pt x="261" y="37" on="0"/>
        <pt x="314" y="37" on="1"/>
        <pt x="359" y="37" on="0"/>
        <pt x="423" y="77" on="0"/>
        <pt x="438" y="113" on="1"/>
        <pt x="444" y="127" on="0"/>
        <pt x="451" y="132" on="0"/>
        <pt x="466" y="132" on="1"/>
        <pt x="474" y="132" on="0"/>
        <pt x="492" y="128" on="0"/>
      </contour>
    </TTGlyph>
    <TTGlyph name="caron" xMin="137" yMin="516" xMax="454" yMax="655">
      <contour>
        <pt x="432" y="655" on="1"/>
        <pt x="454" y="609" on="1"/>
        <pt x="295" y="516" on="1"/>
        <pt x="137" y="609" on="1"/>
        <pt x="159" y="655" on="1"/>
        <pt x="296" y="603" on="1"/>
      </contour>
    </TTGlyph>
    <TTGlyph name="cedilla" xMin="138" yMin="-202" xMax="452" yMax="-12">
      <contour>
        <pt x="354" y="-27" on="1"/>
        <pt x="396" y="-35" on="0"/>
        <pt x="452" y="-71" on="0"/>
        <pt x="452" y="-110" on="1"/>
        <pt x="452" y="-120" on="0"/>
        <pt x="444" y="-151" on="0"/>
        <pt x="396" y="-181" on="0"/>
        <pt x="293" y="-202" on="0"/>
        <pt x="197" y="-202" on="1"/>
        <pt x="138" y="-202" on="1"/>
        <pt x="138" y="-162" on="1"/>
        <pt x="178" y="-162" on="1"/>
        <pt x="193" y="-162" on="0"/>
        <pt x="246" y="-160" on="0"/>
        <pt x="297" y="-151" on="0"/>
        <pt x="335" y="-130" on="0"/>
        <pt x="335" y="-111" on="1"/>
        <pt x="335" y="-95" on="0"/>
        <pt x="316" y="-75" on="0"/>
        <pt x="287" y="-65" on="0"/>
        <pt x="252" y="-61" on="0"/>
        <pt x="237" y="-61" on="1"/>
        <pt x="237" y="-12" on="1"/>
        <pt x="354" y="-12" on="1"/>
      </contour>
    </TTGlyph>
    <TTGlyph name="circumflex" xMin="133" yMin="527" xMax="458" yMax="694">
      <contour>
        <pt x="458" y="568" on="1"/>
        <pt x="428" y="527" on="1"/>
        <pt x="295" y="607" on="1"/>
        <pt x="163" y="527" on="1"/>
        <pt x="133" y="568" on="1"/>
        <pt x="296" y="694" on="1"/>
      </contour>
    </TTGlyph>
    <TTGlyph name="colon" xMin="86" yMin="0" xMax="243" yMax="444">
      <contour>
        <pt x="243" y="365" on="1"/>
        <pt x="243" y="333" on="0"/>
        <pt x="197" y="287" on="0"/>
        <pt x="165" y="287" on="1"/>
        <pt x="132" y="287" on="0"/>
        <pt x="86" y="333" on="0"/>
        <pt x="86" y="366" on="1"/>
        <pt x="86" y="397" on="0"/>
        <pt x="130" y="444" on="0"/>
        <pt x="165" y="444" on="1"/>
        <pt x="196" y="444" on="0"/>
        <pt x="243" y="400" on="0"/>
      </contour>
      <contour>
        <pt x="243" y="78" on="1"/>
        <pt x="243" y="47" on="0"/>
        <pt x="199" y="0" on="0"/>
        <pt x="164" y="0" on="1"/>
        <pt x="133" y="0" on="0"/>
        <pt x="86" y="44" on="0"/>
        <pt x="86" y="79" on="1"/>
        <pt x="86" y="110" on="0"/>
        <pt x="130" y="157" on="0"/>
        <pt x="165" y="157" on="1"/>
        <pt x="196" y="157" on="0"/>
        <pt x="243" y="113" on="0"/>
      </contour>
    </TTGlyph>
    <TTGlyph name="comma" xMin="86" yMin="-194" xMax="256" yMax="157">
      <contour>
        <pt x="215" y="17" on="1"/>
        <pt x="207" y="10" on="0"/>
        <pt x="181" y="0" on="0"/>
        <pt x="165" y="0" on="1"/>
        <pt x="126" y="0" on="0"/>
        <pt x="86" y="49" on="0"/>
        <pt x="86" y="79" on="1"/>
        <pt x="86" y="108" on="0"/>
        <pt x="127" y="157" on="0"/>
        <pt x="164" y="157" on="1"/>
        <pt x="185" y="157" on="0"/>
        <pt x="219" y="137" on="0"/>
        <pt x="243" y="103" on="0"/>
        <pt x="256" y="57" on="0"/>
        <pt x="256" y="31" on="1"/>
        <pt x="256" y="-21" on="0"/>
        <pt x="222" y="-104" on="0"/>
        <pt x="180" y="-163" on="0"/>
        <pt x="141" y="-194" on="0"/>
        <pt x="135" y="-194" on="1"/>
        <pt x="127" y="-194" on="0"/>
        <pt x="113" y="-180" on="0"/>
        <pt x="113" y="-172" on="1"/>
        <pt x="113" y="-166" on="0"/>
        <pt x="119" y="-160" on="0"/>
        <pt x="123" y="-157" on="1"/>
        <pt x="159" y="-128" on="0"/>
        <pt x="211" y="-43" on="0"/>
      </contour>
    </TTGlyph>
    <TTGlyph name="d" xMin="39" yMin="-6" xMax="615" yMax="694">
      <contour>
        <pt x="547" y="694" on="1"/>
        <pt x="547" y="88" on="1"/>
        <pt x="547" y="73" on="0"/>
        <pt x="551" y="58" on="0"/>
        <pt x="566" y="50" on="0"/>
        <pt x="593" y="49" on="0"/>
        <pt x="615" y="49" on="1"/>
        <pt x="615" y="0" on="1"/>
        <pt x="430" y="-6" on="1"/>
        <pt x="430" y="44" on="1"/>
        <pt x="406" y="24" on="0"/>
        <pt x="333" y="-6" on="0"/>
        <pt x="285" y="-6" on="1"/>
        <pt x="228" y="-6" on="0"/>
        <pt x="137" y="28" on="0"/>
        <pt x="73" y="88" on="0"/>
        <pt x="39" y="172" on="0"/>
        <pt x="39" y="222" on="1"/>
        <pt x="39" y="270" on="0"/>
        <pt x="74" y="354" on="0"/>
        <pt x="140" y="415" on="0"/>
        <pt x="236" y="450" on="0"/>
        <pt x="297" y="450" on="1"/>
        <pt x="333" y="450" on="0"/>
        <pt x="403" y="429" on="0"/>
        <pt x="436" y="405" on="1"/>
        <pt x="436" y="598" on="1"/>
        <pt x="436" y="613" on="0"/>
        <pt x="432" y="628" on="0"/>
        <pt x="417" y="636" on="0"/>
        <pt x="391" y="637" on="0"/>
        <pt x="368" y="637" on="1"/>
        <pt x="368" y="686" on="1"/>
      </contour>
      <contour>
        <pt x="430" y="349" on="1"/>
        <pt x="407" y="378" on="0"/>
        <pt x="346" y="410" on="0"/>
        <pt x="308" y="410" on="1"/>
        <pt x="295" y="410" on="0"/>
        <pt x="265" y="405" on="0"/>
        <pt x="235" y="393" on="0"/>
        <pt x="209" y="373" on="0"/>
        <pt x="199" y="358" on="1"/>
        <pt x="179" y="330" on="0"/>
        <pt x="172" y="264" on="0"/>
        <pt x="172" y="220" on="1"/>
        <pt x="172" y="195" on="0"/>
        <pt x="176" y="131" on="0"/>
        <pt x="199" y="74" on="0"/>
        <pt x="250" y="34" on="0"/>
        <pt x="296" y="34" on="1"/>
        <pt x="320" y="34" on="0"/>
        <pt x="362" y="48" on="0"/>
        <pt x="396" y="69" on="0"/>
        <pt x="422" y="96" on="0"/>
        <pt x="430" y="109" on="1"/>
      </contour>
    </TTGlyph>
    <TTGlyph name="dieresis" xMin="108" yMin="550" xMax="483" yMax="695">
      <contour>
        <pt x="253" y="622" on="1"/>
        <pt x="253" y="590" on="0"/>
        <pt x="210" y="550" on="0"/>
        <pt x="181" y="550" on="1"/>
        <pt x="149" y="550" on="0"/>
        <pt x="108" y="595" on="0"/>
        <pt x="108" y="622" on="1"/>
        <pt x="108" y="652" on="0"/>
        <pt x="150" y="695" on="0"/>
        <pt x="181" y="695" on="1"/>
        <pt x="208" y="695" on="0"/>
        <pt x="253" y="656" on="0"/>
      </contour>
      <contour>
        <pt x="483" y="622" on="1"/>
        <pt x="483" y="595" on="0"/>
        <pt x="442" y="550" on="0"/>
        <pt x="410" y="550" on="1"/>
        <pt x="383" y="550" on="0"/>
        <pt x="338" y="589" on="0"/>
        <pt x="338" y="623" on="1"/>
        <pt x="338" y="655" on="0"/>
        <pt x="381" y="695" on="0"/>
        <pt x="410" y="695" on="1"/>
        <pt x="441" y="695" on="0"/>
        <pt x="483" y="652" on="0"/>
      </contour>
    </TTGlyph>
    <TTGlyph name="dollar" xMin="66" yMin="-56" xMax="525" yMax="750">
      <contour>
        <pt x="320" y="430" on="1"/>
        <pt x="339" y="426" on="0"/>
        <pt x="376" y="417" on="0"/>
        <pt x="412" y="400" on="0"/>
        <pt x="449" y="375" on="0"/>
        <pt x="468" y="355" on="1"/>
        <pt x="470" y="353" on="0"/>
        <pt x="489" y="331" on="0"/>
        <pt x="509" y="295" on="0"/>
        <pt x="525" y="243" on="0"/>
        <pt x="525" y="211" on="1"/>
        <pt x="525" y="179" on="0"/>
        <pt x="506" y="107" on="0"/>
        <pt x="459" y="45" on="0"/>
        <pt x="380" y="0" on="0"/>
        <pt x="320" y="-5" on="1"/>
        <pt x="320" y="-56" on="1"/>
        <pt x="271" y="-56" on="1"/>
        <pt x="271" y="-5" on="1"/>
        <pt x="213" y="-1" on="0"/>
        <pt x="135" y="36" on="0"/>
        <pt x="87" y="91" on="0"/>
        <pt x="66" y="155" on="0"/>
        <pt x="66" y="186" on="1"/>
        <pt x="66" y="208" on="0"/>
        <pt x="81" y="235" on="0"/>
        <pt x="102" y="250" on="0"/>
        <pt x="124" y="255" on="0"/>
        <pt x="131" y="255" on="1"/>
        <pt x="157" y="255" on="0"/>
        <pt x="196" y="220" on="0"/>
        <pt x="196" y="190" on="1"/>
        <pt x="196" y="180" on="0"/>
        <pt x="190" y="158" on="0"/>
        <pt x="175" y="139" on="0"/>
        <pt x="150" y="126" on="0"/>
        <pt x="131" y="125" on="1"/>
        <pt x="142" y="101" on="0"/>
        <pt x="177" y="71" on="0"/>
        <pt x="216" y="53" on="0"/>
        <pt x="256" y="46" on="0"/>
        <pt x="271" y="44" on="1"/>
        <pt x="271" y="292" on="1"/>
        <pt x="255" y="295" on="0"/>
        <pt x="221" y="303" on="0"/>
        <pt x="185" y="317" on="0"/>
        <pt x="147" y="339" on="0"/>
        <pt x="128" y="356" on="1"/>
        <pt x="123" y="361" on="0"/>
        <pt x="103" y="384" on="0"/>
        <pt x="82" y="420" on="0"/>
        <pt x="66" y="467" on="0"/>
        <pt x="66" y="497" on="1"/>
        <pt x="66" y="534" on="0"/>
        <pt x="90" y="603" on="0"/>
        <pt x="141" y="659" on="0"/>
        <pt x="218" y="695" on="0"/>
        <pt x="271" y="699" on="1"/>
        <pt x="271" y="750" on="1"/>
        <pt x="320" y="750" on="1"/>
        <pt x="320" y="699" on="1"/>
        <pt x="374" y="696" on="0"/>
        <pt x="451" y="665" on="0"/>
        <pt x="501" y="616" on="0"/>
        <pt x="525" y="555" on="0"/>
        <pt x="525" y="522" on="1"/>
        <pt x="525" y="499" on="0"/>
        <pt x="508" y="471" on="0"/>
        <pt x="486" y="457" on="0"/>
        <pt x="465" y="453" on="0"/>
        <pt x="460" y="453" on="1"/>
        <pt x="437" y="453" on="0"/>
        <pt x="395" y="486" on="0"/>
        <pt x="395" y="518" on="1"/>
        <pt x="395" y="539" on="0"/>
        <pt x="422" y="580" on="0"/>
        <pt x="457" y="583" on="1"/>
        <pt x="444" y="606" on="0"/>
        <pt x="404" y="632" on="0"/>
        <pt x="363" y="645" on="0"/>
        <pt x="328" y="649" on="0"/>
        <pt x="320" y="650" on="1"/>
      </contour>
      <contour>
        <pt x="271" y="650" on="1"/>
        <pt x="235" y="647" on="0"/>
        <pt x="188" y="624" on="0"/>
        <pt x="160" y="594" on="0"/>
        <pt x="149" y="561" on="0"/>
        <pt x="149" y="546" on="1"/>
        <pt x="149" y="532" on="0"/>
        <pt x="160" y="500" on="0"/>
        <pt x="188" y="471" on="0"/>
        <pt x="235" y="447" on="0"/>
        <pt x="271" y="440" on="1"/>
      </contour>
      <contour>
        <pt x="320" y="44" on="1"/>
        <pt x="383" y="51" on="0"/>
        <pt x="442" y="120" on="0"/>
        <pt x="442" y="162" on="1"/>
        <pt x="442" y="209" on="0"/>
        <pt x="373" y="273" on="0"/>
        <pt x="320" y="282" on="1"/>
      </contour>
    </TTGlyph>
    <TTGlyph name="dotaccent" xMin="86" yMin="538" xMax="242" yMax="695">
      <contour>
        <pt x="242" y="616" on="1"/>
        <pt x="242" y="583" on="0"/>
        <pt x="196" y="538" on="0"/>
        <pt x="164" y="538" on="1"/>
        <pt x="134" y="538" on="0"/>
        <pt x="86" y="582" on="0"/>
        <pt x="86" y="617" on="1"/>
        <pt x="86" y="650" on="0"/>
        <pt x="132" y="695" on="0"/>
        <pt x="164" y="695" on="1"/>
        <pt x="194" y="695" on="0"/>
        <pt x="242" y="651" on="0"/>
      </contour>
    </TTGlyph>
    <TTGlyph name="dotlessi" xMin="52" yMin="0" xMax="292" yMax="450">
      <contour>
        <pt x="231" y="49" on="1"/>
        <pt x="292" y="49" on="1"/>
        <pt x="292" y="0" on="1"/>
        <pt x="271" y="1" on="0"/>
        <pt x="243" y="2" on="0"/>
        <pt x="218" y="3" on="0"/>
        <pt x="192" y="3" on="0"/>
        <pt x="174" y="3" on="1"/>
        <pt x="158" y="3" on="0"/>
        <pt x="135" y="3" on="0"/>
        <pt x="110" y="2" on="0"/>
        <pt x="77" y="1" on="0"/>
        <pt x="52" y="0" on="1"/>
        <pt x="52" y="49" on="1"/>
        <pt x="120" y="49" on="1"/>
        <pt x="120" y="354" on="1"/>
        <pt x="120" y="369" on="0"/>
        <pt x="116" y="384" on="0"/>
        <pt x="103" y="392" on="0"/>
        <pt x="77" y="393" on="0"/>
        <pt x="55" y="393" on="1"/>
        <pt x="55" y="442" on="1"/>
        <pt x="231" y="450" on="1"/>
      </contour>
    </TTGlyph>
    <TTGlyph name="e" xMin="33" yMin="-6" xMax="509" yMax="453">
      <contour>
        <pt x="166" y="215" on="1"/>
        <pt x="166" y="197" on="0"/>
        <pt x="171" y="136" on="0"/>
        <pt x="198" y="79" on="0"/>
        <pt x="257" y="37" on="0"/>
        <pt x="310" y="37" on="1"/>
        <pt x="357" y="37" on="0"/>
        <pt x="440" y="77" on="0"/>
        <pt x="457" y="116" on="1"/>
        <pt x="462" y="127" on="0"/>
        <pt x="469" y="136" on="0"/>
        <pt x="483" y="136" on="1"/>
        <pt x="488" y="136" on="0"/>
        <pt x="509" y="131" on="0"/>
        <pt x="509" y="116" on="1"/>
        <pt x="509" y="110" on="0"/>
        <pt x="491" y="70" on="0"/>
        <pt x="444" y="28" on="0"/>
        <pt x="364" y="-6" on="0"/>
        <pt x="302" y="-6" on="1"/>
        <pt x="238" y="-6" on="0"/>
        <pt x="138" y="29" on="0"/>
        <pt x="69" y="91" on="0"/>
        <pt x="33" y="176" on="0"/>
        <pt x="33" y="225" on="1"/>
        <pt x="33" y="270" on="0"/>
        <pt x="65" y="353" on="0"/>
        <pt x="128" y="416" on="0"/>
        <pt x="224" y="453" on="0"/>
        <pt x="288" y="453" on="1"/>
        <pt x="389" y="453" on="0"/>
        <pt x="509" y="348" on="0"/>
        <pt x="509" y="243" on="1"/>
        <pt x="509" y="222" on="0"/>
        <pt x="492" y="215" on="0"/>
        <pt x="476" y="215" on="1"/>
      </contour>
      <contour>
        <pt x="411" y="251" on="1"/>
        <pt x="410" y="266" on="0"/>
        <pt x="405" y="320" on="0"/>
        <pt x="381" y="374" on="0"/>
        <pt x="332" y="413" on="0"/>
        <pt x="288" y="413" on="1"/>
        <pt x="245" y="413" on="0"/>
        <pt x="197" y="375" on="0"/>
        <pt x="173" y="323" on="0"/>
        <pt x="167" y="268" on="0"/>
        <pt x="166" y="251" on="1"/>
      </contour>
    </TTGlyph>
    <TTGlyph name="eight" xMin="49" yMin="-12" xMax="542" yMax="656">
      <contour>
        <pt x="407" y="370" on="1"/>
        <pt x="427" y="359" on="0"/>
        <pt x="474" y="329" on="0"/>
        <pt x="515" y="285" on="0"/>
        <pt x="542" y="227" on="0"/>
        <pt x="542" y="187" on="1"/>
        <pt x="542" y="144" on="0"/>
        <pt x="510" y="71" on="0"/>
        <pt x="447" y="18" on="0"/>
        <pt x="355" y="-12" on="0"/>
        <pt x="294" y="-12" on="1"/>
        <pt x="244" y="-12" on="0"/>
        <pt x="155" y="7" on="0"/>
        <pt x="88" y="49" on="0"/>
        <pt x="49" y="115" on="0"/>
        <pt x="49" y="161" on="1"/>
        <pt x="49" y="199" on="0"/>
        <pt x="74" y="253" on="0"/>
        <pt x="112" y="292" on="0"/>
        <pt x="157" y="320" on="0"/>
        <pt x="177" y="330" on="1"/>
        <pt x="127" y="358" on="0"/>
        <pt x="82" y="438" on="0"/>
        <pt x="82" y="479" on="1"/>
        <pt x="82" y="516" on="0"/>
        <pt x="109" y="580" on="0"/>
        <pt x="163" y="628" on="0"/>
        <pt x="244" y="656" on="0"/>
        <pt x="298" y="656" on="1"/>
        <pt x="346" y="656" on="0"/>
        <pt x="423" y="637" on="0"/>
        <pt x="479" y="600" on="0"/>
        <pt x="509" y="545" on="0"/>
        <pt x="509" y="509" on="1"/>
        <pt x="509" y="467" on="0"/>
        <pt x="461" y="396" on="0"/>
      </contour>
      <contour>
        <pt x="358" y="397" on="1"/>
        <pt x="389" y="414" on="0"/>
        <pt x="431" y="469" on="0"/>
        <pt x="431" y="508" on="1"/>
        <pt x="431" y="558" on="0"/>
        <pt x="360" y="616" on="0"/>
        <pt x="293" y="616" on="1"/>
        <pt x="272" y="616" on="0"/>
        <pt x="226" y="611" on="0"/>
        <pt x="186" y="594" on="0"/>
        <pt x="160" y="564" on="0"/>
        <pt x="160" y="539" on="1"/>
        <pt x="160" y="526" on="0"/>
        <pt x="172" y="505" on="0"/>
        <pt x="187" y="490" on="0"/>
        <pt x="201" y="481" on="0"/>
        <pt x="203" y="480" on="1"/>
      </contour>
      <contour>
        <pt x="229" y="301" on="1"/>
        <pt x="176" y="270" on="0"/>
        <pt x="139" y="197" on="0"/>
        <pt x="139" y="162" on="1"/>
        <pt x="139" y="129" on="0"/>
        <pt x="163" y="80" on="0"/>
        <pt x="206" y="49" on="0"/>
        <pt x="264" y="33" on="0"/>
        <pt x="297" y="33" on="1"/>
        <pt x="311" y="33" on="0"/>
        <pt x="363" y="38" on="0"/>
        <pt x="414" y="57" on="0"/>
        <pt x="452" y="97" on="0"/>
        <pt x="452" y="132" on="1"/>
        <pt x="452" y="150" on="0"/>
        <pt x="439" y="176" on="0"/>
        <pt x="415" y="198" on="0"/>
        <pt x="382" y="218" on="0"/>
        <pt x="362" y="229" on="1"/>
        <pt x="355" y="233" on="0"/>
        <pt x="322" y="251" on="0"/>
        <pt x="282" y="273" on="0"/>
        <pt x="242" y="294" on="0"/>
      </contour>
    </TTGlyph>
    <TTGlyph name="emdash" xMin="0" yMin="254" xMax="1182" yMax="294">
      <contour>
        <pt x="0" y="254" on="1"/>
        <pt x="0" y="294" on="1"/>
        <pt x="1182" y="294" on="1"/>
        <pt x="1182" y="254" on="1"/>
      </contour>
    </TTGlyph>
    <TTGlyph name="endash" xMin="0" yMin="254" xMax="591" yMax="294">
      <contour>
        <pt x="0" y="254" on="1"/>
        <pt x="0" y="294" on="1"/>
        <pt x="591" y="294" on="1"/>
        <pt x="591" y="254" on="1"/>
      </contour>
    </TTGlyph>
    <TTGlyph name="equal" xMin="66" yMin="102" xMax="853" yMax="398">
      <contour>
        <pt x="111" y="334" on="1"/>
        <pt x="106" y="334" on="0"/>
        <pt x="91" y="335" on="0"/>
        <pt x="76" y="341" on="0"/>
        <pt x="66" y="354" on="0"/>
        <pt x="66" y="366" on="1"/>
        <pt x="66" y="378" on="0"/>
        <pt x="76" y="391" on="0"/>
        <pt x="90" y="397" on="0"/>
        <pt x="105" y="398" on="0"/>
        <pt x="110" y="398" on="1"/>
        <pt x="809" y="398" on="1"/>
        <pt x="814" y="398" on="0"/>
        <pt x="829" y="397" on="0"/>
        <pt x="843" y="391" on="0"/>
        <pt x="853" y="378" on="0"/>
        <pt x="853" y="366" on="1"/>
        <pt x="853" y="354" on="0"/>
        <pt x="843" y="341" on="0"/>
        <pt x="829" y="335" on="0"/>
        <pt x="813" y="334" on="0"/>
        <pt x="808" y="334" on="1"/>
      </contour>
      <contour>
        <pt x="110" y="102" on="1"/>
        <pt x="105" y="102" on="0"/>
        <pt x="90" y="103" on="0"/>
        <pt x="76" y="109" on="0"/>
        <pt x="66" y="122" on="0"/>
        <pt x="66" y="134" on="1"/>
        <pt x="66" y="146" on="0"/>
        <pt x="76" y="159" on="0"/>
        <pt x="91" y="165" on="0"/>
        <pt x="106" y="166" on="0"/>
        <pt x="111" y="166" on="1"/>
        <pt x="808" y="166" on="1"/>
        <pt x="813" y="166" on="0"/>
        <pt x="828" y="165" on="0"/>
        <pt x="843" y="159" on="0"/>
        <pt x="853" y="146" on="0"/>
        <pt x="853" y="134" on="1"/>
        <pt x="853" y="122" on="0"/>
        <pt x="843" y="109" on="0"/>
        <pt x="829" y="103" on="0"/>
        <pt x="814" y="102" on="0"/>
        <pt x="809" y="102" on="1"/>
      </contour>
    </TTGlyph>
    <TTGlyph name="exclam" xMin="101" yMin="0" xMax="258" yMax="706">
      <contour>
        <pt x="206" y="251" on="1"/>
        <pt x="204" y="236" on="0"/>
        <pt x="197" y="226" on="0"/>
        <pt x="179" y="226" on="1"/>
        <pt x="165" y="226" on="0"/>
        <pt x="154" y="234" on="0"/>
        <pt x="152" y="251" on="1"/>
        <pt x="104" y="607" on="1"/>
        <pt x="102" y="623" on="0"/>
        <pt x="101" y="631" on="0"/>
        <pt x="101" y="634" on="1"/>
        <pt x="101" y="651" on="0"/>
        <pt x="115" y="678" on="0"/>
        <pt x="137" y="696" on="0"/>
        <pt x="165" y="706" on="0"/>
        <pt x="180" y="706" on="1"/>
        <pt x="193" y="706" on="0"/>
        <pt x="221" y="697" on="0"/>
        <pt x="243" y="679" on="0"/>
        <pt x="258" y="652" on="0"/>
        <pt x="258" y="634" on="1"/>
        <pt x="258" y="631" on="0"/>
        <pt x="257" y="623" on="0"/>
        <pt x="255" y="607" on="1"/>
      </contour>
      <contour>
        <pt x="258" y="78" on="1"/>
        <pt x="258" y="47" on="0"/>
        <pt x="213" y="0" on="0"/>
        <pt x="179" y="0" on="1"/>
        <pt x="148" y="0" on="0"/>
        <pt x="101" y="44" on="0"/>
        <pt x="101" y="79" on="1"/>
        <pt x="101" y="110" on="0"/>
        <pt x="146" y="157" on="0"/>
        <pt x="180" y="157" on="1"/>
        <pt x="211" y="157" on="0"/>
        <pt x="258" y="113" on="0"/>
      </contour>
    </TTGlyph>
    <TTGlyph name="exclamdown" xMin="101" yMin="-206" xMax="258" yMax="500">
      <contour>
        <pt x="258" y="421" on="1"/>
        <pt x="258" y="390" on="0"/>
        <pt x="213" y="343" on="0"/>
        <pt x="179" y="343" on="1"/>
        <pt x="148" y="343" on="0"/>
        <pt x="101" y="387" on="0"/>
        <pt x="101" y="422" on="1"/>
        <pt x="101" y="453" on="0"/>
        <pt x="146" y="500" on="0"/>
        <pt x="180" y="500" on="1"/>
        <pt x="211" y="500" on="0"/>
        <pt x="258" y="456" on="0"/>
      </contour>
      <contour>
        <pt x="153" y="249" on="1"/>
        <pt x="155" y="264" on="0"/>
        <pt x="162" y="274" on="0"/>
        <pt x="180" y="274" on="1"/>
        <pt x="194" y="274" on="0"/>
        <pt x="205" y="266" on="0"/>
        <pt x="207" y="249" on="1"/>
        <pt x="255" y="-107" on="1"/>
        <pt x="257" y="-123" on="0"/>
        <pt x="258" y="-131" on="0"/>
        <pt x="258" y="-134" on="1"/>
        <pt x="258" y="-151" on="0"/>
        <pt x="244" y="-178" on="0"/>
        <pt x="222" y="-196" on="0"/>
        <pt x="194" y="-206" on="0"/>
        <pt x="179" y="-206" on="1"/>
        <pt x="166" y="-206" on="0"/>
        <pt x="138" y="-197" on="0"/>
        <pt x="116" y="-179" on="0"/>
        <pt x="101" y="-152" on="0"/>
        <pt x="101" y="-134" on="1"/>
        <pt x="101" y="-131" on="0"/>
        <pt x="102" y="-123" on="0"/>
        <pt x="104" y="-107" on="1"/>
      </contour>
    </TTGlyph>
    <TTGlyph name="f" xMin="44" yMin="0" xMax="451" yMax="700">
      <contour>
        <pt x="232" y="49" on="1"/>
        <pt x="317" y="49" on="1"/>
        <pt x="317" y="0" on="1"/>
        <pt x="277" y="2" on="0"/>
        <pt x="200" y="3" on="0"/>
        <pt x="181" y="3" on="1"/>
        <pt x="163" y="3" on="0"/>
        <pt x="139" y="3" on="0"/>
        <pt x="114" y="2" on="0"/>
        <pt x="81" y="1" on="0"/>
        <pt x="53" y="0" on="1"/>
        <pt x="53" y="49" on="1"/>
        <pt x="121" y="49" on="1"/>
        <pt x="121" y="395" on="1"/>
        <pt x="44" y="395" on="1"/>
        <pt x="44" y="444" on="1"/>
        <pt x="121" y="444" on="1"/>
        <pt x="121" y="543" on="1"/>
        <pt x="121" y="585" on="0"/>
        <pt x="158" y="645" on="0"/>
        <pt x="218" y="682" on="0"/>
        <pt x="295" y="700" on="0"/>
        <pt x="334" y="700" on="1"/>
        <pt x="363" y="700" on="0"/>
        <pt x="407" y="685" on="0"/>
        <pt x="436" y="660" on="0"/>
        <pt x="451" y="628" on="0"/>
        <pt x="451" y="611" on="1"/>
        <pt x="451" y="581" on="0"/>
        <pt x="412" y="547" on="0"/>
        <pt x="387" y="547" on="1"/>
        <pt x="365" y="547" on="0"/>
        <pt x="324" y="579" on="0"/>
        <pt x="324" y="611" on="1"/>
        <pt x="324" y="635" on="0"/>
        <pt x="340" y="654" on="1"/>
        <pt x="342" y="656" on="0"/>
        <pt x="342" y="658" on="1"/>
        <pt x="342" y="660" on="0"/>
        <pt x="331" y="660" on="0"/>
        <pt x="329" y="660" on="1"/>
        <pt x="320" y="660" on="0"/>
        <pt x="285" y="654" on="0"/>
        <pt x="251" y="631" on="0"/>
        <pt x="226" y="584" on="0"/>
        <pt x="226" y="543" on="1"/>
        <pt x="226" y="444" on="1"/>
        <pt x="351" y="444" on="1"/>
        <pt x="351" y="395" on="1"/>
        <pt x="232" y="395" on="1"/>
      </contour>
    </TTGlyph>
    <TTGlyph name="f_f" xMin="32" yMin="0" xMax="767" yMax="700">
      <contour>
        <pt x="547" y="49" on="1"/>
        <pt x="632" y="49" on="1"/>
        <pt x="632" y="0" on="1"/>
        <pt x="592" y="2" on="0"/>
        <pt x="515" y="3" on="0"/>
        <pt x="496" y="3" on="1"/>
        <pt x="478" y="3" on="0"/>
        <pt x="454" y="3" on="0"/>
        <pt x="429" y="2" on="0"/>
        <pt x="396" y="1" on="0"/>
        <pt x="368" y="0" on="1"/>
        <pt x="368" y="49" on="1"/>
        <pt x="436" y="49" on="1"/>
        <pt x="436" y="395" on="1"/>
        <pt x="220" y="395" on="1"/>
        <pt x="220" y="49" on="1"/>
        <pt x="288" y="49" on="1"/>
        <pt x="288" y="0" on="1"/>
        <pt x="268" y="1" on="0"/>
        <pt x="236" y="2" on="0"/>
        <pt x="208" y="3" on="0"/>
        <pt x="181" y="3" on="0"/>
        <pt x="164" y="3" on="1"/>
        <pt x="148" y="3" on="0"/>
        <pt x="125" y="3" on="0"/>
        <pt x="99" y="2" on="0"/>
        <pt x="67" y="1" on="0"/>
        <pt x="41" y="0" on="1"/>
        <pt x="41" y="49" on="1"/>
        <pt x="109" y="49" on="1"/>
        <pt x="109" y="395" on="1"/>
        <pt x="32" y="395" on="1"/>
        <pt x="32" y="444" on="1"/>
        <pt x="109" y="444" on="1"/>
        <pt x="109" y="542" on="1"/>
        <pt x="109" y="586" on="0"/>
        <pt x="158" y="647" on="0"/>
        <pt x="237" y="684" on="0"/>
        <pt x="335" y="700" on="0"/>
        <pt x="383" y="700" on="1"/>
        <pt x="391" y="700" on="0"/>
        <pt x="419" y="699" on="0"/>
        <pt x="453" y="692" on="0"/>
        <pt x="489" y="678" on="0"/>
        <pt x="505" y="665" on="1"/>
        <pt x="537" y="684" on="0"/>
        <pt x="613" y="700" on="0"/>
        <pt x="650" y="700" on="1"/>
        <pt x="708" y="700" on="0"/>
        <pt x="767" y="645" on="0"/>
        <pt x="767" y="611" on="1"/>
        <pt x="767" y="581" on="0"/>
        <pt x="728" y="547" on="0"/>
        <pt x="703" y="547" on="1"/>
        <pt x="681" y="547" on="0"/>
        <pt x="640" y="579" on="0"/>
        <pt x="640" y="611" on="1"/>
        <pt x="640" y="635" on="0"/>
        <pt x="656" y="654" on="1"/>
        <pt x="658" y="656" on="0"/>
        <pt x="658" y="658" on="1"/>
        <pt x="658" y="660" on="0"/>
        <pt x="647" y="660" on="0"/>
        <pt x="645" y="660" on="1"/>
        <pt x="638" y="660" on="0"/>
        <pt x="603" y="655" on="0"/>
        <pt x="568" y="633" on="0"/>
        <pt x="541" y="585" on="0"/>
        <pt x="541" y="543" on="1"/>
        <pt x="541" y="444" on="1"/>
        <pt x="667" y="444" on="1"/>
        <pt x="667" y="395" on="1"/>
        <pt x="547" y="395" on="1"/>
      </contour>
      <contour>
        <pt x="436" y="444" on="1"/>
        <pt x="436" y="528" on="1"/>
        <pt x="436" y="540" on="0"/>
        <pt x="435" y="547" on="0"/>
        <pt x="431" y="550" on="1"/>
        <pt x="424" y="555" on="0"/>
        <pt x="410" y="579" on="0"/>
        <pt x="410" y="598" on="1"/>
        <pt x="410" y="614" on="0"/>
        <pt x="423" y="642" on="0"/>
        <pt x="436" y="651" on="1"/>
        <pt x="417" y="657" on="0"/>
        <pt x="389" y="660" on="0"/>
        <pt x="375" y="660" on="1"/>
        <pt x="345" y="660" on="0"/>
        <pt x="288" y="648" on="0"/>
        <pt x="242" y="621" on="0"/>
        <pt x="214" y="575" on="0"/>
        <pt x="214" y="540" on="1"/>
        <pt x="214" y="444" on="1"/>
      </contour>
    </TTGlyph>
    <TTGlyph name="f_f_i" xMin="32" yMin="0" xMax="944" yMax="700">
      <contour>
        <pt x="876" y="454" on="1"/>
        <pt x="876" y="49" on="1"/>
        <pt x="944" y="49" on="1"/>
        <pt x="944" y="0" on="1"/>
        <pt x="924" y="1" on="0"/>
        <pt x="892" y="2" on="0"/>
        <pt x="864" y="3" on="0"/>
        <pt x="837" y="3" on="0"/>
        <pt x="820" y="3" on="1"/>
        <pt x="804" y="3" on="0"/>
        <pt x="781" y="3" on="0"/>
        <pt x="755" y="2" on="0"/>
        <pt x="723" y="1" on="0"/>
        <pt x="697" y="0" on="1"/>
        <pt x="697" y="49" on="1"/>
        <pt x="765" y="49" on="1"/>
        <pt x="765" y="360" on="1"/>
        <pt x="765" y="386" on="0"/>
        <pt x="754" y="395" on="0"/>
        <pt x="737" y="395" on="1"/>
        <pt x="548" y="395" on="1"/>
        <pt x="548" y="49" on="1"/>
        <pt x="616" y="49" on="1"/>
        <pt x="616" y="0" on="1"/>
        <pt x="596" y="1" on="0"/>
        <pt x="564" y="2" on="0"/>
        <pt x="536" y="3" on="0"/>
        <pt x="509" y="3" on="0"/>
        <pt x="492" y="3" on="1"/>
        <pt x="476" y="3" on="0"/>
        <pt x="453" y="3" on="0"/>
        <pt x="427" y="2" on="0"/>
        <pt x="395" y="1" on="0"/>
        <pt x="369" y="0" on="1"/>
        <pt x="369" y="49" on="1"/>
        <pt x="437" y="49" on="1"/>
        <pt x="437" y="395" on="1"/>
        <pt x="220" y="395" on="1"/>
        <pt x="220" y="49" on="1"/>
        <pt x="288" y="49" on="1"/>
        <pt x="288" y="0" on="1"/>
        <pt x="268" y="1" on="0"/>
        <pt x="236" y="2" on="0"/>
        <pt x="208" y="3" on="0"/>
        <pt x="181" y="3" on="0"/>
        <pt x="164" y="3" on="1"/>
        <pt x="148" y="3" on="0"/>
        <pt x="125" y="3" on="0"/>
        <pt x="99" y="2" on="0"/>
        <pt x="67" y="1" on="0"/>
        <pt x="41" y="0" on="1"/>
        <pt x="41" y="49" on="1"/>
        <pt x="109" y="49" on="1"/>
        <pt x="109" y="395" on="1"/>
        <pt x="32" y="395" on="1"/>
        <pt x="32" y="444" on="1"/>
        <pt x="109" y="444" on="1"/>
        <pt x="109" y="542" on="1"/>
        <pt x="109" y="587" on="0"/>
        <pt x="160" y="648" on="0"/>
        <pt x="240" y="685" on="0"/>
        <pt x="336" y="700" on="0"/>
        <pt x="382" y="700" on="1"/>
        <pt x="391" y="700" on="0"/>
        <pt x="419" y="699" on="0"/>
        <pt x="453" y="690" on="0"/>
        <pt x="490" y="672" on="0"/>
        <pt x="507" y="655" on="1"/>
        <pt x="518" y="661" on="0"/>
        <pt x="551" y="676" on="0"/>
        <pt x="601" y="690" on="0"/>
        <pt x="669" y="700" on="0"/>
        <pt x="714" y="700" on="1"/>
        <pt x="756" y="700" on="0"/>
        <pt x="816" y="678" on="0"/>
        <pt x="853" y="644" on="0"/>
        <pt x="871" y="602" on="0"/>
        <pt x="871" y="582" on="1"/>
        <pt x="871" y="550" on="0"/>
        <pt x="832" y="514" on="0"/>
        <pt x="804" y="514" on="1"/>
        <pt x="775" y="514" on="0"/>
        <pt x="737" y="552" on="0"/>
        <pt x="737" y="581" on="1"/>
        <pt x="737" y="608" on="0"/>
        <pt x="763" y="638" on="0"/>
        <pt x="777" y="644" on="1"/>
        <pt x="754" y="656" on="0"/>
        <pt x="716" y="660" on="0"/>
        <pt x="706" y="660" on="1"/>
        <pt x="674" y="660" on="0"/>
        <pt x="615" y="647" on="0"/>
        <pt x="569" y="619" on="0"/>
        <pt x="542" y="573" on="0"/>
        <pt x="542" y="540" on="1"/>
        <pt x="542" y="444" on="1"/>
        <pt x="697" y="444" on="1"/>
        <pt x="697" y="449" on="1"/>
      </contour>
      <contour>
        <pt x="437" y="444" on="1"/>
        <pt x="437" y="522" on="1"/>
        <pt x="422" y="530" on="0"/>
        <pt x="403" y="558" on="0"/>
        <pt x="403" y="581" on="1"/>
        <pt x="403" y="611" on="0"/>
        <pt x="433" y="640" on="0"/>
        <pt x="444" y="644" on="1"/>
        <pt x="422" y="656" on="0"/>
        <pt x="383" y="660" on="0"/>
        <pt x="374" y="660" on="1"/>
        <pt x="344" y="660" on="0"/>
        <pt x="286" y="648" on="0"/>
        <pt x="241" y="619" on="0"/>
        <pt x="214" y="573" on="0"/>
        <pt x="214" y="540" on="1"/>
        <pt x="214" y="444" on="1"/>
      </contour>
    </TTGlyph>
    <TTGlyph name="f_f_l" xMin="32" yMin="0" xMax="944" yMax="700">
      <contour>
        <pt x="876" y="49" on="1"/>
        <pt x="944" y="49" on="1"/>
        <pt x="944" y="0" on="1"/>
        <pt x="924" y="1" on="0"/>
        <pt x="892" y="2" on="0"/>
        <pt x="864" y="3" on="0"/>
        <pt x="837" y="3" on="0"/>
        <pt x="820" y="3" on="1"/>
        <pt x="804" y="3" on="0"/>
        <pt x="781" y="3" on="0"/>
        <pt x="755" y="2" on="0"/>
        <pt x="723" y="1" on="0"/>
        <pt x="697" y="0" on="1"/>
        <pt x="697" y="49" on="1"/>
        <pt x="765" y="49" on="1"/>
        <pt x="765" y="395" on="1"/>
        <pt x="548" y="395" on="1"/>
        <pt x="548" y="49" on="1"/>
        <pt x="616" y="49" on="1"/>
        <pt x="616" y="0" on="1"/>
        <pt x="596" y="1" on="0"/>
        <pt x="564" y="2" on="0"/>
        <pt x="536" y="3" on="0"/>
        <pt x="509" y="3" on="0"/>
        <pt x="492" y="3" on="1"/>
        <pt x="476" y="3" on="0"/>
        <pt x="453" y="3" on="0"/>
        <pt x="427" y="2" on="0"/>
        <pt x="395" y="1" on="0"/>
        <pt x="369" y="0" on="1"/>
        <pt x="369" y="49" on="1"/>
        <pt x="437" y="49" on="1"/>
        <pt x="437" y="395" on="1"/>
        <pt x="220" y="395" on="1"/>
        <pt x="220" y="49" on="1"/>
        <pt x="288" y="49" on="1"/>
        <pt x="288" y="0" on="1"/>
        <pt x="268" y="1" on="0"/>
        <pt x="236" y="2" on="0"/>
        <pt x="208" y="3" on="0"/>
        <pt x="181" y="3" on="0"/>
        <pt x="164" y="3" on="1"/>
        <pt x="148" y="3" on="0"/>
        <pt x="125" y="3" on="0"/>
        <pt x="99" y="2" on="0"/>
        <pt x="67" y="1" on="0"/>
        <pt x="41" y="0" on="1"/>
        <pt x="41" y="49" on="1"/>
        <pt x="109" y="49" on="1"/>
        <pt x="109" y="395" on="1"/>
        <pt x="32" y="395" on="1"/>
        <pt x="32" y="444" on="1"/>
        <pt x="109" y="444" on="1"/>
        <pt x="109" y="542" on="1"/>
        <pt x="109" y="587" on="0"/>
        <pt x="159" y="647" on="0"/>
        <pt x="238" y="684" on="0"/>
        <pt x="336" y="700" on="0"/>
        <pt x="383" y="700" on="1"/>
        <pt x="391" y="700" on="0"/>
        <pt x="421" y="699" on="0"/>
        <pt x="458" y="691" on="0"/>
        <pt x="497" y="674" on="0"/>
        <pt x="513" y="659" on="1"/>
        <pt x="550" y="678" on="0"/>
        <pt x="644" y="700" on="0"/>
        <pt x="712" y="700" on="1"/>
        <pt x="727" y="700" on="0"/>
        <pt x="766" y="698" on="0"/>
        <pt x="792" y="691" on="1"/>
        <pt x="797" y="689" on="0"/>
        <pt x="801" y="689" on="0"/>
        <pt x="806" y="689" on="1"/>
        <pt x="811" y="689" on="0"/>
        <pt x="814" y="690" on="1"/>
        <pt x="816" y="690" on="0"/>
        <pt x="833" y="691" on="0"/>
        <pt x="854" y="692" on="0"/>
        <pt x="873" y="694" on="0"/>
        <pt x="876" y="694" on="1"/>
      </contour>
      <contour>
        <pt x="437" y="444" on="1"/>
        <pt x="437" y="546" on="1"/>
        <pt x="411" y="563" on="0"/>
        <pt x="411" y="598" on="1"/>
        <pt x="411" y="618" on="0"/>
        <pt x="426" y="643" on="0"/>
        <pt x="437" y="650" on="1"/>
        <pt x="418" y="658" on="0"/>
        <pt x="387" y="660" on="0"/>
        <pt x="376" y="660" on="1"/>
        <pt x="346" y="660" on="0"/>
        <pt x="288" y="648" on="0"/>
        <pt x="242" y="621" on="0"/>
        <pt x="214" y="575" on="0"/>
        <pt x="214" y="540" on="1"/>
        <pt x="214" y="444" on="1"/>
      </contour>
      <contour>
        <pt x="765" y="559" on="1"/>
        <pt x="754" y="566" on="0"/>
        <pt x="739" y="591" on="0"/>
        <pt x="739" y="611" on="1"/>
        <pt x="739" y="618" on="0"/>
        <pt x="742" y="638" on="0"/>
        <pt x="753" y="652" on="1"/>
        <pt x="754" y="653" on="0"/>
        <pt x="754" y="655" on="1"/>
        <pt x="754" y="657" on="0"/>
        <pt x="740" y="658" on="0"/>
        <pt x="723" y="660" on="0"/>
        <pt x="708" y="660" on="0"/>
        <pt x="706" y="660" on="1"/>
        <pt x="676" y="660" on="0"/>
        <pt x="618" y="649" on="0"/>
        <pt x="571" y="621" on="0"/>
        <pt x="542" y="575" on="0"/>
        <pt x="542" y="540" on="1"/>
        <pt x="542" y="444" on="1"/>
        <pt x="765" y="444" on="1"/>
      </contour>
    </TTGlyph>
    <TTGlyph name="fi" xMin="32" yMin="0" xMax="615" yMax="700">
      <contour>
        <pt x="547" y="454" on="1"/>
        <pt x="547" y="49" on="1"/>
        <pt x="615" y="49" on="1"/>
        <pt x="615" y="0" on="1"/>
        <pt x="595" y="1" on="0"/>
        <pt x="563" y="2" on="0"/>
        <pt x="535" y="3" on="0"/>
        <pt x="508" y="3" on="0"/>
        <pt x="491" y="3" on="1"/>
        <pt x="475" y="3" on="0"/>
        <pt x="452" y="3" on="0"/>
        <pt x="426" y="2" on="0"/>
        <pt x="394" y="1" on="0"/>
        <pt x="368" y="0" on="1"/>
        <pt x="368" y="49" on="1"/>
        <pt x="436" y="49" on="1"/>
        <pt x="436" y="360" on="1"/>
        <pt x="436" y="386" on="0"/>
        <pt x="425" y="395" on="0"/>
        <pt x="408" y="395" on="1"/>
        <pt x="220" y="395" on="1"/>
        <pt x="220" y="49" on="1"/>
        <pt x="288" y="49" on="1"/>
        <pt x="288" y="0" on="1"/>
        <pt x="268" y="1" on="0"/>
        <pt x="236" y="2" on="0"/>
        <pt x="208" y="3" on="0"/>
        <pt x="181" y="3" on="0"/>
        <pt x="164" y="3" on="1"/>
        <pt x="148" y="3" on="0"/>
        <pt x="125" y="3" on="0"/>
        <pt x="99" y="2" on="0"/>
        <pt x="67" y="1" on="0"/>
        <pt x="41" y="0" on="1"/>
        <pt x="41" y="49" on="1"/>
        <pt x="109" y="49" on="1"/>
        <pt x="109" y="395" on="1"/>
        <pt x="32" y="395" on="1"/>
        <pt x="32" y="444" on="1"/>
        <pt x="109" y="444" on="1"/>
        <pt x="109" y="542" on="1"/>
        <pt x="109" y="586" on="0"/>
        <pt x="159" y="647" on="0"/>
        <pt x="238" y="684" on="0"/>
        <pt x="336" y="700" on="0"/>
        <pt x="385" y="700" on="1"/>
        <pt x="427" y="700" on="0"/>
        <pt x="487" y="678" on="0"/>
        <pt x="525" y="643" on="0"/>
        <pt x="542" y="602" on="0"/>
        <pt x="542" y="582" on="1"/>
        <pt x="542" y="550" on="0"/>
        <pt x="503" y="514" on="0"/>
        <pt x="475" y="514" on="1"/>
        <pt x="446" y="514" on="0"/>
        <pt x="408" y="552" on="0"/>
        <pt x="408" y="581" on="1"/>
        <pt x="408" y="608" on="0"/>
        <pt x="434" y="638" on="0"/>
        <pt x="448" y="644" on="1"/>
        <pt x="426" y="656" on="0"/>
        <pt x="385" y="660" on="0"/>
        <pt x="377" y="660" on="1"/>
        <pt x="345" y="660" on="0"/>
        <pt x="286" y="647" on="0"/>
        <pt x="241" y="619" on="0"/>
        <pt x="214" y="573" on="0"/>
        <pt x="214" y="540" on="1"/>
        <pt x="214" y="444" on="1"/>
        <pt x="368" y="444" on="1"/>
        <pt x="368" y="449" on="1"/>
      </contour>
    </TTGlyph>
    <TTGlyph name="five" xMin="59" yMin="-12" xMax="532" yMax="656">
      <contour>
        <pt x="168" y="376" on="1"/>
        <pt x="200" y="396" on="0"/>
        <pt x="264" y="410" on="0"/>
        <pt x="299" y="410" on="1"/>
        <pt x="356" y="410" on="0"/>
        <pt x="443" y="377" on="0"/>
        <pt x="502" y="320" on="0"/>
        <pt x="532" y="244" on="0"/>
        <pt x="532" y="201" on="1"/>
        <pt x="532" y="157" on="0"/>
        <pt x="497" y="79" on="0"/>
        <pt x="429" y="21" on="0"/>
        <pt x="330" y="-12" on="0"/>
        <pt x="266" y="-12" on="1"/>
        <pt x="219" y="-12" on="0"/>
        <pt x="142" y="17" on="0"/>
        <pt x="88" y="64" on="0"/>
        <pt x="59" y="125" on="0"/>
        <pt x="59" y="158" on="1"/>
        <pt x="59" y="178" on="0"/>
        <pt x="72" y="205" on="0"/>
        <pt x="93" y="222" on="0"/>
        <pt x="117" y="230" on="0"/>
        <pt x="129" y="230" on="1"/>
        <pt x="153" y="230" on="0"/>
        <pt x="198" y="197" on="0"/>
        <pt x="198" y="160" on="1"/>
        <pt x="198" y="133" on="0"/>
        <pt x="166" y="94" on="0"/>
        <pt x="134" y="91" on="1"/>
        <pt x="153" y="67" on="0"/>
        <pt x="220" y="33" on="0"/>
        <pt x="262" y="33" on="1"/>
        <pt x="309" y="33" on="0"/>
        <pt x="360" y="66" on="0"/>
        <pt x="383" y="117" on="0"/>
        <pt x="387" y="177" on="0"/>
        <pt x="387" y="204" on="1"/>
        <pt x="387" y="234" on="0"/>
        <pt x="384" y="293" on="0"/>
        <pt x="367" y="340" on="0"/>
        <pt x="329" y="370" on="0"/>
        <pt x="294" y="370" on="1"/>
        <pt x="279" y="370" on="0"/>
        <pt x="245" y="366" on="0"/>
        <pt x="209" y="354" on="0"/>
        <pt x="174" y="333" on="0"/>
        <pt x="159" y="315" on="1"/>
        <pt x="151" y="305" on="0"/>
        <pt x="143" y="301" on="0"/>
        <pt x="133" y="301" on="1"/>
        <pt x="115" y="301" on="0"/>
        <pt x="109" y="319" on="0"/>
        <pt x="109" y="333" on="1"/>
        <pt x="109" y="628" on="1"/>
        <pt x="109" y="639" on="0"/>
        <pt x="113" y="656" on="0"/>
        <pt x="124" y="656" on="1"/>
        <pt x="126" y="656" on="0"/>
        <pt x="131" y="655" on="0"/>
        <pt x="141" y="651" on="1"/>
        <pt x="173" y="640" on="0"/>
        <pt x="250" y="624" on="0"/>
        <pt x="297" y="624" on="1"/>
        <pt x="336" y="624" on="0"/>
        <pt x="417" y="637" on="0"/>
        <pt x="455" y="651" on="1"/>
        <pt x="463" y="655" on="0"/>
        <pt x="468" y="656" on="0"/>
        <pt x="470" y="656" on="1"/>
        <pt x="482" y="656" on="0"/>
        <pt x="486" y="639" on="0"/>
        <pt x="486" y="636" on="1"/>
        <pt x="486" y="626" on="0"/>
        <pt x="467" y="600" on="0"/>
        <pt x="441" y="574" on="0"/>
        <pt x="414" y="552" on="0"/>
        <pt x="406" y="547" on="1"/>
        <pt x="378" y="528" on="0"/>
        <pt x="327" y="508" on="0"/>
        <pt x="283" y="499" on="0"/>
        <pt x="250" y="497" on="0"/>
        <pt x="239" y="497" on="1"/>
        <pt x="223" y="497" on="0"/>
        <pt x="194" y="498" on="0"/>
        <pt x="168" y="503" on="1"/>
      </contour>
    </TTGlyph>
    <TTGlyph name="fl" xMin="32" yMin="0" xMax="615" yMax="700">
      <contour>
        <pt x="547" y="49" on="1"/>
        <pt x="615" y="49" on="1"/>
        <pt x="615" y="0" on="1"/>
        <pt x="595" y="1" on="0"/>
        <pt x="563" y="2" on="0"/>
        <pt x="535" y="3" on="0"/>
        <pt x="508" y="3" on="0"/>
        <pt x="491" y="3" on="1"/>
        <pt x="475" y="3" on="0"/>
        <pt x="452" y="3" on="0"/>
        <pt x="426" y="2" on="0"/>
        <pt x="394" y="1" on="0"/>
        <pt x="368" y="0" on="1"/>
        <pt x="368" y="49" on="1"/>
        <pt x="436" y="49" on="1"/>
        <pt x="436" y="395" on="1"/>
        <pt x="220" y="395" on="1"/>
        <pt x="220" y="49" on="1"/>
        <pt x="288" y="49" on="1"/>
        <pt x="288" y="0" on="1"/>
        <pt x="268" y="1" on="0"/>
        <pt x="236" y="2" on="0"/>
        <pt x="208" y="3" on="0"/>
        <pt x="181" y="3" on="0"/>
        <pt x="164" y="3" on="1"/>
        <pt x="148" y="3" on="0"/>
        <pt x="125" y="3" on="0"/>
        <pt x="99" y="2" on="0"/>
        <pt x="67" y="1" on="0"/>
        <pt x="41" y="0" on="1"/>
        <pt x="41" y="49" on="1"/>
        <pt x="109" y="49" on="1"/>
        <pt x="109" y="395" on="1"/>
        <pt x="32" y="395" on="1"/>
        <pt x="32" y="444" on="1"/>
        <pt x="109" y="444" on="1"/>
        <pt x="109" y="542" on="1"/>
        <pt x="109" y="585" on="0"/>
        <pt x="156" y="645" on="0"/>
        <pt x="233" y="683" on="0"/>
        <pt x="332" y="700" on="0"/>
        <pt x="384" y="700" on="1"/>
        <pt x="399" y="700" on="0"/>
        <pt x="437" y="698" on="0"/>
        <pt x="463" y="691" on="1"/>
        <pt x="468" y="689" on="0"/>
        <pt x="472" y="689" on="0"/>
        <pt x="477" y="689" on="1"/>
        <pt x="482" y="689" on="0"/>
        <pt x="485" y="690" on="1"/>
        <pt x="487" y="690" on="0"/>
        <pt x="504" y="691" on="0"/>
        <pt x="525" y="692" on="0"/>
        <pt x="544" y="694" on="0"/>
        <pt x="547" y="694" on="1"/>
      </contour>
      <contour>
        <pt x="436" y="444" on="1"/>
        <pt x="436" y="559" on="1"/>
        <pt x="425" y="566" on="0"/>
        <pt x="410" y="591" on="0"/>
        <pt x="410" y="611" on="1"/>
        <pt x="410" y="618" on="0"/>
        <pt x="413" y="638" on="0"/>
        <pt x="424" y="652" on="1"/>
        <pt x="425" y="653" on="0"/>
        <pt x="425" y="655" on="1"/>
        <pt x="425" y="657" on="0"/>
        <pt x="411" y="658" on="0"/>
        <pt x="394" y="660" on="0"/>
        <pt x="379" y="660" on="0"/>
        <pt x="377" y="660" on="1"/>
        <pt x="347" y="660" on="0"/>
        <pt x="289" y="649" on="0"/>
        <pt x="242" y="622" on="0"/>
        <pt x="214" y="575" on="0"/>
        <pt x="214" y="540" on="1"/>
        <pt x="214" y="444" on="1"/>
      </contour>
    </TTGlyph>
    <TTGlyph name="four" xMin="33" yMin="0" xMax="558" yMax="658">
      <contour>
        <pt x="458" y="204" on="1"/>
        <pt x="558" y="204" on="1"/>
        <pt x="558" y="155" on="1"/>
        <pt x="458" y="155" on="1"/>
        <pt x="458" y="49" on="1"/>
        <pt x="558" y="49" on="1"/>
        <pt x="558" y="0" on="1"/>
        <pt x="544" y="1" on="0"/>
        <pt x="500" y="2" on="0"/>
        <pt x="452" y="3" on="0"/>
        <pt x="406" y="3" on="0"/>
        <pt x="391" y="3" on="1"/>
        <pt x="376" y="3" on="0"/>
        <pt x="327" y="3" on="0"/>
        <pt x="275" y="2" on="0"/>
        <pt x="228" y="1" on="0"/>
        <pt x="215" y="0" on="1"/>
        <pt x="215" y="49" on="1"/>
        <pt x="330" y="49" on="1"/>
        <pt x="330" y="155" on="1"/>
        <pt x="33" y="155" on="1"/>
        <pt x="33" y="204" on="1"/>
        <pt x="389" y="643" on="1"/>
        <pt x="397" y="653" on="0"/>
        <pt x="407" y="658" on="0"/>
        <pt x="425" y="658" on="1"/>
        <pt x="448" y="658" on="0"/>
        <pt x="458" y="646" on="0"/>
        <pt x="458" y="624" on="1"/>
      </contour>
      <contour>
        <pt x="90" y="204" on="1"/>
        <pt x="342" y="204" on="1"/>
        <pt x="342" y="515" on="1"/>
      </contour>
    </TTGlyph>
    <TTGlyph name="g" xMin="33" yMin="-201" xMax="575" yMax="456">
      <contour>
        <pt x="266" y="85" on="1"/>
        <pt x="303" y="85" on="0"/>
        <pt x="362" y="84" on="0"/>
        <pt x="411" y="79" on="0"/>
        <pt x="454" y="69" on="0"/>
        <pt x="476" y="59" on="1"/>
        <pt x="502" y="47" on="0"/>
        <pt x="534" y="14" on="0"/>
        <pt x="552" y="-22" on="0"/>
        <pt x="558" y="-57" on="0"/>
        <pt x="558" y="-70" on="1"/>
        <pt x="558" y="-127" on="0"/>
        <pt x="427" y="-201" on="0"/>
        <pt x="295" y="-201" on="1"/>
        <pt x="223" y="-201" on="0"/>
        <pt x="123" y="-178" on="0"/>
        <pt x="61" y="-141" on="0"/>
        <pt x="33" y="-96" on="0"/>
        <pt x="33" y="-73" on="1"/>
        <pt x="33" y="-65" on="0"/>
        <pt x="39" y="-42" on="0"/>
        <pt x="57" y="-18" on="0"/>
        <pt x="91" y="5" on="0"/>
        <pt x="119" y="13" on="1"/>
        <pt x="103" y="27" on="0"/>
        <pt x="77" y="77" on="0"/>
        <pt x="77" y="109" on="1"/>
        <pt x="77" y="132" on="0"/>
        <pt x="94" y="179" on="0"/>
        <pt x="110" y="196" on="1"/>
        <pt x="103" y="202" on="0"/>
        <pt x="85" y="221" on="0"/>
        <pt x="69" y="247" on="0"/>
        <pt x="58" y="281" on="0"/>
        <pt x="58" y="302" on="1"/>
        <pt x="58" y="326" on="0"/>
        <pt x="79" y="379" on="0"/>
        <pt x="127" y="422" on="0"/>
        <pt x="206" y="450" on="0"/>
        <pt x="263" y="450" on="1"/>
        <pt x="299" y="450" on="0"/>
        <pt x="367" y="437" on="0"/>
        <pt x="399" y="418" on="1"/>
        <pt x="413" y="429" on="0"/>
        <pt x="472" y="456" on="0"/>
        <pt x="509" y="456" on="1"/>
        <pt x="526" y="456" on="0"/>
        <pt x="551" y="444" on="0"/>
        <pt x="567" y="426" on="0"/>
        <pt x="575" y="405" on="0"/>
        <pt x="575" y="395" on="1"/>
        <pt x="575" y="372" on="0"/>
        <pt x="547" y="349" on="0"/>
        <pt x="530" y="349" on="1"/>
        <pt x="512" y="349" on="0"/>
        <pt x="485" y="374" on="0"/>
        <pt x="485" y="394" on="1"/>
        <pt x="485" y="402" on="0"/>
        <pt x="487" y="411" on="0"/>
        <pt x="488" y="414" on="1"/>
        <pt x="478" y="412" on="0"/>
        <pt x="448" y="407" on="0"/>
        <pt x="428" y="396" on="1"/>
        <pt x="444" y="380" on="0"/>
        <pt x="468" y="332" on="0"/>
        <pt x="468" y="301" on="1"/>
        <pt x="468" y="277" on="0"/>
        <pt x="447" y="224" on="0"/>
        <pt x="399" y="181" on="0"/>
        <pt x="320" y="153" on="0"/>
        <pt x="263" y="153" on="1"/>
        <pt x="230" y="153" on="0"/>
        <pt x="166" y="165" on="0"/>
        <pt x="138" y="179" on="1"/>
        <pt x="137" y="178" on="0"/>
        <pt x="130" y="163" on="0"/>
        <pt x="130" y="148" on="1"/>
        <pt x="130" y="118" on="0"/>
        <pt x="153" y="98" on="1"/>
        <pt x="166" y="88" on="0"/>
        <pt x="192" y="85" on="0"/>
        <pt x="216" y="85" on="1"/>
      </contour>
      <contour>
        <pt x="263" y="193" on="1"/>
        <pt x="297" y="193" on="0"/>
        <pt x="333" y="214" on="0"/>
        <pt x="350" y="247" on="0"/>
        <pt x="353" y="285" on="0"/>
        <pt x="353" y="302" on="1"/>
        <pt x="353" y="319" on="0"/>
        <pt x="350" y="356" on="0"/>
        <pt x="333" y="389" on="0"/>
        <pt x="297" y="410" on="0"/>
        <pt x="263" y="410" on="1"/>
        <pt x="229" y="410" on="0"/>
        <pt x="193" y="389" on="0"/>
        <pt x="176" y="356" on="0"/>
        <pt x="173" y="318" on="0"/>
        <pt x="173" y="301" on="1"/>
        <pt x="173" y="285" on="0"/>
        <pt x="176" y="247" on="0"/>
        <pt x="193" y="214" on="0"/>
        <pt x="229" y="193" on="0"/>
      </contour>
      <contour>
        <pt x="201" y="-14" on="1"/>
        <pt x="195" y="-14" on="0"/>
        <pt x="169" y="-16" on="0"/>
        <pt x="142" y="-27" on="0"/>
        <pt x="122" y="-50" on="0"/>
        <pt x="122" y="-72" on="1"/>
        <pt x="122" y="-87" on="0"/>
        <pt x="139" y="-118" on="0"/>
        <pt x="180" y="-144" on="0"/>
        <pt x="247" y="-161" on="0"/>
        <pt x="296" y="-161" on="1"/>
        <pt x="347" y="-161" on="0"/>
        <pt x="414" y="-143" on="0"/>
        <pt x="453" y="-116" on="0"/>
        <pt x="469" y="-86" on="0"/>
        <pt x="469" y="-74" on="1"/>
        <pt x="469" y="-52" on="0"/>
        <pt x="432" y="-27" on="0"/>
        <pt x="382" y="-16" on="0"/>
        <pt x="334" y="-14" on="0"/>
        <pt x="322" y="-14" on="1"/>
      </contour>
    </TTGlyph>
    <TTGlyph name="germandbls" xMin="41" yMin="-6" xMax="583" yMax="700">
      <contour>
        <pt x="428" y="421" on="1"/>
        <pt x="482" y="397" on="0"/>
        <pt x="544" y="329" on="0"/>
        <pt x="575" y="259" on="0"/>
        <pt x="583" y="197" on="0"/>
        <pt x="583" y="180" on="1"/>
        <pt x="583" y="135" on="0"/>
        <pt x="549" y="66" on="0"/>
        <pt x="490" y="18" on="0"/>
        <pt x="411" y="-6" on="0"/>
        <pt x="366" y="-6" on="1"/>
        <pt x="337" y="-6" on="0"/>
        <pt x="294" y="11" on="0"/>
        <pt x="267" y="36" on="0"/>
        <pt x="254" y="67" on="0"/>
        <pt x="254" y="82" on="1"/>
        <pt x="254" y="108" on="0"/>
        <pt x="286" y="135" on="0"/>
        <pt x="306" y="135" on="1"/>
        <pt x="328" y="135" on="0"/>
        <pt x="358" y="107" on="0"/>
        <pt x="358" y="83" on="1"/>
        <pt x="358" y="55" on="0"/>
        <pt x="336" y="40" on="1"/>
        <pt x="341" y="38" on="0"/>
        <pt x="352" y="34" on="0"/>
        <pt x="363" y="34" on="1"/>
        <pt x="400" y="34" on="0"/>
        <pt x="440" y="70" on="0"/>
        <pt x="458" y="118" on="0"/>
        <pt x="461" y="167" on="0"/>
        <pt x="461" y="179" on="1"/>
        <pt x="461" y="213" on="0"/>
        <pt x="451" y="289" on="0"/>
        <pt x="418" y="355" on="0"/>
        <pt x="355" y="401" on="0"/>
        <pt x="302" y="404" on="1"/>
        <pt x="290" y="405" on="0"/>
        <pt x="286" y="420" on="0"/>
        <pt x="286" y="424" on="1"/>
        <pt x="286" y="426" on="0"/>
        <pt x="290" y="443" on="0"/>
        <pt x="301" y="444" on="1"/>
        <pt x="317" y="445" on="0"/>
        <pt x="360" y="451" on="0"/>
        <pt x="400" y="474" on="0"/>
        <pt x="428" y="520" on="0"/>
        <pt x="428" y="562" on="1"/>
        <pt x="428" y="574" on="0"/>
        <pt x="423" y="608" on="0"/>
        <pt x="403" y="639" on="0"/>
        <pt x="362" y="660" on="0"/>
        <pt x="326" y="660" on="1"/>
        <pt x="286" y="660" on="0"/>
        <pt x="243" y="635" on="0"/>
        <pt x="223" y="602" on="0"/>
        <pt x="220" y="567" on="0"/>
        <pt x="220" y="556" on="1"/>
        <pt x="220" y="0" on="1"/>
        <pt x="209" y="1" on="0"/>
        <pt x="194" y="2" on="0"/>
        <pt x="179" y="3" on="0"/>
        <pt x="162" y="3" on="0"/>
        <pt x="150" y="3" on="1"/>
        <pt x="109" y="3" on="0"/>
        <pt x="41" y="0" on="1"/>
        <pt x="41" y="49" on="1"/>
        <pt x="109" y="49" on="1"/>
        <pt x="109" y="395" on="1"/>
        <pt x="41" y="395" on="1"/>
        <pt x="41" y="444" on="1"/>
        <pt x="109" y="444" on="1"/>
        <pt x="109" y="555" on="1"/>
        <pt x="109" y="591" on="0"/>
        <pt x="141" y="645" on="0"/>
        <pt x="199" y="682" on="0"/>
        <pt x="279" y="700" on="0"/>
        <pt x="327" y="700" on="1"/>
        <pt x="391" y="700" on="0"/>
        <pt x="477" y="673" on="0"/>
        <pt x="528" y="633" on="0"/>
        <pt x="550" y="584" on="0"/>
        <pt x="550" y="561" on="1"/>
        <pt x="550" y="551" on="0"/>
        <pt x="543" y="516" on="0"/>
        <pt x="518" y="475" on="0"/>
        <pt x="470" y="436" on="0"/>
      </contour>
    </TTGlyph>
    <TTGlyph name="grave" xMin="120" yMin="507" xMax="346" yMax="704">
      <contour>
        <pt x="346" y="548" on="1"/>
        <pt x="315" y="507" on="1"/>
        <pt x="158" y="587" on="1"/>
        <pt x="147" y="592" on="0"/>
        <pt x="120" y="615" on="0"/>
        <pt x="120" y="640" on="1"/>
        <pt x="120" y="666" on="0"/>
        <pt x="158" y="704" on="0"/>
        <pt x="181" y="704" on="1"/>
        <pt x="193" y="704" on="0"/>
        <pt x="217" y="692" on="0"/>
        <pt x="225" y="682" on="1"/>
      </contour>
    </TTGlyph>
    <TTGlyph name="h" xMin="50" yMin="0" xMax="630" yMax="694">
      <contour>
        <pt x="562" y="49" on="1"/>
        <pt x="630" y="49" on="1"/>
        <pt x="630" y="0" on="1"/>
        <pt x="602" y="1" on="0"/>
        <pt x="566" y="2" on="0"/>
        <pt x="541" y="3" on="0"/>
        <pt x="518" y="3" on="0"/>
        <pt x="503" y="3" on="1"/>
        <pt x="488" y="3" on="0"/>
        <pt x="466" y="3" on="0"/>
        <pt x="440" y="2" on="0"/>
        <pt x="405" y="1" on="0"/>
        <pt x="377" y="0" on="1"/>
        <pt x="377" y="49" on="1"/>
        <pt x="445" y="49" on="1"/>
        <pt x="445" y="314" on="1"/>
        <pt x="445" y="370" on="0"/>
        <pt x="416" y="410" on="0"/>
        <pt x="387" y="410" on="1"/>
        <pt x="365" y="410" on="0"/>
        <pt x="311" y="393" on="0"/>
        <pt x="266" y="355" on="0"/>
        <pt x="235" y="296" on="0"/>
        <pt x="235" y="254" on="1"/>
        <pt x="235" y="49" on="1"/>
        <pt x="303" y="49" on="1"/>
        <pt x="303" y="0" on="1"/>
        <pt x="275" y="1" on="0"/>
        <pt x="239" y="2" on="0"/>
        <pt x="214" y="3" on="0"/>
        <pt x="191" y="3" on="0"/>
        <pt x="176" y="3" on="1"/>
        <pt x="161" y="3" on="0"/>
        <pt x="139" y="3" on="0"/>
        <pt x="113" y="2" on="0"/>
        <pt x="78" y="1" on="0"/>
        <pt x="50" y="0" on="1"/>
        <pt x="50" y="49" on="1"/>
        <pt x="118" y="49" on="1"/>
        <pt x="118" y="598" on="1"/>
        <pt x="118" y="613" on="0"/>
        <pt x="114" y="628" on="0"/>
        <pt x="99" y="636" on="0"/>
        <pt x="73" y="637" on="0"/>
        <pt x="50" y="637" on="1"/>
        <pt x="50" y="686" on="1"/>
        <pt x="229" y="694" on="1"/>
        <pt x="229" y="355" on="1"/>
        <pt x="239" y="370" on="0"/>
        <pt x="269" y="404" on="0"/>
        <pt x="311" y="432" on="0"/>
        <pt x="367" y="450" on="0"/>
        <pt x="403" y="450" on="1"/>
        <pt x="436" y="450" on="0"/>
        <pt x="493" y="438" on="0"/>
        <pt x="537" y="406" on="0"/>
        <pt x="562" y="350" on="0"/>
        <pt x="562" y="305" on="1"/>
      </contour>
    </TTGlyph>
    <TTGlyph name="hungarumlaut" xMin="143" yMin="513" xMax="505" yMax="710">
      <contour>
        <pt x="186" y="513" on="1"/>
        <pt x="143" y="542" on="1"/>
        <pt x="187" y="666" on="1"/>
        <pt x="194" y="685" on="0"/>
        <pt x="220" y="710" on="0"/>
        <pt x="241" y="710" on="1"/>
        <pt x="266" y="710" on="0"/>
        <pt x="308" y="673" on="0"/>
        <pt x="308" y="648" on="1"/>
        <pt x="308" y="629" on="0"/>
        <pt x="288" y="606" on="0"/>
        <pt x="283" y="601" on="1"/>
      </contour>
      <contour>
        <pt x="384" y="666" on="1"/>
        <pt x="391" y="685" on="0"/>
        <pt x="417" y="710" on="0"/>
        <pt x="438" y="710" on="1"/>
        <pt x="463" y="710" on="0"/>
        <pt x="505" y="673" on="0"/>
        <pt x="505" y="648" on="1"/>
        <pt x="505" y="629" on="0"/>
        <pt x="485" y="606" on="0"/>
        <pt x="480" y="601" on="1"/>
        <pt x="383" y="513" on="1"/>
        <pt x="340" y="542" on="1"/>
      </contour>
    </TTGlyph>
    <TTGlyph name="hyphen" xMin="13" yMin="172" xMax="327" yMax="272">
      <contour>
        <pt x="13" y="172" on="1"/>
        <pt x="13" y="272" on="1"/>
        <pt x="327" y="272" on="1"/>
        <pt x="327" y="172" on="1"/>
      </contour>
    </TTGlyph>
    <TTGlyph name="i" xMin="52" yMin="0" xMax="292" yMax="695">
      <contour>
        <pt x="240" y="616" on="1"/>
        <pt x="240" y="598" on="0"/>
        <pt x="226" y="569" on="0"/>
        <pt x="204" y="549" on="0"/>
        <pt x="176" y="538" on="0"/>
        <pt x="162" y="538" on="1"/>
        <pt x="128" y="538" on="0"/>
        <pt x="83" y="585" on="0"/>
        <pt x="83" y="617" on="1"/>
        <pt x="83" y="632" on="0"/>
        <pt x="95" y="660" on="0"/>
        <pt x="116" y="682" on="0"/>
        <pt x="145" y="695" on="0"/>
        <pt x="162" y="695" on="1"/>
        <pt x="176" y="695" on="0"/>
        <pt x="203" y="685" on="0"/>
        <pt x="226" y="665" on="0"/>
        <pt x="240" y="636" on="0"/>
      </contour>
      <contour>
        <pt x="231" y="450" on="1"/>
        <pt x="231" y="49" on="1"/>
        <pt x="292" y="49" on="1"/>
        <pt x="292" y="0" on="1"/>
        <pt x="271" y="1" on="0"/>
        <pt x="243" y="2" on="0"/>
        <pt x="218" y="3" on="0"/>
        <pt x="192" y="3" on="0"/>
        <pt x="174" y="3" on="1"/>
        <pt x="158" y="3" on="0"/>
        <pt x="135" y="3" on="0"/>
        <pt x="110" y="2" on="0"/>
        <pt x="77" y="1" on="0"/>
        <pt x="52" y="0" on="1"/>
        <pt x="52" y="49" on="1"/>
        <pt x="120" y="49" on="1"/>
        <pt x="120" y="354" on="1"/>
        <pt x="120" y="369" on="0"/>
        <pt x="116" y="384" on="0"/>
        <pt x="103" y="392" on="0"/>
        <pt x="77" y="393" on="0"/>
        <pt x="55" y="393" on="1"/>
        <pt x="55" y="442" on="1"/>
      </contour>
    </TTGlyph>
    <TTGlyph name="j" xMin="-58" yMin="-200" xMax="275" yMax="695">
      <contour>
        <pt x="275" y="616" on="1"/>
        <pt x="275" y="585" on="0"/>
        <pt x="230" y="538" on="0"/>
        <pt x="196" y="538" on="1"/>
        <pt x="165" y="538" on="0"/>
        <pt x="118" y="582" on="0"/>
        <pt x="118" y="617" on="1"/>
        <pt x="118" y="648" on="0"/>
        <pt x="163" y="695" on="0"/>
        <pt x="197" y="695" on="1"/>
        <pt x="228" y="695" on="0"/>
        <pt x="275" y="651" on="0"/>
      </contour>
      <contour>
        <pt x="275" y="450" on="1"/>
        <pt x="275" y="-39" on="1"/>
        <pt x="275" y="-80" on="0"/>
        <pt x="241" y="-141" on="0"/>
        <pt x="187" y="-181" on="0"/>
        <pt x="121" y="-200" on="0"/>
        <pt x="89" y="-200" on="1"/>
        <pt x="60" y="-200" on="0"/>
        <pt x="7" y="-189" on="0"/>
        <pt x="-34" y="-165" on="0"/>
        <pt x="-58" y="-130" on="0"/>
        <pt x="-58" y="-106" on="1"/>
        <pt x="-58" y="-77" on="0"/>
        <pt x="-20" y="-41" on="0"/>
        <pt x="7" y="-41" on="1"/>
        <pt x="34" y="-41" on="0"/>
        <pt x="72" y="-77" on="0"/>
        <pt x="72" y="-106" on="1"/>
        <pt x="72" y="-134" on="0"/>
        <pt x="54" y="-152" on="1"/>
        <pt x="52" y="-154" on="0"/>
        <pt x="52" y="-155" on="1"/>
        <pt x="52" y="-156" on="0"/>
        <pt x="61" y="-158" on="0"/>
        <pt x="73" y="-159" on="0"/>
        <pt x="84" y="-160" on="0"/>
        <pt x="87" y="-160" on="1"/>
        <pt x="109" y="-160" on="0"/>
        <pt x="138" y="-138" on="0"/>
        <pt x="156" y="-103" on="0"/>
        <pt x="164" y="-61" on="0"/>
        <pt x="164" y="-40" on="1"/>
        <pt x="164" y="353" on="1"/>
        <pt x="164" y="368" on="0"/>
        <pt x="159" y="384" on="0"/>
        <pt x="144" y="392" on="0"/>
        <pt x="114" y="393" on="0"/>
        <pt x="89" y="393" on="1"/>
        <pt x="89" y="442" on="1"/>
      </contour>
    </TTGlyph>
    <TTGlyph name="k" xMin="41" yMin="0" xMax="605" yMax="694">
      <contour>
        <pt x="530" y="68" on="1"/>
        <pt x="537" y="60" on="0"/>
        <pt x="547" y="52" on="0"/>
        <pt x="558" y="50" on="1"/>
        <pt x="566" y="49" on="0"/>
        <pt x="593" y="49" on="0"/>
        <pt x="605" y="49" on="1"/>
        <pt x="605" y="0" on="1"/>
        <pt x="575" y="2" on="0"/>
        <pt x="528" y="3" on="0"/>
        <pt x="499" y="3" on="1"/>
        <pt x="474" y="3" on="0"/>
        <pt x="423" y="2" on="0"/>
        <pt x="379" y="0" on="1"/>
        <pt x="379" y="49" on="1"/>
        <pt x="387" y="49" on="0"/>
        <pt x="406" y="51" on="0"/>
        <pt x="406" y="58" on="1"/>
        <pt x="406" y="59" on="0"/>
        <pt x="387" y="83" on="0"/>
        <pt x="358" y="117" on="0"/>
        <pt x="325" y="157" on="0"/>
        <pt x="296" y="191" on="0"/>
        <pt x="276" y="214" on="0"/>
        <pt x="275" y="215" on="1"/>
        <pt x="214" y="170" on="1"/>
        <pt x="214" y="49" on="1"/>
        <pt x="282" y="49" on="1"/>
        <pt x="282" y="0" on="1"/>
        <pt x="257" y="1" on="0"/>
        <pt x="225" y="2" on="0"/>
        <pt x="200" y="3" on="0"/>
        <pt x="177" y="3" on="0"/>
        <pt x="161" y="3" on="1"/>
        <pt x="145" y="3" on="0"/>
        <pt x="122" y="3" on="0"/>
        <pt x="96" y="2" on="0"/>
        <pt x="65" y="1" on="0"/>
        <pt x="41" y="0" on="1"/>
        <pt x="41" y="49" on="1"/>
        <pt x="109" y="49" on="1"/>
        <pt x="109" y="598" on="1"/>
        <pt x="109" y="613" on="0"/>
        <pt x="105" y="628" on="0"/>
        <pt x="90" y="636" on="0"/>
        <pt x="64" y="637" on="0"/>
        <pt x="41" y="637" on="1"/>
        <pt x="41" y="686" on="1"/>
        <pt x="220" y="694" on="1"/>
        <pt x="220" y="238" on="1"/>
        <pt x="412" y="384" on="1"/>
        <pt x="407" y="390" on="0"/>
        <pt x="398" y="395" on="0"/>
        <pt x="384" y="395" on="1"/>
        <pt x="384" y="444" on="1"/>
        <pt x="455" y="441" on="0"/>
        <pt x="496" y="441" on="1"/>
        <pt x="512" y="441" on="0"/>
        <pt x="554" y="442" on="0"/>
        <pt x="578" y="444" on="1"/>
        <pt x="578" y="395" on="1"/>
        <pt x="554" y="395" on="0"/>
        <pt x="524" y="392" on="0"/>
        <pt x="505" y="388" on="0"/>
        <pt x="495" y="381" on="0"/>
        <pt x="490" y="378" on="1"/>
        <pt x="354" y="276" on="1"/>
      </contour>
    </TTGlyph>
    <TTGlyph name="l" xMin="52" yMin="0" xMax="299" yMax="694">
      <contour>
        <pt x="231" y="49" on="1"/>
        <pt x="299" y="49" on="1"/>
        <pt x="299" y="0" on="1"/>
        <pt x="279" y="1" on="0"/>
        <pt x="247" y="2" on="0"/>
        <pt x="219" y="3" on="0"/>
        <pt x="192" y="3" on="0"/>
        <pt x="175" y="3" on="1"/>
        <pt x="159" y="3" on="0"/>
        <pt x="136" y="3" on="0"/>
        <pt x="110" y="2" on="0"/>
        <pt x="78" y="1" on="0"/>
        <pt x="52" y="0" on="1"/>
        <pt x="52" y="49" on="1"/>
        <pt x="120" y="49" on="1"/>
        <pt x="120" y="598" on="1"/>
        <pt x="120" y="613" on="0"/>
        <pt x="116" y="628" on="0"/>
        <pt x="101" y="636" on="0"/>
        <pt x="75" y="637" on="0"/>
        <pt x="52" y="637" on="1"/>
        <pt x="52" y="686" on="1"/>
        <pt x="231" y="694" on="1"/>
      </contour>
    </TTGlyph>
    <TTGlyph name="m" xMin="50" yMin="0" xMax="959" yMax="450">
      <contour>
        <pt x="891" y="49" on="1"/>
        <pt x="959" y="49" on="1"/>
        <pt x="959" y="0" on="1"/>
        <pt x="931" y="1" on="0"/>
        <pt x="895" y="2" on="0"/>
        <pt x="870" y="3" on="0"/>
        <pt x="847" y="3" on="0"/>
        <pt x="832" y="3" on="1"/>
        <pt x="817" y="3" on="0"/>
        <pt x="795" y="3" on="0"/>
        <pt x="769" y="2" on="0"/>
        <pt x="734" y="1" on="0"/>
        <pt x="706" y="0" on="1"/>
        <pt x="706" y="49" on="1"/>
        <pt x="774" y="49" on="1"/>
        <pt x="774" y="314" on="1"/>
        <pt x="774" y="371" on="0"/>
        <pt x="744" y="410" on="0"/>
        <pt x="715" y="410" on="1"/>
        <pt x="693" y="410" on="0"/>
        <pt x="639" y="392" on="0"/>
        <pt x="594" y="355" on="0"/>
        <pt x="563" y="296" on="0"/>
        <pt x="563" y="254" on="1"/>
        <pt x="563" y="49" on="1"/>
        <pt x="631" y="49" on="1"/>
        <pt x="631" y="0" on="1"/>
        <pt x="603" y="1" on="0"/>
        <pt x="567" y="2" on="0"/>
        <pt x="542" y="3" on="0"/>
        <pt x="519" y="3" on="0"/>
        <pt x="504" y="3" on="1"/>
        <pt x="489" y="3" on="0"/>
        <pt x="467" y="3" on="0"/>
        <pt x="441" y="2" on="0"/>
        <pt x="406" y="1" on="0"/>
        <pt x="378" y="0" on="1"/>
        <pt x="378" y="49" on="1"/>
        <pt x="446" y="49" on="1"/>
        <pt x="446" y="314" on="1"/>
        <pt x="446" y="371" on="0"/>
        <pt x="416" y="410" on="0"/>
        <pt x="387" y="410" on="1"/>
        <pt x="365" y="410" on="0"/>
        <pt x="311" y="392" on="0"/>
        <pt x="266" y="355" on="0"/>
        <pt x="235" y="296" on="0"/>
        <pt x="235" y="254" on="1"/>
        <pt x="235" y="49" on="1"/>
        <pt x="303" y="49" on="1"/>
        <pt x="303" y="0" on="1"/>
        <pt x="275" y="1" on="0"/>
        <pt x="239" y="2" on="0"/>
        <pt x="214" y="3" on="0"/>
        <pt x="191" y="3" on="0"/>
        <pt x="176" y="3" on="1"/>
        <pt x="161" y="3" on="0"/>
        <pt x="139" y="3" on="0"/>
        <pt x="113" y="2" on="0"/>
        <pt x="78" y="1" on="0"/>
        <pt x="50" y="0" on="1"/>
        <pt x="50" y="49" on="1"/>
        <pt x="118" y="49" on="1"/>
        <pt x="118" y="354" on="1"/>
        <pt x="118" y="369" on="0"/>
        <pt x="114" y="384" on="0"/>
        <pt x="99" y="392" on="0"/>
        <pt x="73" y="393" on="0"/>
        <pt x="50" y="393" on="1"/>
        <pt x="50" y="442" on="1"/>
        <pt x="223" y="450" on="1"/>
        <pt x="223" y="345" on="1"/>
        <pt x="224" y="345" on="1"/>
        <pt x="227" y="351" on="0"/>
        <pt x="249" y="385" on="0"/>
        <pt x="292" y="421" on="0"/>
        <pt x="358" y="450" on="0"/>
        <pt x="404" y="450" on="1"/>
        <pt x="421" y="450" on="0"/>
        <pt x="467" y="446" on="0"/>
        <pt x="512" y="428" on="0"/>
        <pt x="550" y="390" on="0"/>
        <pt x="558" y="356" on="1"/>
        <pt x="565" y="368" on="0"/>
        <pt x="592" y="400" on="0"/>
        <pt x="634" y="429" on="0"/>
        <pt x="693" y="450" on="0"/>
        <pt x="732" y="450" on="1"/>
        <pt x="765" y="450" on="0"/>
        <pt x="823" y="438" on="0"/>
        <pt x="866" y="406" on="0"/>
        <pt x="891" y="349" on="0"/>
        <pt x="891" y="305" on="1"/>
      </contour>
    </TTGlyph>
    <TTGlyph name="macron" xMin="82" yMin="556" xMax="509" yMax="611">
      <contour>
        <pt x="82" y="556" on="1"/>
        <pt x="82" y="611" on="1"/>
        <pt x="509" y="611" on="1"/>
        <pt x="509" y="556" on="1"/>
      </contour>
    </TTGlyph>
    <TTGlyph name="n" xMin="50" yMin="0" xMax="630" yMax="450">
      <contour>
        <pt x="562" y="49" on="1"/>
        <pt x="630" y="49" on="1"/>
        <pt x="630" y="0" on="1"/>
        <pt x="602" y="1" on="0"/>
        <pt x="566" y="2" on="0"/>
        <pt x="541" y="3" on="0"/>
        <pt x="518" y="3" on="0"/>
        <pt x="503" y="3" on="1"/>
        <pt x="488" y="3" on="0"/>
        <pt x="466" y="3" on="0"/>
        <pt x="440" y="2" on="0"/>
        <pt x="405" y="1" on="0"/>
        <pt x="377" y="0" on="1"/>
        <pt x="377" y="49" on="1"/>
        <pt x="445" y="49" on="1"/>
        <pt x="445" y="314" on="1"/>
        <pt x="445" y="370" on="0"/>
        <pt x="416" y="410" on="0"/>
        <pt x="387" y="410" on="1"/>
        <pt x="365" y="410" on="0"/>
        <pt x="311" y="393" on="0"/>
        <pt x="266" y="355" on="0"/>
        <pt x="235" y="296" on="0"/>
        <pt x="235" y="254" on="1"/>
        <pt x="235" y="49" on="1"/>
        <pt x="303" y="49" on="1"/>
        <pt x="303" y="0" on="1"/>
        <pt x="275" y="1" on="0"/>
        <pt x="239" y="2" on="0"/>
        <pt x="214" y="3" on="0"/>
        <pt x="191" y="3" on="0"/>
        <pt x="176" y="3" on="1"/>
        <pt x="161" y="3" on="0"/>
        <pt x="139" y="3" on="0"/>
        <pt x="113" y="2" on="0"/>
        <pt x="78" y="1" on="0"/>
        <pt x="50" y="0" on="1"/>
        <pt x="50" y="49" on="1"/>
        <pt x="118" y="49" on="1"/>
        <pt x="118" y="354" on="1"/>
        <pt x="118" y="369" on="0"/>
        <pt x="114" y="384" on="0"/>
        <pt x="99" y="392" on="0"/>
        <pt x="73" y="393" on="0"/>
        <pt x="50" y="393" on="1"/>
        <pt x="50" y="442" on="1"/>
        <pt x="223" y="450" on="1"/>
        <pt x="223" y="345" on="1"/>
        <pt x="224" y="345" on="1"/>
        <pt x="227" y="351" on="0"/>
        <pt x="249" y="385" on="0"/>
        <pt x="291" y="421" on="0"/>
        <pt x="357" y="450" on="0"/>
        <pt x="403" y="450" on="1"/>
        <pt x="436" y="450" on="0"/>
        <pt x="493" y="438" on="0"/>
        <pt x="537" y="406" on="0"/>
        <pt x="562" y="350" on="0"/>
        <pt x="562" y="305" on="1"/>
      </contour>
    </TTGlyph>
    <TTGlyph name="nine" xMin="49" yMin="-12" xMax="542" yMax="656">
      <contour>
        <pt x="401" y="301" on="1"/>
        <pt x="378" y="260" on="0"/>
        <pt x="316" y="225" on="0"/>
        <pt x="283" y="225" on="1"/>
        <pt x="227" y="225" on="0"/>
        <pt x="140" y="257" on="0"/>
        <pt x="80" y="314" on="0"/>
        <pt x="49" y="393" on="0"/>
        <pt x="49" y="440" on="1"/>
        <pt x="49" y="491" on="0"/>
        <pt x="86" y="571" on="0"/>
        <pt x="152" y="627" on="0"/>
        <pt x="243" y="656" on="0"/>
        <pt x="297" y="656" on="1"/>
        <pt x="370" y="656" on="0"/>
        <pt x="465" y="601" on="0"/>
        <pt x="520" y="509" on="0"/>
        <pt x="542" y="391" on="0"/>
        <pt x="542" y="329" on="1"/>
        <pt x="542" y="235" on="0"/>
        <pt x="489" y="104" on="0"/>
        <pt x="404" y="24" on="0"/>
        <pt x="298" y="-12" on="0"/>
        <pt x="246" y="-12" on="1"/>
        <pt x="203" y="-12" on="0"/>
        <pt x="139" y="9" on="0"/>
        <pt x="99" y="43" on="0"/>
        <pt x="79" y="90" on="0"/>
        <pt x="79" y="115" on="1"/>
        <pt x="79" y="134" on="0"/>
        <pt x="92" y="159" on="0"/>
        <pt x="111" y="175" on="0"/>
        <pt x="134" y="182" on="0"/>
        <pt x="144" y="182" on="1"/>
        <pt x="169" y="182" on="0"/>
        <pt x="209" y="149" on="0"/>
        <pt x="209" y="117" on="1"/>
        <pt x="209" y="97" on="0"/>
        <pt x="188" y="62" on="0"/>
        <pt x="162" y="54" on="1"/>
        <pt x="174" y="46" on="0"/>
        <pt x="200" y="38" on="0"/>
        <pt x="223" y="34" on="0"/>
        <pt x="241" y="33" on="0"/>
        <pt x="244" y="33" on="1"/>
        <pt x="273" y="33" on="0"/>
        <pt x="318" y="50" on="0"/>
        <pt x="350" y="75" on="0"/>
        <pt x="370" y="102" on="0"/>
        <pt x="375" y="112" on="1"/>
        <pt x="389" y="144" on="0"/>
        <pt x="401" y="233" on="0"/>
        <pt x="401" y="283" on="1"/>
      </contour>
      <contour>
        <pt x="286" y="266" on="1"/>
        <pt x="322" y="266" on="0"/>
        <pt x="367" y="304" on="0"/>
        <pt x="391" y="357" on="0"/>
        <pt x="400" y="412" on="0"/>
        <pt x="400" y="429" on="1"/>
        <pt x="400" y="455" on="0"/>
        <pt x="397" y="526" on="0"/>
        <pt x="388" y="551" on="1"/>
        <pt x="387" y="554" on="0"/>
        <pt x="377" y="576" on="0"/>
        <pt x="356" y="598" on="0"/>
        <pt x="323" y="616" on="0"/>
        <pt x="299" y="616" on="1"/>
        <pt x="258" y="616" on="0"/>
        <pt x="214" y="588" on="0"/>
        <pt x="193" y="539" on="0"/>
        <pt x="190" y="474" on="0"/>
        <pt x="190" y="438" on="1"/>
        <pt x="190" y="401" on="0"/>
        <pt x="193" y="338" on="0"/>
        <pt x="211" y="292" on="0"/>
        <pt x="250" y="266" on="0"/>
      </contour>
    </TTGlyph>
    <TTGlyph name="numbersign" xMin="66" yMin="-194" xMax="919" yMax="694">
      <contour>
        <pt x="632" y="166" on="1"/>
        <pt x="874" y="166" on="1"/>
        <pt x="879" y="166" on="0"/>
        <pt x="894" y="165" on="0"/>
        <pt x="909" y="159" on="0"/>
        <pt x="919" y="146" on="0"/>
        <pt x="919" y="134" on="1"/>
        <pt x="919" y="122" on="0"/>
        <pt x="909" y="109" on="0"/>
        <pt x="895" y="103" on="0"/>
        <pt x="880" y="102" on="0"/>
        <pt x="875" y="102" on="1"/>
        <pt x="610" y="102" on="1"/>
        <pt x="525" y="-165" on="1"/>
        <pt x="522" y="-174" on="0"/>
        <pt x="510" y="-194" on="0"/>
        <pt x="493" y="-194" on="1"/>
        <pt x="480" y="-194" on="0"/>
        <pt x="461" y="-176" on="0"/>
        <pt x="461" y="-162" on="1"/>
        <pt x="461" y="-160" on="0"/>
        <pt x="463" y="-149" on="0"/>
        <pt x="465" y="-143" on="1"/>
        <pt x="543" y="102" on="1"/>
        <pt x="346" y="102" on="1"/>
        <pt x="261" y="-165" on="1"/>
        <pt x="258" y="-174" on="0"/>
        <pt x="246" y="-194" on="0"/>
        <pt x="229" y="-194" on="1"/>
        <pt x="216" y="-194" on="0"/>
        <pt x="197" y="-176" on="0"/>
        <pt x="197" y="-162" on="1"/>
        <pt x="197" y="-160" on="0"/>
        <pt x="199" y="-149" on="0"/>
        <pt x="201" y="-143" on="1"/>
        <pt x="279" y="102" on="1"/>
        <pt x="110" y="102" on="1"/>
        <pt x="105" y="102" on="0"/>
        <pt x="90" y="103" on="0"/>
        <pt x="76" y="109" on="0"/>
        <pt x="66" y="122" on="0"/>
        <pt x="66" y="134" on="1"/>
        <pt x="66" y="146" on="0"/>
        <pt x="76" y="159" on="0"/>
        <pt x="91" y="165" on="0"/>
        <pt x="106" y="166" on="0"/>
        <pt x="111" y="166" on="1"/>
        <pt x="301" y="166" on="1"/>
        <pt x="353" y="334" on="1"/>
        <pt x="111" y="334" on="1"/>
        <pt x="106" y="334" on="0"/>
        <pt x="91" y="335" on="0"/>
        <pt x="76" y="341" on="0"/>
        <pt x="66" y="354" on="0"/>
        <pt x="66" y="366" on="1"/>
        <pt x="66" y="378" on="0"/>
        <pt x="76" y="391" on="0"/>
        <pt x="90" y="397" on="0"/>
        <pt x="105" y="398" on="0"/>
        <pt x="110" y="398" on="1"/>
        <pt x="375" y="398" on="1"/>
        <pt x="460" y="665" on="1"/>
        <pt x="463" y="674" on="0"/>
        <pt x="475" y="694" on="0"/>
        <pt x="492" y="694" on="1"/>
        <pt x="505" y="694" on="0"/>
        <pt x="524" y="676" on="0"/>
        <pt x="524" y="662" on="1"/>
        <pt x="524" y="660" on="0"/>
        <pt x="522" y="649" on="0"/>
        <pt x="520" y="643" on="1"/>
        <pt x="442" y="398" on="1"/>
        <pt x="639" y="398" on="1"/>
        <pt x="724" y="665" on="1"/>
        <pt x="727" y="674" on="0"/>
        <pt x="739" y="694" on="0"/>
        <pt x="756" y="694" on="1"/>
        <pt x="769" y="694" on="0"/>
        <pt x="788" y="676" on="0"/>
        <pt x="788" y="662" on="1"/>
        <pt x="788" y="660" on="0"/>
        <pt x="786" y="649" on="0"/>
        <pt x="784" y="643" on="1"/>
        <pt x="706" y="398" on="1"/>
        <pt x="875" y="398" on="1"/>
        <pt x="880" y="398" on="0"/>
        <pt x="895" y="397" on="0"/>
        <pt x="909" y="391" on="0"/>
        <pt x="919" y="378" on="0"/>
        <pt x="919" y="366" on="1"/>
        <pt x="919" y="354" on="0"/>
        <pt x="909" y="341" on="0"/>
        <pt x="895" y="335" on="0"/>
        <pt x="879" y="334" on="0"/>
        <pt x="874" y="334" on="1"/>
        <pt x="684" y="334" on="1"/>
      </contour>
      <contour>
        <pt x="368" y="166" on="1"/>
        <pt x="565" y="166" on="1"/>
        <pt x="617" y="334" on="1"/>
        <pt x="420" y="334" on="1"/>
      </contour>
    </TTGlyph>
    <TTGlyph name="o" xMin="33" yMin="-6" xMax="558" yMax="453">
      <contour>
        <pt x="558" y="218" on="1"/>
        <pt x="558" y="173" on="0"/>
        <pt x="526" y="92" on="0"/>
        <pt x="461" y="31" on="0"/>
        <pt x="362" y="-6" on="0"/>
        <pt x="295" y="-6" on="1"/>
        <pt x="231" y="-6" on="0"/>
        <pt x="133" y="29" on="0"/>
        <pt x="67" y="90" on="0"/>
        <pt x="33" y="172" on="0"/>
        <pt x="33" y="218" on="1"/>
        <pt x="33" y="265" on="0"/>
        <pt x="66" y="351" on="0"/>
        <pt x="131" y="415" on="0"/>
        <pt x="230" y="453" on="0"/>
        <pt x="296" y="453" on="1"/>
        <pt x="360" y="453" on="0"/>
        <pt x="458" y="416" on="0"/>
        <pt x="524" y="353" on="0"/>
        <pt x="558" y="267" on="0"/>
      </contour>
      <contour>
        <pt x="296" y="37" on="1"/>
        <pt x="344" y="37" on="0"/>
        <pt x="397" y="73" on="0"/>
        <pt x="421" y="129" on="0"/>
        <pt x="425" y="197" on="0"/>
        <pt x="425" y="229" on="1"/>
        <pt x="425" y="261" on="0"/>
        <pt x="421" y="326" on="0"/>
        <pt x="397" y="379" on="0"/>
        <pt x="344" y="413" on="0"/>
        <pt x="295" y="413" on="1"/>
        <pt x="247" y="413" on="0"/>
        <pt x="194" y="379" on="0"/>
        <pt x="170" y="326" on="0"/>
        <pt x="166" y="261" on="0"/>
        <pt x="166" y="229" on="1"/>
        <pt x="166" y="196" on="0"/>
        <pt x="170" y="128" on="0"/>
        <pt x="194" y="73" on="0"/>
        <pt x="247" y="37" on="0"/>
      </contour>
    </TTGlyph>
    <TTGlyph name="oe" xMin="33" yMin="-6" xMax="886" yMax="453">
      <contour>
        <pt x="551" y="215" on="1"/>
        <pt x="551" y="200" on="0"/>
        <pt x="558" y="140" on="0"/>
        <pt x="587" y="81" on="0"/>
        <pt x="648" y="37" on="0"/>
        <pt x="702" y="37" on="1"/>
        <pt x="753" y="37" on="0"/>
        <pt x="821" y="83" on="0"/>
        <pt x="834" y="116" on="1"/>
        <pt x="838" y="127" on="0"/>
        <pt x="846" y="136" on="0"/>
        <pt x="860" y="136" on="1"/>
        <pt x="865" y="136" on="0"/>
        <pt x="886" y="131" on="0"/>
        <pt x="886" y="116" on="1"/>
        <pt x="886" y="109" on="0"/>
        <pt x="867" y="69" on="0"/>
        <pt x="823" y="27" on="0"/>
        <pt x="750" y="-6" on="0"/>
        <pt x="696" y="-6" on="1"/>
        <pt x="650" y="-6" on="0"/>
        <pt x="581" y="12" on="0"/>
        <pt x="532" y="37" on="0"/>
        <pt x="501" y="62" on="0"/>
        <pt x="493" y="69" on="1"/>
        <pt x="485" y="60" on="0"/>
        <pt x="453" y="35" on="0"/>
        <pt x="404" y="11" on="0"/>
        <pt x="337" y="-6" on="0"/>
        <pt x="293" y="-6" on="1"/>
        <pt x="230" y="-6" on="0"/>
        <pt x="133" y="30" on="0"/>
        <pt x="67" y="93" on="0"/>
        <pt x="33" y="177" on="0"/>
        <pt x="33" y="224" on="1"/>
        <pt x="33" y="271" on="0"/>
        <pt x="66" y="354" on="0"/>
        <pt x="131" y="416" on="0"/>
        <pt x="229" y="453" on="0"/>
        <pt x="293" y="453" on="1"/>
        <pt x="337" y="453" on="0"/>
        <pt x="404" y="437" on="0"/>
        <pt x="452" y="414" on="0"/>
        <pt x="483" y="389" on="0"/>
        <pt x="492" y="380" on="1"/>
        <pt x="521" y="412" on="0"/>
        <pt x="617" y="453" on="0"/>
        <pt x="681" y="453" on="1"/>
        <pt x="781" y="453" on="0"/>
        <pt x="886" y="344" on="0"/>
        <pt x="886" y="244" on="1"/>
        <pt x="886" y="222" on="0"/>
        <pt x="870" y="215" on="0"/>
        <pt x="853" y="215" on="1"/>
      </contour>
      <contour>
        <pt x="788" y="251" on="1"/>
        <pt x="787" y="267" on="0"/>
        <pt x="782" y="321" on="0"/>
        <pt x="761" y="374" on="0"/>
        <pt x="719" y="413" on="0"/>
        <pt x="681" y="413" on="1"/>
        <pt x="650" y="413" on="0"/>
        <pt x="606" y="392" on="0"/>
        <pt x="577" y="361" on="0"/>
        <pt x="561" y="322" on="0"/>
        <pt x="553" y="286" on="0"/>
        <pt x="551" y="257" on="0"/>
        <pt x="551" y="251" on="1"/>
      </contour>
      <contour>
        <pt x="293" y="34" on="1"/>
        <pt x="322" y="34" on="0"/>
        <pt x="386" y="59" on="0"/>
        <pt x="406" y="90" on="1"/>
        <pt x="426" y="119" on="0"/>
        <pt x="434" y="195" on="0"/>
        <pt x="434" y="229" on="1"/>
        <pt x="434" y="250" on="0"/>
        <pt x="430" y="312" on="0"/>
        <pt x="403" y="371" on="0"/>
        <pt x="346" y="413" on="0"/>
        <pt x="293" y="413" on="1"/>
        <pt x="241" y="413" on="0"/>
        <pt x="184" y="372" on="0"/>
        <pt x="158" y="313" on="0"/>
        <pt x="154" y="250" on="0"/>
        <pt x="154" y="229" on="1"/>
        <pt x="154" y="208" on="0"/>
        <pt x="158" y="141" on="0"/>
        <pt x="184" y="79" on="0"/>
        <pt x="241" y="34" on="0"/>
      </contour>
    </TTGlyph>
    <TTGlyph name="one" xMin="88" yMin="0" xMax="509" yMax="656">
      <contour>
        <pt x="364" y="49" on="1"/>
        <pt x="509" y="49" on="1"/>
        <pt x="509" y="0" on="1"/>
        <pt x="494" y="1" on="0"/>
        <pt x="439" y="2" on="0"/>
        <pt x="378" y="3" on="0"/>
        <pt x="321" y="3" on="0"/>
        <pt x="303" y="3" on="1"/>
        <pt x="286" y="3" on="0"/>
        <pt x="229" y="3" on="0"/>
        <pt x="168" y="2" on="0"/>
        <pt x="113" y="1" on="0"/>
        <pt x="99" y="0" on="1"/>
        <pt x="99" y="49" on="1"/>
        <pt x="242" y="49" on="1"/>
        <pt x="242" y="563" on="1"/>
        <pt x="200" y="550" on="0"/>
        <pt x="126" y="543" on="0"/>
        <pt x="108" y="543" on="1"/>
        <pt x="88" y="543" on="1"/>
        <pt x="88" y="592" on="1"/>
        <pt x="108" y="592" on="1"/>
        <pt x="116" y="592" on="0"/>
        <pt x="159" y="594" on="0"/>
        <pt x="218" y="604" on="0"/>
        <pt x="283" y="628" on="0"/>
        <pt x="312" y="649" on="1"/>
        <pt x="319" y="654" on="0"/>
        <pt x="326" y="656" on="0"/>
        <pt x="335" y="656" on="1"/>
        <pt x="357" y="656" on="0"/>
        <pt x="364" y="640" on="0"/>
        <pt x="364" y="623" on="1"/>
      </contour>
    </TTGlyph>
</ttFont>
